<?xml version="1.0" encoding="utf-8"?>
<!-- Generator: Adobe Illustrator 22.1.0, SVG Export Plug-In . SVG Version: 6.00 Build 0)  -->
<svg version="1.1" id="Layer_1" xmlns="http://www.w3.org/2000/svg" xmlns:xlink="http://www.w3.org/1999/xlink" x="0px" y="0px"
	 viewBox="0 0 101 120" style="enable-background:new 0 0 101 120;" xml:space="preserve">
<style type="text/css">
	.st0{fill:#2E3192;}
	.st1{fill:#FFFFFF;}
	.st2{fill:#34328F;}
	.st3{fill:#2D2F8F;}
	.st4{fill:#FFFAC2;}
	.st5{fill:#009E53;}
	.st6{clip-path:url(#SVGID_2_);fill:#5E6063;}
	.st7{clip-path:url(#SVGID_2_);fill:#5E5F62;}
	.st8{clip-path:url(#SVGID_2_);fill:#5D5F61;}
	.st9{clip-path:url(#SVGID_2_);fill:#5D5E61;}
	.st10{clip-path:url(#SVGID_2_);fill:#5C5D60;}
	.st11{clip-path:url(#SVGID_2_);fill:#5B5D5F;}
	.st12{clip-path:url(#SVGID_2_);fill:#5B5C5F;}
	.st13{clip-path:url(#SVGID_2_);fill:#5A5B5E;}
	.st14{clip-path:url(#SVGID_2_);fill:#5A5B5D;}
	.st15{clip-path:url(#SVGID_2_);fill:#595A5D;}
	.st16{clip-path:url(#SVGID_2_);fill:#58595C;}
	.st17{clip-path:url(#SVGID_2_);fill:#58595B;}
	.st18{clip-path:url(#SVGID_2_);fill:#57585B;}
	.st19{clip-path:url(#SVGID_2_);fill:#56575A;}
	.st20{clip-path:url(#SVGID_2_);fill:#565759;}
	.st21{clip-path:url(#SVGID_2_);fill:#555659;}
	.st22{clip-path:url(#SVGID_2_);fill:#545558;}
	.st23{clip-path:url(#SVGID_2_);fill:#545557;}
	.st24{clip-path:url(#SVGID_2_);fill:#535457;}
	.st25{clip-path:url(#SVGID_2_);fill:#525356;}
	.st26{clip-path:url(#SVGID_2_);fill:#525355;}
	.st27{clip-path:url(#SVGID_2_);fill:#515254;}
	.st28{clip-path:url(#SVGID_2_);fill:#505154;}
	.st29{clip-path:url(#SVGID_2_);fill:#505053;}
	.st30{clip-path:url(#SVGID_2_);fill:#4F5052;}
	.st31{clip-path:url(#SVGID_2_);fill:#4E4F51;}
	.st32{clip-path:url(#SVGID_2_);fill:#4E4E51;}
	.st33{clip-path:url(#SVGID_2_);fill:#4D4D50;}
	.st34{clip-path:url(#SVGID_2_);fill:#4C4D4F;}
	.st35{clip-path:url(#SVGID_2_);fill:#4B4C4E;}
	.st36{clip-path:url(#SVGID_2_);fill:#4B4B4D;}
	.st37{clip-path:url(#SVGID_2_);fill:#4A4A4D;}
	.st38{clip-path:url(#SVGID_2_);fill:#494A4C;}
	.st39{clip-path:url(#SVGID_2_);fill:#48494B;}
	.st40{clip-path:url(#SVGID_2_);fill:#48484A;}
	.st41{clip-path:url(#SVGID_2_);fill:#474749;}
	.st42{clip-path:url(#SVGID_2_);fill:#464648;}
	.st43{clip-path:url(#SVGID_2_);fill:#454648;}
	.st44{clip-path:url(#SVGID_2_);fill:#454547;}
	.st45{clip-path:url(#SVGID_2_);fill:#444446;}
	.st46{clip-path:url(#SVGID_2_);fill:#434345;}
	.st47{clip-path:url(#SVGID_2_);fill:#424244;}
	.st48{clip-path:url(#SVGID_2_);fill:#424143;}
	.st49{clip-path:url(#SVGID_2_);fill:#414042;}
	.st50{clip-path:url(#SVGID_2_);fill:#404042;}
	.st51{clip-path:url(#SVGID_2_);fill:#3F3F41;}
	.st52{clip-path:url(#SVGID_2_);fill:#3E3E40;}
	.st53{clip-path:url(#SVGID_2_);fill:#3D3D3F;}
	.st54{clip-path:url(#SVGID_2_);fill:#3C3C3E;}
	.st55{clip-path:url(#SVGID_2_);fill:#3B3B3D;}
	.st56{clip-path:url(#SVGID_2_);fill:#3A393B;}
	.st57{clip-path:url(#SVGID_2_);fill:#38383A;}
	.st58{clip-path:url(#SVGID_2_);fill:#373638;}
	.st59{clip-path:url(#SVGID_2_);fill:#353536;}
	.st60{clip-path:url(#SVGID_2_);fill:#333334;}
	.st61{clip-path:url(#SVGID_2_);fill:#313132;}
	.st62{clip-path:url(#SVGID_2_);fill:#302F31;}
	.st63{clip-path:url(#SVGID_2_);fill:#2E2D2F;}
	.st64{clip-path:url(#SVGID_2_);fill:#2C2B2D;}
	.st65{clip-path:url(#SVGID_2_);fill:#2A292B;}
	.st66{clip-path:url(#SVGID_2_);fill:#282729;}
	.st67{clip-path:url(#SVGID_2_);fill:#A2A8AF;}
	.st68{clip-path:url(#SVGID_2_);fill:#A2A8AE;}
	.st69{clip-path:url(#SVGID_2_);fill:#A1A7AE;}
	.st70{clip-path:url(#SVGID_2_);fill:#A1A7AD;}
	.st71{clip-path:url(#SVGID_2_);fill:#A1A6AD;}
	.st72{clip-path:url(#SVGID_2_);fill:#A0A6AD;}
	.st73{clip-path:url(#SVGID_2_);fill:#A0A6AC;}
	.st74{clip-path:url(#SVGID_2_);fill:#A0A5AC;}
	.st75{clip-path:url(#SVGID_2_);fill:#9FA5AB;}
	.st76{clip-path:url(#SVGID_2_);fill:#9FA4AB;}
	.st77{clip-path:url(#SVGID_2_);fill:#9FA4AA;}
	.st78{clip-path:url(#SVGID_2_);fill:#9EA4AA;}
	.st79{clip-path:url(#SVGID_2_);fill:#9EA3AA;}
	.st80{clip-path:url(#SVGID_2_);fill:#9EA3A9;}
	.st81{clip-path:url(#SVGID_2_);fill:#9DA3A9;}
	.st82{clip-path:url(#SVGID_2_);fill:#9DA2A9;}
	.st83{clip-path:url(#SVGID_2_);fill:#9DA2A8;}
	.st84{clip-path:url(#SVGID_2_);fill:#9CA1A8;}
	.st85{clip-path:url(#SVGID_2_);fill:#9CA1A7;}
	.st86{clip-path:url(#SVGID_2_);fill:#9BA0A6;}
	.st87{clip-path:url(#SVGID_2_);fill:#9B9FA5;}
	.st88{clip-path:url(#SVGID_2_);fill:#9A9FA5;}
	.st89{clip-path:url(#SVGID_2_);fill:#9A9EA4;}
	.st90{clip-path:url(#SVGID_2_);fill:#999EA4;}
	.st91{clip-path:url(#SVGID_2_);fill:#999DA3;}
	.st92{clip-path:url(#SVGID_2_);fill:#989DA3;}
	.st93{clip-path:url(#SVGID_2_);fill:#989DA2;}
	.st94{clip-path:url(#SVGID_2_);fill:#989CA2;}
	.st95{clip-path:url(#SVGID_2_);fill:#979CA2;}
	.st96{clip-path:url(#SVGID_2_);fill:#979CA1;}
	.st97{clip-path:url(#SVGID_2_);fill:#979BA1;}
	.st98{clip-path:url(#SVGID_2_);fill:#979BA0;}
	.st99{clip-path:url(#SVGID_2_);fill:#969BA0;}
	.st100{clip-path:url(#SVGID_2_);fill:#969AA0;}
	.st101{clip-path:url(#SVGID_2_);fill:#959A9F;}
	.st102{clip-path:url(#SVGID_2_);fill:#95999F;}
	.st103{clip-path:url(#SVGID_2_);fill:#94999E;}
	.st104{clip-path:url(#SVGID_2_);fill:#94989E;}
	.st105{clip-path:url(#SVGID_2_);fill:#94989D;}
	.st106{clip-path:url(#SVGID_2_);fill:#93989D;}
	.st107{clip-path:url(#SVGID_2_);fill:#93979D;}
	.st108{clip-path:url(#SVGID_2_);fill:#93979C;}
	.st109{clip-path:url(#SVGID_2_);fill:#92969C;}
	.st110{clip-path:url(#SVGID_2_);fill:#92969B;}
	.st111{clip-path:url(#SVGID_2_);fill:#91959A;}
	.st112{clip-path:url(#SVGID_2_);fill:#909499;}
	.st113{clip-path:url(#SVGID_2_);fill:#8F9398;}
	.st114{clip-path:url(#SVGID_2_);fill:#8E9297;}
	.st115{clip-path:url(#SVGID_2_);fill:#8E9196;}
	.st116{clip-path:url(#SVGID_2_);fill:#8D9196;}
	.st117{clip-path:url(#SVGID_2_);fill:#8D9195;}
	.st118{clip-path:url(#SVGID_2_);fill:#8C9095;}
	.st119{clip-path:url(#SVGID_2_);fill:#8C9094;}
	.st120{clip-path:url(#SVGID_2_);fill:#8C8F94;}
	.st121{clip-path:url(#SVGID_2_);fill:#8B8F94;}
	.st122{clip-path:url(#SVGID_2_);fill:#8B8E93;}
	.st123{clip-path:url(#SVGID_2_);fill:#8A8E93;}
	.st124{clip-path:url(#SVGID_2_);fill:#8A8E92;}
	.st125{clip-path:url(#SVGID_2_);fill:#898D92;}
	.st126{clip-path:url(#SVGID_2_);fill:#898D91;}
	.st127{clip-path:url(#SVGID_2_);fill:#898C91;}
	.st128{clip-path:url(#SVGID_2_);fill:#888C90;}
	.st129{clip-path:url(#SVGID_2_);fill:#888B90;}
	.st130{clip-path:url(#SVGID_2_);fill:#878B8F;}
	.st131{clip-path:url(#SVGID_2_);fill:#878A8F;}
	.st132{clip-path:url(#SVGID_2_);fill:#878A8E;}
	.st133{clip-path:url(#SVGID_2_);fill:#868A8E;}
	.st134{clip-path:url(#SVGID_2_);fill:#86898E;}
	.st135{clip-path:url(#SVGID_2_);fill:#85898D;}
	.st136{clip-path:url(#SVGID_2_);fill:#85888D;}
	.st137{clip-path:url(#SVGID_2_);fill:#84888C;}
	.st138{clip-path:url(#SVGID_2_);fill:#84878C;}
	.st139{clip-path:url(#SVGID_2_);fill:#84878B;}
	.st140{clip-path:url(#SVGID_2_);fill:#83868B;}
	.st141{clip-path:url(#SVGID_2_);fill:#83868A;}
	.st142{clip-path:url(#SVGID_2_);fill:#82858A;}
	.st143{clip-path:url(#SVGID_2_);fill:#828589;}
	.st144{clip-path:url(#SVGID_2_);fill:#818489;}
	.st145{clip-path:url(#SVGID_2_);fill:#818488;}
	.st146{clip-path:url(#SVGID_2_);fill:#808488;}
	.st147{clip-path:url(#SVGID_2_);fill:#808387;}
	.st148{clip-path:url(#SVGID_2_);fill:#7F8286;}
	.st149{clip-path:url(#SVGID_2_);fill:#7E8185;}
	.st150{clip-path:url(#SVGID_2_);fill:#7D8084;}
	.st151{clip-path:url(#SVGID_2_);fill:#7C7F83;}
	.st152{clip-path:url(#SVGID_2_);fill:#7B7E82;}
	.st153{clip-path:url(#SVGID_2_);fill:#7B7D81;}
	.st154{clip-path:url(#SVGID_2_);fill:#7A7D81;}
	.st155{clip-path:url(#SVGID_2_);fill:#7A7C80;}
	.st156{clip-path:url(#SVGID_2_);fill:#797C80;}
	.st157{clip-path:url(#SVGID_2_);fill:#797C7F;}
	.st158{clip-path:url(#SVGID_2_);fill:#787B7F;}
	.st159{clip-path:url(#SVGID_2_);fill:#787B7E;}
	.st160{clip-path:url(#SVGID_2_);fill:#777A7E;}
	.st161{clip-path:url(#SVGID_2_);fill:#777A7D;}
	.st162{clip-path:url(#SVGID_2_);fill:#76797D;}
	.st163{clip-path:url(#SVGID_2_);fill:#76797C;}
	.st164{clip-path:url(#SVGID_2_);fill:#75787C;}
	.st165{clip-path:url(#SVGID_2_);fill:#75787B;}
	.st166{clip-path:url(#SVGID_2_);fill:#75777B;}
	.st167{clip-path:url(#SVGID_2_);fill:#74777A;}
	.st168{clip-path:url(#SVGID_2_);fill:#74767A;}
	.st169{clip-path:url(#SVGID_2_);fill:#737679;}
	.st170{clip-path:url(#SVGID_2_);fill:#737579;}
	.st171{clip-path:url(#SVGID_2_);fill:#727578;}
	.st172{clip-path:url(#SVGID_2_);fill:#727478;}
	.st173{clip-path:url(#SVGID_2_);fill:#717477;}
	.st174{clip-path:url(#SVGID_2_);fill:#717377;}
	.st175{clip-path:url(#SVGID_2_);fill:#707376;}
	.st176{clip-path:url(#SVGID_2_);fill:#707276;}
	.st177{clip-path:url(#SVGID_2_);fill:#6F7275;}
	.st178{clip-path:url(#SVGID_2_);fill:#6F7175;}
	.st179{clip-path:url(#SVGID_2_);fill:#6E7174;}
	.st180{clip-path:url(#SVGID_2_);fill:#6E7074;}
	.st181{clip-path:url(#SVGID_2_);fill:#6D7073;}
	.st182{clip-path:url(#SVGID_2_);fill:#6D6F73;}
	.st183{clip-path:url(#SVGID_2_);fill:#6C6F72;}
	.st184{clip-path:url(#SVGID_2_);fill:#6C6E72;}
	.st185{clip-path:url(#SVGID_2_);fill:#6C6E71;}
	.st186{clip-path:url(#SVGID_2_);fill:#6B6D70;}
	.st187{clip-path:url(#SVGID_2_);fill:#6A6C6F;}
	.st188{clip-path:url(#SVGID_2_);fill:#696B6E;}
	.st189{clip-path:url(#SVGID_2_);fill:#686A6D;}
	.st190{clip-path:url(#SVGID_2_);fill:#67696D;}
	.st191{clip-path:url(#SVGID_2_);fill:#67696C;}
	.st192{clip-path:url(#SVGID_2_);fill:#66686C;}
	.st193{clip-path:url(#SVGID_2_);fill:#66686B;}
	.st194{clip-path:url(#SVGID_2_);fill:#65676A;}
	.st195{clip-path:url(#SVGID_2_);fill:#646669;}
	.st196{clip-path:url(#SVGID_2_);fill:#636568;}
	.st197{clip-path:url(#SVGID_2_);fill:#636467;}
	.st198{clip-path:url(#SVGID_2_);fill:#626467;}
	.st199{clip-path:url(#SVGID_2_);fill:#626366;}
	.st200{clip-path:url(#SVGID_2_);fill:#616366;}
	.st201{clip-path:url(#SVGID_2_);fill:#616265;}
	.st202{clip-path:url(#SVGID_2_);fill:#606264;}
	.st203{clip-path:url(#SVGID_2_);fill:#5F6164;}
	.st204{clip-path:url(#SVGID_2_);fill:#5F6063;}
	.st205{clip-path:url(#SVGID_2_);fill:#262526;}
	.st206{clip-path:url(#SVGID_2_);fill:#232324;}
	.st207{clip-path:url(#SVGID_2_);fill:#212122;}
	.st208{clip-path:url(#SVGID_2_);fill:#1F1E1F;}
	.st209{clip-path:url(#SVGID_2_);fill:#1C1C1D;}
	.st210{clip-path:url(#SVGID_2_);fill:#19191A;}
	.st211{clip-path:url(#SVGID_2_);fill:#161617;}
	.st212{clip-path:url(#SVGID_2_);fill:#131314;}
	.st213{clip-path:url(#SVGID_2_);fill:#101011;}
	.st214{clip-path:url(#SVGID_2_);fill:#0C0C0D;}
	.st215{clip-path:url(#SVGID_2_);fill:#080808;}
	.st216{clip-path:url(#SVGID_2_);fill:#040404;}
	.st217{clip-path:url(#SVGID_2_);}
	.st218{fill:#F19330;}
	.st219{fill:none;}
	.st220{fill:#E2E4E7;}
	.st221{fill:#F6C63F;}
	.st222{fill:#F8F8F9;}
	.st223{fill:#007A48;}
</style>
<g>
	<g>
		<g>
			<g>
				<path class="st0" d="M91.2,93c-0.3-4.6-5.4-4.9-5.4-2.8c0,2,1.9,2.9,2.7,2.9c0.8,0,1-1.1,1-1.1c0.6-0.2,0.5,0.3,0.5,0.3
					c-0.4,5.8-1.9,6.2-2.6,6.3c-0.6,0-0.8-1.2-1.7-1.2c-0.9,0-0.1,1.8,1.6,2.6C89.1,100.6,91.5,97.5,91.2,93z M88.3,91.3
					c-0.2,0.2-0.6,0.2-0.9,0c-0.3-0.2-0.4-0.6-0.2-0.8c0.2-0.2,0.6-0.2,0.9,0C88.4,90.7,88.5,91.1,88.3,91.3z"/>
			</g>
			<g>
				<path class="st0" d="M85.3,88.4c-0.4-0.1-0.5,0.1-0.5,0.1s-2.1,3.9-2.3,4.5c-0.2,0.5-0.2,1.1-0.2,1.1c0,0.8,0.6,0.5,0.6,0.5
					l0.4-0.6c0,0,1.8-3.2,2.1-4.1C85.6,89,85.7,88.5,85.3,88.4z"/>
			</g>
			<g>
				<path class="st0" d="M84.1,98.6c0,0-0.9,1.6-2,1.8c-1.1,0.2-0.3-1.1,0-1.1c0.3,0,1-0.3,1-0.9c0-0.6-0.7-1-2.4-0.1
					c-1.8,0.9,0.3,3.4,0.3,3.4c-4.2,5.2-14.8,8.9-16.2,8.9s-2.2-3.3-2.2-3.3s-0.7-2.5-1.6-2.3c-1.3,0.3,1.4,6.1,1.4,6.1
					c-0.7,1.2-4.7,1.2-4.7,1.2c-1.4-3-2.2-0.5-2.9,0.4c-0.7,0.9-6.3,0.9-6.3,0.9s0.1-0.2-0.8-1.9c-0.9-1.7-2.8-0.5-2.8,1.4
					c0,2,2.5,2.2,2.5,2.2s-1.3,1.3-4,1.6c-2.7,0.4-2.4-1.9-1.8-2.9c0.5-1-0.4-0.8-0.4-0.8c-2.6,4-0.9,5.8,3.1,5.5
					c3.9-0.4,4.7-3.5,4.7-3.5c4.2,0.2,6.2-1,6.2-1c4,2.6,2.9-0.1,2.9-0.1c4.7,0.3,5-1.9,5-1.9c9.2,0.9,20-9.3,21-11.2
					c1.4-1.5,0.8-2,0.8-2.5C84.9,97.9,84.1,98.6,84.1,98.6z M47.1,113.5c-0.2,0.2-0.6,0.2-0.9-0.1c-0.3-0.3-0.3-0.7-0.1-0.9
					c0.2-0.2,0.6-0.2,0.9,0.1C47.2,112.9,47.3,113.3,47.1,113.5z"/>
			</g>
			<g>
				<path class="st0" d="M70.6,106.3c0,0,5-4.8,5.8-5.8c0.8-1,1.1-1.7,0.7-1.8c-0.4,0-0.8,0.1-1.2,0.8c-0.4,0.7-6.4,6.1-6.4,6.1
					s-0.7,0.5-0.2,1C69.8,107.2,70.6,106.3,70.6,106.3z"/>
			</g>
			<g>
				<path class="st0" d="M48.4,111.5c1.9,0.5,5.6-1.3,7-3.6c1.5-2-1.4-3.4-2.3-1.8c-0.9,1.8,0.3,2.4,0.3,2.4c-1.5,1.6-4,2.1-4,2.1
					C48.5,110.8,47.9,111.3,48.4,111.5z M53.9,106.8c0.2-0.2,0.5-0.3,0.6-0.1c0.2,0.2,0.1,0.4-0.1,0.7c-0.2,0.2-0.5,0.3-0.6,0.1
					C53.7,107.3,53.7,107,53.9,106.8z"/>
			</g>
			<g>
				<path class="st0" d="M48.2,107c-1.5-0.7-2.2-0.3-2.3,0.4c-0.1,0.6,1.3,0.1,1.4,0.8c0,0.7-1.1,0.6-1.1,0.6
					c-0.5,0-0.9,0.5-0.4,0.9C48.1,110.4,49.4,107.6,48.2,107z"/>
			</g>
			<g>
				<path class="st0" d="M41.1,108.8c2.5-0.5,2.8-3.7,0.7-3.1c-2.1,0.6-1.3,2.1-1.3,2.1c-0.4,0.6-1.2,0.5-1.7,0.5
					c-0.5,0-1.1,0.1-0.9,0.6C38,109,38.6,109.2,41.1,108.8z M41.5,106.7c0.2-0.1,0.5-0.1,0.6,0.1c0.1,0.2,0,0.5-0.3,0.6
					c-0.3,0.1-0.5,0.1-0.6-0.1C41.1,107.1,41.3,106.8,41.5,106.7z"/>
			</g>
			<g>
				<path class="st0" d="M39.5,110.2c-0.8-0.1-1.1,0.2-1.1,0.2c-0.5-1.1-1.2-1.6-1.9-1c-0.6,0.4,0.5,1.6,0.5,1.6
					c-1.7,1.4-3.2,4.1-0.5,4.8c4.5-0.1,2.6-4.5,2.6-4.5S40.3,110.3,39.5,110.2z M38,113.4c-0.2,0.4-0.6,0.6-0.9,0.4
					c-0.3-0.1-0.4-0.6-0.2-0.9c0.2-0.4,0.6-0.6,0.9-0.4C38,112.6,38.2,113,38,113.4z"/>
			</g>
			<g>
				<path class="st0" d="M18.4,96.1c1.2,0.2,1.1-0.2,1.1-0.2c0.3-0.3-0.5-0.6-0.5-0.6s-2.9-1-3.8-1.4c-0.8-0.3-1.3-0.8-1.7,0
					C13.1,94.7,17.2,95.9,18.4,96.1z"/>
			</g>
			<g>
				<path class="st0" d="M32.3,105.2c-0.7,0.1-1.3,0.9-1.3,1.8c-0.1,0.9-0.8,2.9-1.4,3.9c-0.5,1-0.2,1.1-0.2,1.1
					c1.4,0.1,2.7-4.4,2.7-4.4C32.5,107.2,33,105.1,32.3,105.2z"/>
			</g>
			<g>
				<polygon class="st0" points="24.2,104.9 24.5,106.1 25.7,105.8 25.5,104.6 				"/>
			</g>
			<g>
				<path class="st0" d="M24.3,101.9c-1.2,2.2,1.3,1.8,1.3,1.8c1.5,1.5,1.9-1,1.9-1s0.1-0.2-0.2-0.2c-0.2,0-0.3,0.2-0.3,0.2
					s0.1,0.6-0.4,0.7c-0.5,0.1-0.3-0.9-0.3-0.9s0-0.5-0.3-0.1c-0.2,0.8-0.7,0.6-0.7,0.6c-0.7,0-0.2-1-0.2-1s1,0,2.6,0
					c1.6,0,1.2-0.7,1-0.9c-0.2-0.1-4.7-0.2-4.7-0.2c-0.5,0-1.2-0.1-1.5,0.3C22.3,102.3,24.3,101.9,24.3,101.9z"/>
			</g>
			<g>
				<path class="st0" d="M29.4,106.9c0.7-0.1,1.9-3.2,0.7-3c-1.5,0.3-1.7,2.3-1.7,2.3s-1.1,3.3-2.3,3.3c-1.2,0.1-1.6-0.9-1.6-1.4
					c0-0.5-0.1-0.7-0.1-0.7c-5.8,0.5-4.8-3.8-4.8-3.8l2.1-3.8c0,0,0.8-1.2,0.2-1.3c-0.7-0.1-0.9,0.3-0.9,0.3s-2.4,4.2-3,5.9
					c-0.6,4,5.1,4.3,5.1,4.3s0,1.2,1.8,2.1C27.6,112.3,29.4,106.9,29.4,106.9L29.4,106.9z"/>
			</g>
			<g>
				<path class="st0" d="M18.5,101.1c0.8-1.1,0-1.8-0.7-1.4c-0.3,0.1-0.4,0.4-0.4,0.7c-0.2,1.1-0.8,0.3-0.8,0.3
					c-0.3-0.6,0-1.9,0-1.9c-0.5-0.5-0.9,0-0.9,0l-0.1,0.6c-0.7,0.9-1.2,0-1.2,0v-1l0-2.4c-0.1-0.2-0.5-0.2-0.5-0.2
					c-1.7,0.4-1.6,2.8-1.6,2.8c-3-0.2-4.7-1.2-5.8-3.7c-0.7-2.1,2-1.9,3.4-1.2c1.3,0.7,1.2-0.1,1.2-0.1c-0.7-1.5-6.6-2.4-6.1,0.7
					c1.6,6.9,7.9,4.9,7.9,4.9c0.2,2.1,2.2,1.3,2.2,1.3C15.2,103.5,17.7,102.1,18.5,101.1z"/>
			</g>
		</g>
	</g>
	<g>
		<g>
			<g>
				<path class="st0" d="M3.1,25.1C3.3,25.4,3.8,25,3.8,25l1.2-3.9c0.4-1.6-0.5-1.6-0.5-1.6c-0.4,0.1-0.5,0.4-0.5,0.4l-1.3,4.5
					C2.8,24.4,2.6,24.9,3.1,25.1z"/>
			</g>
			<g>
				<path class="st0" d="M35.9,12.5c-0.3-0.2-0.6,0-0.6,0l-3.6,3c0,0-0.4,0.3-0.2,0.8c0,0.4,0.7,0.4,0.7,0.4l3.2-2.5
					C36.7,12.9,35.9,12.5,35.9,12.5z"/>
			</g>
			<g>
				<path class="st0" d="M90.8,20.9c1.8,0.7,1.9-0.2,1.9-0.2c0-0.4-0.3-0.6-0.3-0.6L87.6,18c0,0-0.5-0.3-0.9,0.1
					c-0.4,0.2,0,0.8,0,0.8L90.8,20.9z"/>
			</g>
			<g>
				<path class="st0" d="M99,27.2l-4.3-3c0,0-0.5-0.4-0.9,0c-0.4,0.1-0.2,0.8-0.2,0.8l3.7,2.7c1.6,1,1.9,0.1,1.9,0.1
					C99.3,27.4,99,27.2,99,27.2z"/>
			</g>
			<g>
				<path class="st0" d="M6.1,19.1c0,0,0.3-1,0.8-1.1c0.6-0.1,0.2,1.1,0.2,1.1s-0.3,1.8,0,1.9C7.4,21.3,7.8,21,7.8,21
					s0.9-3.2,0.1-4.2c-0.8-1-2.4,0.3-2.4,1.4C5.4,19.3,6.1,19.1,6.1,19.1z"/>
			</g>
			<g>
				<path class="st0" d="M40.9,4c0,0-0.5-2.7-1.7-2.1c-1.1,0.6,0,2,0,2l0.4,4.8c0.1,1.6-1.3,1.5-1.3,1.5c-2,0.3-1.3-0.7-1.3-0.7
					s1.4-1,0.8-1.6c-0.7-2.3-5.1-1.3-5.8,0.3c-0.7,1.7,0.3,1.5,1.3,1.5c1.1,0,0.8,0.5,0.8,0.5C22.8,13.4,12.8,21,12.8,21L10,16.8
					c0,0-0.7-1.2-1.1-0.5C8.5,17,9,17.6,9,17.6l2.6,4.2c-0.8,0.7-2.3,2.7-2.3,2.7c-1.2,0-1.4,0.7-1.4,0.7l0.4,1
					c-1.9,2-2.3,5.5-2.3,5.5c-0.6,1.9-2,0.4-2.2-0.3C3.6,31,3.4,28.7,3,28.8c-0.3,0.1-0.3,0.8-0.3,0.8s0.2,3,2,4.1
					c1.8,1.1,2.6-0.7,2.6-2.6c0-1.9,2.2-3.8,2.2-3.8c2.6,0.3,2.7-0.9,2.7-1.6c0-0.7-1.2-1.2-1.2-1.2C22,14.8,36,11.3,36,11.3
					s0.5,0.7,2.2,0.7c3.1-0.1,2.7-2.6,2.7-2.6l-0.4-4.7C40.9,4.5,40.9,4,40.9,4z M35.4,9.1c-0.5,0.1-0.9,0-1-0.3
					c-0.1-0.3,0.3-0.7,0.7-0.8c0.5-0.1,0.9,0,1,0.3C36.2,8.6,35.9,9,35.4,9.1z"/>
			</g>
			<g>
				<path class="st0" d="M42.6,2.5c0,0,0.2,6.4,0.3,7.2c0,0.8,0.2,1.3,0.6,1.3c0.4,0,0.6-0.8,0.6-0.8V4.5c0.6-0.7,0.8-1.5-0.1-2.4
					C42.9,1.2,42.6,2.5,42.6,2.5z"/>
			</g>
			<g>
				<path class="st0" d="M53.4,12c0.4,0,0.6-0.7,0.6-0.7l0.4-5.8c0.6-0.7,0.9-1.4,0.1-2.4c-0.9-1-1.3,0.3-1.3,0.3S53,9.8,53,10.6
					C52.9,11.5,53,11.9,53.4,12z"/>
			</g>
			<g>
				<path class="st0" d="M92,30.8c0,1.8-1.1,1.8-2,0.2c-0.8-1.6,0.2-1.6,0.2-1.6s1.3,0.7,1.5-0.2c0-2.6-2-4.9-3.5-4.7
					c-1.6,0.1-1,0.8-0.3,1.9c0.7,1.1-0.4,0.5-0.4,0.5c-5.8-8.2-17.6-13.4-17.6-13.4l1.6-4.7c0,0,0.4-0.7-0.2-0.9
					C70.7,7.6,70.4,8,70.4,8L70,9.4L68.7,13c-0.5-0.2-4.1-1.2-4.1-1.2s0-2.1-0.9-2.7c-0.8-0.6-3,1.4-3,1.4l-1.1-0.3
					c-0.2-2.1-1.2-4.3-2.9-1.7c-1.7,2.7,1.3,3.2,1.3,3.2c-4.8,3.4-5.9,0.2-5.9-0.7c0-0.9-0.1-1.1-0.1-1.1s-1.7,0.1-1,2.9
					c2.1,4.8,8.5-0.8,8.5-0.8l1.7,0.3c0,0,0.8,2,1.5,2.3c0.7,0.2,1-1.5,1-1.5c0.9,0,5.1,1.5,5.1,1.5c0.3,0.5,1,0.7,1,0.7
					c7.3,3,13.7,9.8,15.1,11.3c1.4,1.6,2.8,2.5,2.8,2.5c0,1.3,0.5,4,2.5,4.3c2,0.3,3.5-2.1,3.4-3C93.7,29.7,92.1,30.5,92,30.8z
					 M57.9,10.3c-0.2,0-0.5-0.3-0.5-0.6c0-0.3,0.2-0.6,0.5-0.6c0.2,0,0.5,0.3,0.5,0.6C58.3,10,58.1,10.3,57.9,10.3z M62.7,12.4
					c-0.3,0.1-0.7-0.2-0.8-0.7c-0.1-0.4,0.1-0.9,0.4-0.9c0.3-0.1,0.7,0.2,0.8,0.7C63.2,11.9,63,12.3,62.7,12.4z M89.2,27.3
					c-0.2-0.5-0.2-0.9-0.1-1c0.2-0.1,0.5,0.3,0.7,0.8c0.2,0.5,0.2,0.9,0.1,1C89.7,28.2,89.4,27.8,89.2,27.3z"/>
			</g>
			<g>
				<path class="st0" d="M58.4,5.3c-0.6,0.1-0.9-0.1-1.2,0.6c-0.3,0.7-0.1,0.7,3.8,0.4c3.9-0.2,4.7-5.3,2.2-5.2
					c-2.5,0.2-1.9,3.4-1.9,3.4C61.1,5.2,59,5.3,58.4,5.3z M62.4,3.1c0.1-0.4,0.5-0.6,0.7-0.5c0.3,0.1,0.4,0.5,0.3,0.8
					c-0.1,0.4-0.5,0.6-0.7,0.5C62.4,3.8,62.3,3.5,62.4,3.1z"/>
			</g>
			<g>
				<path class="st0" d="M57.5,2.4c-0.1,0.5-1,0.8-1,0.8s-0.8,0.9,0.4,1C60,3.5,59.5,1,58.3,1C57,1,56.2,1,56.2,1.9
					C56.2,2.7,57.5,2.4,57.5,2.4z"/>
			</g>
			<g>
				<path class="st0" d="M67,6.6c0,0,2.3-0.9,3.4-1c1-0.2,0.5-1.3,0.5-1.3l-3,0.7c0,0-0.9,0.2-1.2,0.9C66.4,6.7,67,6.6,67,6.6z"/>
			</g>
			<g>
				<path class="st0" d="M67.7,9.5c1.5,1.7,2.6-2.1,2.4-2.7c-0.2-0.6-0.6-0.3-1,0.9c-0.4,1.3-0.5-0.5-0.5-0.5s-0.2-1.1-0.7-0.4
					c-1,3-0.6,0.1-1,0.1c-0.4,0.1-1,0.2-1,1.9C65.9,10.6,67.7,9.5,67.7,9.5z"/>
			</g>
			<g>
				<polygon class="st0" points="95.3,29.3 95.2,28.1 93.9,28.2 94,29.6 95.2,29.4 95.3,30.6 96.7,30.5 96.5,29.1 				"/>
			</g>
		</g>
	</g>
	<g>
		<path class="st1" d="M91.6,60c0,24-19.4,43.4-43.4,43.4C24.2,103.4,4.8,84,4.8,60c0-24,19.4-43.4,43.4-43.4
			C72.2,16.6,91.6,36,91.6,60z"/>
	</g>
	<g>
		<path class="st2" d="M91,60c0,23.6-19.2,42.8-42.8,42.8C24.6,102.8,5.4,83.6,5.4,60c0-23.6,19.2-42.8,42.8-42.8
			C71.8,17.2,91,36.4,91,60z M48.2,16c-24.3,0-44,19.7-44,44c0,24.3,19.7,44,44,44c24.3,0,44-19.7,44-44C92.2,35.7,72.4,16,48.2,16z
			"/>
	</g>
	<g>
		<g>
			<path class="st3" d="M18.3,65.8l-0.2-1.3l0.7-0.6l0.7,4.5l-0.7,0.6L18.4,67c0,0-0.1-0.1-0.2-0.2c0,0-0.1,0-0.1,0
				c-0.1,0-0.2,0.1-0.3,0.4c-0.1,0.2-0.1,0.4-0.1,0.5c0,0.1,0.2,0.3,0.4,0.6c-0.3,0.2-0.6,0.5-0.9,0.8c-0.2-0.1-0.6-0.2-0.9-0.2
				c-0.4-0.1-0.8-0.1-1.1,0c-0.3,0-0.5,0-0.7,0.1c-0.4,0.1-0.9,0.2-1.5,0.5c-0.1,0-0.2,0-0.2-0.1c0,0,0-0.1,0.1-0.2
				c0-0.1,0.1-0.2,0.1-0.2c0.6-0.2,1-0.3,1.1-0.4c0.5-0.1,0.8-0.2,1.2-0.3c0.5-0.1,1-0.1,1.6-0.1c0-0.2,0-0.5,0.1-0.7
				c0.1-0.3,0.2-0.5,0.4-0.7c0.1,0,0.2-0.1,0.4-0.3c0-0.1-0.2-0.1-0.6-0.2c-0.3-0.1-0.6-0.1-0.7-0.1c-0.2,0-0.3,0.1-0.2,0.2
				c0,0.1,0.2,0.2,0.4,0.5c0.1,0.1,0.1,0.1,0.2,0.2c0,0,0,0.1,0,0.1v0c0,0.1-0.1,0.2-0.3,0.3c-0.4,0.3-0.8,0.5-1.2,0.5
				c-0.5,0.1-0.9,0-1.2-0.1c-0.4-0.2-0.6-0.4-0.6-0.7c-0.1-0.4,0.2-0.9,0.8-1.3c0.3-0.2,0.7-0.4,1.2-0.6c0.2-0.1,0.6-0.2,1.1-0.3
				c0.4-0.1,0.9-0.2,1.4-0.2c-0.1,0.2-0.2,0.3-0.3,0.4c-0.4,0-0.8,0.1-1.1,0.2c-0.4,0.1-0.7,0.2-0.8,0.3c-0.3,0.1-0.6,0.3-0.8,0.5
				c-0.3,0.3-0.3,0.5-0.3,0.7c0,0.2,0.1,0.3,0.2,0.4c0.2,0.2,0.4,0.2,0.6,0.2c0.1,0,0.1,0,0.2-0.1c0.1,0,0.1-0.1,0.1-0.1
				c0,0,0,0,0-0.1c-0.2-0.2-0.3-0.4-0.3-0.6c0-0.1,0-0.3,0.1-0.4c0.3-0.4,0.8-0.6,1.3-0.7C17.2,65.6,17.7,65.6,18.3,65.8z"/>
		</g>
		<g>
			<path class="st3" d="M19.1,69.2l0.3-0.1c0.3-0.1,0.8-0.2,1.4-0.4l-0.3,0.4c0,0-0.2,0.1-0.3,0.1c-0.1,0-0.1,0.1-0.3,0.1
				c0,0-0.1,0.1-0.1,0.1l0.1,0.2l-0.7,0.7L19,69.7L13,71.3l0.7-0.7l4.3-1.1c0.2-0.1,0.4-0.1,0.5-0.2c0.3-0.2,0.4-0.4,0.3-0.6
				c0,0,0-0.1,0-0.1l0.7-0.7c0.1,0.3,0.2,0.5,0.2,0.7C19.6,68.8,19.4,69,19.1,69.2z"/>
		</g>
		<g>
			<path class="st3" d="M14.7,73c0.1-0.1,0.2-0.2,0.3-0.2c0.3-0.1,0.6-0.1,0.8,0c0.1,0.1,0.1,0.1,0.2,0.2c0,0.1,0,0.2-0.1,0.3
				c-0.1,0.2-0.3,0.4-0.6,0.5c-0.3,0.1-0.6,0.1-0.8,0c-0.2-0.1-0.4-0.2-0.4-0.4c-0.1-0.2,0-0.5,0.1-0.7c0.4-0.6,1.2-1.1,2.3-1.5
				c0.2-0.1,0.4-0.1,0.5-0.2c0.7-0.2,1.4-0.2,2.3-0.1L19.1,70l0.6-0.7l0.8,2.4l-0.6,0.7c-0.2-0.3-0.6-0.6-0.9-0.7
				c-0.6-0.2-1.2-0.2-2,0c-0.5,0.1-0.8,0.2-0.9,0.2c-0.3,0.1-0.6,0.2-0.9,0.4C14.9,72.5,14.7,72.8,14.7,73z"/>
		</g>
		<g>
			<path class="st3" d="M19.3,72.5L19.3,72.5c0-0.1,0.1-0.2,0.2-0.3l0.2-0.2l0.5-0.7l1.4,3.4l-0.6,0.8l-0.3-0.6l-5.7,2.4l0.4-0.5
				c0.3-0.2,0.5-0.3,0.6-0.4c0.2-0.2,0.4-0.3,0.5-0.5c0.2-0.3,0.3-0.5,0.3-0.7c-0.1,0-0.3,0-0.4-0.1c-0.2-0.1-0.3-0.2-0.3-0.3
				c-0.1-0.3,0-0.6,0.5-0.9c0.1,0,0.1-0.1,0.2-0.1c0.3-0.1,0.6-0.2,0.9-0.1c0.2,0.1,0.4,0.2,0.5,0.4c0,0.1,0,0.1,0,0.2
				c0.4-0.2,0.6-0.4,0.7-0.7c0-0.1,0-0.2,0.1-0.5C19.3,72.8,19.3,72.6,19.3,72.5z M20.7,74.3l-0.5-1.3c-0.2,0.3-0.3,0.6-0.5,0.7
				c-0.2,0.3-0.4,0.5-0.7,0.7c-0.4,0.3-0.8,0.4-1,0.5c-0.1,0.2-0.4,0.4-0.6,0.8L20.7,74.3z"/>
		</g>
		<g>
			<path class="st3" d="M16.8,79c-0.1-0.1,0-0.2,0-0.4c0.1-0.2,0.2-0.3,0.4-0.4c0.2-0.1,0.3-0.1,0.5-0.1c0.2,0,0.3,0.1,0.3,0.2
				c0.1,0.1,0.1,0.2,0,0.4c-0.1,0.2-0.2,0.3-0.4,0.4c-0.2,0.1-0.3,0.1-0.5,0.1C17,79.2,16.9,79.1,16.8,79z M22.4,77.6l-5.4,3
				l0.3-0.5c0.5-0.4,0.8-0.8,1-1.2c0.2-0.3,0.2-0.6,0.3-0.8c0-0.2-0.1-0.4-0.2-0.6l0.7-1c0.7,0,1.3,0.1,1.8,0.2
				c0-0.1,0.1-0.1,0.1-0.1c0-0.1,0-0.3-0.1-0.7c-0.1-0.3,0-0.5,0.2-0.8l0.5-0.8l1.7,3.1l-0.5,0.9L22.4,77.6z M22.2,77.2l-0.5-0.9
				c-0.1,0.2-0.3,0.7-0.7,1.2c-0.2,0-0.5,0-0.8,0c-0.1,0-0.4,0-0.8,0c0,0.5-0.2,1.1-0.6,1.6L22.2,77.2z"/>
		</g>
		<g>
			<path class="st3" d="M23.1,78.3l0.3-0.2c0.3-0.2,0.7-0.5,1.2-0.8l-0.1,0.4c0,0-0.1,0.1-0.3,0.2c0,0-0.1,0.1-0.2,0.2
				c0,0-0.1,0.1-0.1,0.2l0.1,0.2l-0.4,0.9l-0.4-0.6L18,82.3l0.4-0.9l3.7-2.4c0.2-0.1,0.3-0.2,0.4-0.4c0.2-0.3,0.2-0.5,0.1-0.7
				c0,0,0,0-0.1-0.1l0.4-0.9c0.2,0.2,0.4,0.4,0.4,0.6C23.4,77.7,23.3,78,23.1,78.3z"/>
		</g>
		<g>
			<path class="st3" d="M27.1,83.6l-4.6,4.2l0.3-0.6c0.3-0.4,0.6-0.9,0.8-1.3c0,0,0.1-0.2,0.2-0.6c-0.6,0.2-1,0.1-1.2-0.1
				c-0.1-0.1-0.1-0.2-0.2-0.3c-0.1-0.4,0-0.9,0.2-1.4c0.2-0.4,0.4-0.9,0.9-1.5c0.3-0.5,0.6-0.9,0.9-1.2l0.1,0.4
				c-0.5,0.7-0.8,1.1-0.8,1.2c-0.2,0.4-0.4,0.9-0.4,1.3c0,0.3,0.1,0.5,0.3,0.7c0.3,0.2,0.6,0.2,1-0.2c0.1-0.1,0.2-0.3,0.4-0.4
				c0.2-0.2,0.2-0.4,0.1-0.4c0,0-0.1,0-0.1,0c-0.1,0-0.1,0.1-0.1,0.1c-0.2,0.1-0.4,0.1-0.5,0c-0.1-0.1-0.2-0.3-0.2-0.5
				c0-0.2,0.1-0.4,0.3-0.6c0.3-0.3,0.6-0.4,0.8-0.3c0.1,0,0.2,0.1,0.2,0.1c0.2,0.2,0.3,0.6,0.1,1.2c-0.1,0.5-0.4,0.9-0.8,1.3
				c0,0.1-0.1,0.1-0.2,0.2l-0.4,0.7l2.4-2.2l-2.3-2.5l0.3-0.9l3.1,3.4l-0.3,0.9L27.1,83.6z"/>
		</g>
		<g>
			<path class="st3" d="M28,84l0.2-0.3c0.2-0.3,0.6-0.7,1-1.1l0,0.5c0,0-0.1,0.1-0.2,0.3c0,0-0.1,0.1-0.1,0.3c0,0,0,0.1-0.1,0.2
				l0.2,0.2l-0.2,1l-0.5-0.5L24,89.1l0.2-1l3-3.3c0.1-0.2,0.2-0.3,0.3-0.5c0.1-0.3,0.1-0.6-0.1-0.7c0,0,0,0-0.1-0.1l0.2-0.9
				c0.3,0.2,0.5,0.3,0.6,0.5C28.1,83.4,28.1,83.7,28,84z"/>
		</g>
		<g>
			<path class="st3" d="M27.6,89c0,0,0,0.2,0.1,0.4c0.1,0.3,0.1,0.6,0,1c0,0.4-0.1,0.7-0.1,1.1l-0.6,1.2c0.1-0.4,0.1-0.7,0.1-0.8
				c0.1-0.6,0.1-1.3-0.1-2c-0.1-0.6-0.3-1.1-0.6-1.5l0.8-1.9c0.1,0.7,0.2,1.1,0.5,1.3c0.3,0.2,0.7,0.2,1.2,0.1
				c0.1,0,0.2-0.1,0.3-0.2c0.1-0.2,0.2-0.4,0.2-0.6c0-0.2-0.1-0.3-0.2-0.4c0,0-0.1,0-0.1,0c-0.2,0.2-0.5,0.4-0.8,0.5
				c-0.2,0.1-0.4,0.1-0.5,0c-0.2-0.2-0.2-0.4,0-0.8c0.1-0.2,0.3-0.4,0.6-0.5c0.1-0.1,0.3-0.1,0.5-0.1c0,0,0.2,0,0.4,0
				c0-0.1,0-0.3,0-0.4l-0.8-0.7l0.1-1l2.8,2.1l-0.1,1l-1.4-1.1c0,0.1,0,0.2-0.1,0.2c0.1,0.1,0.2,0.3,0.2,0.5c0,0.2,0,0.5,0,0.7
				c-0.1,0.3-0.2,0.6-0.4,0.9C28.9,88.8,28.3,89,27.6,89z"/>
		</g>
		<g>
			<path class="st3" d="M30.8,87.3L30.8,87.3c0-0.1,0-0.2,0-0.4l0.1-0.3l0-0.9l3.1,1.9v1l-0.6-0.4l-3.2,5.2l0-0.6
				c0.1-0.3,0.2-0.6,0.3-0.7c0.1-0.3,0.1-0.5,0.1-0.7c0-0.3-0.1-0.6-0.1-0.7c-0.1,0.1-0.2,0.1-0.4,0.1c-0.2,0-0.3,0-0.4-0.1
				c-0.3-0.2-0.3-0.6-0.1-1.1c0-0.1,0.1-0.1,0.1-0.2c0.2-0.3,0.4-0.5,0.7-0.6c0.2-0.1,0.4-0.1,0.6,0.1c0.1,0,0.1,0.1,0.1,0.1
				c0.2-0.3,0.3-0.7,0.2-1c0-0.1-0.1-0.2-0.2-0.5C30.9,87.5,30.8,87.4,30.8,87.3z M33,88l-1.2-0.7c0,0.4,0.1,0.7,0,0.9
				c0,0.3-0.1,0.6-0.2,0.9c-0.2,0.5-0.4,0.8-0.5,1c0,0.2,0,0.6-0.1,1L33,88z"/>
		</g>
		<g>
			<path class="st3" d="M37.5,88.1c-0.1-0.5-0.4-0.9-0.8-1.1c-0.2-0.1-0.5-0.1-1,0c-0.1,0.1-0.2,0.2-0.4,0.3
				c-0.2,0.2-0.3,0.3-0.3,0.3L34.9,88l0.3,0.2l0.1,1l-0.7-0.3l-2.8,5.4l-0.1-0.9l2.4-4.7l-0.4-0.2l-0.1-1l0.8,0.4c0-0.1,0-0.2,0-0.4
				c0-0.1,0-0.3,0.1-0.4c0.1-0.2,0.2-0.3,0.3-0.4c0.3-0.2,0.4-0.4,0.5-0.4c0.2-0.1,0.5-0.2,0.8-0.3c0.2,0,0.3,0,0.5,0.1
				c0.5,0.3,0.8,0.8,1,1.5c0.1,0.2,0.1,0.6,0.1,1l-0.2,0.7L37.5,88.1z"/>
		</g>
		<g>
			<path class="st3" d="M34.9,91.3c0.2-0.1,0.4-0.3,0.8-0.5c0.4-0.2,0.8-0.3,1.3-0.4l0.3,1.1c-0.7,0.8-1.2,1.6-1.6,2.4
				c-0.1,0.2-0.1,0.3-0.2,0.5c0,0.1-0.2,0.6-0.4,1.4l-0.3-0.5c0.3-1.1,0.5-1.9,0.7-2.4c0.2-0.4,0.4-0.8,0.6-1.2
				c-0.7,0.1-1.4,0.7-2.1,1.6L34,92.2l1.2-3l-0.3-0.1l-0.2-1l3.4,1.4l0.2,1l-2.6-1.1L34.9,91.3z"/>
		</g>
		<g>
			<path class="st3" d="M37.8,96.1c-0.1,0-0.2-0.1-0.3-0.3c0-0.2,0-0.4,0-0.5c0.1-0.2,0.1-0.3,0.3-0.5c0.1-0.1,0.2-0.2,0.4-0.1
				c0.1,0,0.2,0.1,0.3,0.3c0.1,0.2,0.1,0.3,0,0.5c-0.1,0.2-0.1,0.3-0.3,0.5C38,96.1,37.9,96.1,37.8,96.1z M40.8,91.2L39,97.1
				l-0.1-0.6c0-0.6,0-1.1-0.1-1.5c-0.1-0.3-0.2-0.6-0.4-0.7c-0.1-0.1-0.3-0.2-0.6-0.3l-0.2-1.2c0.5-0.5,1-0.9,1.4-1.1
				c0-0.1,0-0.1,0-0.1c-0.1-0.1-0.2-0.3-0.5-0.4c-0.2-0.1-0.4-0.4-0.4-0.7l-0.3-0.9l3.4,1l0.3,1L40.8,91.2z M40.3,91l-1-0.3
				c0.1,0.2,0.2,0.7,0.4,1.4c-0.2,0.1-0.3,0.3-0.6,0.5c-0.1,0.1-0.3,0.2-0.6,0.6c0.4,0.4,0.6,0.9,0.7,1.6L40.3,91z"/>
		</g>
		<g>
			<path class="st3" d="M41.8,91.2l0-0.3c0-0.4,0.1-0.8,0.3-1.4l0.2,0.4c0,0,0,0.2,0,0.3c0,0.1,0,0.2,0,0.3c0,0.1,0,0.1,0,0.2
				l0.2,0.1l0.3,0.9l-0.7-0.1l-1.3,6.1l-0.3-0.9l0.9-4.3c0-0.2,0.1-0.4,0-0.6c-0.1-0.3-0.2-0.5-0.4-0.6c0,0-0.1,0-0.1,0l-0.3-0.9
				c0.3,0,0.6,0.1,0.7,0.1C41.6,90.5,41.7,90.8,41.8,91.2z"/>
		</g>
		<g>
			<path class="st3" d="M47.7,92.1l-0.4,6.2l-0.4-1l0.2-2.7c0-0.1-0.1-0.3-0.1-0.4C46.8,94,46.7,94,46.6,94c-0.1,0-0.2,0.1-0.3,0.3
				c-0.5,0.9-0.8,1.4-0.9,1.5c0,0-0.1,0-0.1,0c-0.2,0-0.3-0.1-0.3-0.1c-0.1-0.1-0.3-0.5-0.5-1.3l0.4-0.6c0,0.2,0,0.4,0.1,0.6
				c0.1,0.2,0.1,0.4,0.2,0.4c0.1,0,0.3-0.3,0.7-1c0-0.7-0.2-1.1-0.5-1.2c-0.2,0-0.4-0.1-0.4-0.1c-0.1-0.1-0.2-0.2-0.3-0.5l-0.1-0.1
				L44,91l4,0.2l0.5,0.9L47.7,92.1z M47.2,92.1L45.8,92c0.2,0.3,0.3,0.7,0.3,1.2c0.2-0.2,0.4-0.3,0.4-0.3c0.2,0,0.4,0.3,0.6,0.8
				L47.2,92.1z"/>
		</g>
		<g>
			<path class="st3" d="M48.4,100c0,0-0.1,0-0.1-0.1c-0.1-0.3-0.3-0.6-0.7-1c-0.1-0.1-0.1-0.2-0.2-0.3l-0.1-0.1
				c-0.1,0.2-0.3,0.4-0.3,0.4c-0.1,0.1-0.3,0.2-0.4,0.2c-0.2,0-0.3-0.1-0.5-0.2c-0.2-0.1-0.3-0.3-0.3-0.6c0-0.3,0-0.6,0.2-0.8
				c0.1-0.2,0.3-0.3,0.5-0.3c0.1,0,0.3,0.1,0.5,0.3c0-0.1,0-0.2,0-0.4c0-0.2,0-0.3,0-0.4c0-0.1,0.1-0.1,0.1-0.1
				c0.1,0,0.2,0.1,0.3,0.4c0.1,0.2,0.1,0.4,0.1,0.6c0,0.1,0,0.1,0,0.2c0,0.1,0,0.1,0,0.2c0.1,0.2,0.3,0.3,0.3,0.5
				c0.3,0.4,0.5,0.9,0.5,1.3c0,0,0,0.1,0,0.1C48.5,100,48.5,100,48.4,100z M46.7,98c-0.2,0-0.2,0.1-0.2,0.2c0,0.1,0,0.2,0.1,0.2
				c0.1,0,0.1,0,0.2-0.1c0.1-0.1,0.2-0.1,0.2-0.1C46.9,98.1,46.8,98,46.7,98z"/>
		</g>
		<g>
			<path class="st3" d="M51.2,90c-0.4-0.4-0.8-0.6-1.2-0.6c-0.3,0-0.5,0.2-0.8,0.5C49,90,49,90.1,48.9,90.4
				c-0.1,0.2-0.1,0.4-0.1,0.4l0.1,0.4l0.4,0l0.5,0.8l-0.7,0l0.1,6l-0.5-0.8l-0.1-5.3l-0.5,0l-0.5-0.8l0.9,0
				c-0.1-0.1-0.1-0.2-0.2-0.3c-0.1-0.1-0.1-0.2-0.1-0.4c0-0.2,0-0.4,0.1-0.5c0.1-0.3,0.2-0.5,0.3-0.6c0.1-0.2,0.3-0.4,0.6-0.6
				c0.1-0.1,0.3-0.2,0.5-0.2c0.6,0,1.1,0.3,1.6,0.9c0.2,0.2,0.4,0.5,0.6,0.8L52,91L51.2,90z"/>
		</g>
		<g>
			<path class="st3" d="M50.9,93.9c0.2,0.3,0.2,0.5,0.3,0.7c0.1,0.6-0.1,0.9-0.5,0.9c-0.5,0-0.8-0.3-0.9-1.1c0-0.4,0-0.8,0.2-1.1
				c0.2-0.3,0.4-0.5,0.6-0.5c0.5,0,0.9,0.4,1.3,1.3l0.1,0.1l-0.2-2.5l-2.4,0.2l-0.6-0.8l3.7-0.3l0.6,0.8l-0.7,0.1l0.6,6.3l-0.3-0.6
				c0-0.3-0.1-0.7-0.2-1.3c-0.1-0.5-0.3-0.9-0.4-1.3c-0.1-0.2-0.2-0.4-0.4-0.7C51.2,94.1,51,93.9,50.9,93.9z"/>
		</g>
		<g>
			<path class="st3" d="M51.5,97.3c0.2,0.2,0.3,0.4,0.3,0.7c0,0.3,0,0.5,0,0.7c-0.1,0.2-0.2,0.3-0.3,0.3c-0.2,0-0.4,0-0.5-0.2
				c-0.2-0.2-0.3-0.4-0.3-0.7c-0.1-0.4,0-0.8,0.1-1.1c0.1-0.3,0.3-0.4,0.6-0.5c0.5-0.1,0.9,0.3,1.3,1.1L52.4,96l0.6,0.6l0.5,3.3
				l-0.4-0.4c0-0.1-0.1-0.2-0.1-0.2c0-0.1-0.1-0.3-0.1-0.4c-0.1-0.5-0.4-0.9-0.8-1.3C51.9,97.3,51.7,97.2,51.5,97.3z"/>
		</g>
		<g>
			<path class="st3" d="M55.4,91.2l1.2,6.1l-0.4-0.4c-0.3-0.6-0.6-1-0.9-1.3c-0.2-0.2-0.5-0.4-0.7-0.5c-0.2-0.1-0.4-0.1-0.7,0
				l-0.8-1c0.2-0.7,0.5-1.2,0.7-1.7C54,92.3,54,92.3,54,92.3c-0.1-0.1-0.3-0.1-0.7-0.1c-0.3,0-0.5-0.1-0.7-0.4L52,91.1l3.4-0.7
				l0.7,0.7L55.4,91.2z M54.9,91.3l-1,0.2c0.2,0.2,0.5,0.5,1,1.1c-0.1,0.2-0.2,0.4-0.3,0.7c0,0.1-0.1,0.3-0.3,0.8
				c0.5,0.2,1,0.5,1.4,1.1L54.9,91.3z M55.1,97c-0.1,0-0.2,0-0.4-0.1c-0.1-0.1-0.2-0.3-0.2-0.5c0-0.2,0-0.4,0-0.5
				c0.1-0.2,0.1-0.3,0.3-0.3c0.1,0,0.2,0,0.4,0.1c0.1,0.1,0.2,0.3,0.3,0.5c0,0.2,0,0.4,0,0.5C55.3,96.9,55.2,97,55.1,97z"/>
		</g>
		<g>
			<path class="st3" d="M56.3,90.8l-0.1-0.3c-0.1-0.3-0.3-0.8-0.4-1.4l0.4,0.3c0,0,0.1,0.1,0.1,0.3c0,0.1,0.1,0.1,0.1,0.3
				c0,0,0.1,0.1,0.1,0.1l0.2-0.1l0.7,0.7l-0.7,0.2l1.7,6l-0.7-0.7l-1.2-4.2c-0.1-0.2-0.1-0.4-0.2-0.5c-0.2-0.3-0.4-0.4-0.6-0.3
				c0,0-0.1,0-0.1,0l-0.7-0.6c0.3-0.1,0.5-0.2,0.7-0.2C55.9,90.3,56.1,90.4,56.3,90.8z"/>
		</g>
		<g>
			<path class="st3" d="M63.2,90.8c-0.1-0.2-0.3-0.4-0.5-0.6c-0.3-0.2-0.6-0.2-0.8-0.1l2,4.4l-0.4-0.3c-0.2-0.3-0.4-0.5-0.4-0.6
				c-0.1-0.1-0.3-0.3-0.5-0.4c-0.3-0.2-0.5-0.4-0.7-0.4c-0.4-0.1-0.7-0.1-1-0.1l-1-0.8c0.2-1,0.6-1.9,1.1-2.5l-0.1-0.2l-2,0.9
				l-0.8-0.5l4-1.9l0.8,0.6L61.4,89l0.1,0.2c0.2-0.1,0.6,0,1,0.2c0.5,0.3,1,0.8,1.3,1.5c0.1,0.3,0.2,0.6,0.2,0.8
				c0,0.3-0.1,0.5-0.3,0.5c-0.1,0.1-0.3,0-0.4-0.1c-0.2-0.1-0.3-0.3-0.4-0.5c-0.1-0.2-0.1-0.5-0.1-0.7c0.1-0.1,0.1-0.1,0.2-0.2
				C63,90.8,63.1,90.8,63.2,90.8z M61,91.2c0,0.1-0.1,0.2-0.2,0.5c0.6,0.1,1.1,0.4,1.6,0.9l-1-2.2C61.3,90.7,61.1,91,61,91.2z"/>
		</g>
		<g>
			<path class="st3" d="M63.1,87.9l-0.2-0.3c-0.2-0.3-0.5-0.7-0.8-1.3l0.4,0.2c0,0,0.1,0.1,0.2,0.3c0,0.1,0.1,0.1,0.2,0.2
				c0,0,0.1,0.1,0.2,0.1l0.2-0.1l0.9,0.5l-0.6,0.4l3.1,5.4l-0.9-0.5L63.6,89c-0.1-0.2-0.2-0.3-0.3-0.4c-0.3-0.2-0.5-0.3-0.7-0.2
				c0,0-0.1,0-0.1,0.1L61.6,88c0.3-0.2,0.5-0.3,0.6-0.4C62.5,87.6,62.8,87.7,63.1,87.9z"/>
		</g>
		<g>
			<path class="st3" d="M65.4,84.3c-0.5-0.2-1-0.1-1.4,0.1c-0.2,0.1-0.4,0.4-0.4,0.8c0,0.1,0,0.3,0,0.5c0,0.2,0.1,0.4,0.1,0.5
				l0.3,0.3l0.3-0.2l0.9,0.4l-0.6,0.4l3.3,5.1l-0.8-0.4l-2.8-4.4l-0.4,0.3L63,87.3l0.8-0.5c-0.1,0-0.2-0.1-0.3-0.2
				c-0.1-0.1-0.2-0.2-0.3-0.3C63,86.1,63,86,62.9,85.8c-0.1-0.3-0.1-0.6-0.1-0.7c0-0.3,0-0.6,0.2-0.9c0.1-0.2,0.2-0.3,0.3-0.4
				c0.5-0.3,1.1-0.3,1.8-0.1c0.2,0.1,0.5,0.2,1,0.4l0.5,0.5L65.4,84.3z"/>
		</g>
		<g>
			<path class="st3" d="M65.6,87.3L65.6,87.3c-0.1,0-0.2-0.1-0.4-0.2L65,87l-0.9-0.3l2.9-2.2l0.9,0.4l-0.6,0.4l3.7,4.9l-0.5-0.2
				c-0.3-0.3-0.5-0.4-0.6-0.5c-0.2-0.2-0.4-0.3-0.6-0.4c-0.3-0.1-0.6-0.2-0.7-0.2c0,0.1,0,0.3,0,0.5c-0.1,0.2-0.1,0.3-0.2,0.4
				c-0.3,0.2-0.6,0.1-1.1-0.3c0-0.1-0.1-0.1-0.1-0.2c-0.2-0.3-0.3-0.6-0.3-0.8c0-0.2,0.1-0.4,0.3-0.6c0.1,0,0.1-0.1,0.2-0.1
				c-0.3-0.3-0.5-0.5-0.8-0.5c-0.1,0-0.2,0-0.5,0.1C65.8,87.3,65.6,87.3,65.6,87.3z M67,85.5l-1.1,0.9c0.4,0.1,0.6,0.2,0.8,0.3
				c0.3,0.1,0.6,0.3,0.8,0.5c0.4,0.3,0.6,0.6,0.7,0.8c0.2,0.1,0.5,0.2,0.9,0.4L67,85.5z"/>
		</g>
		<g>
			<path class="st3" d="M70.1,82.7l4.2,4.4l-0.9-0.2l-2.3-2.4c-0.1-0.1-0.2-0.2-0.4-0.2c-0.2,0-0.3,0-0.3,0c-0.1,0.1-0.1,0.1,0,0.2
				c0,0.1,0.2,0.3,0.5,0.5l-0.1,0.4c-0.1-0.2-0.2-0.3-0.3-0.3c-0.2-0.1-0.4-0.2-0.4-0.2c-0.2-0.1-0.4,0-0.5,0.1
				c-0.1,0.1-0.1,0.2-0.1,0.4c0,0.2,0.1,0.3,0.2,0.5c0.1,0.1,0.1,0.1,0.1,0.2c0.2,0.2,0.4,0.3,0.6,0.3c-0.1-0.1-0.1-0.1-0.2-0.2
				c-0.1-0.1-0.2-0.3-0.3-0.5c0-0.2,0-0.3,0.1-0.4c0.1-0.2,0.4-0.1,0.7,0.1c0.3,0.2,0.4,0.3,0.5,0.4c0.2,0.4,0.2,0.7,0,0.9
				c-0.2,0.2-0.5,0.3-0.9,0.2c-0.4-0.1-0.7-0.3-1.1-0.7c-0.3-0.3-0.5-0.7-0.7-1c-0.1-0.4-0.1-0.7,0.1-0.9c0.2-0.2,0.5-0.2,0.9-0.1
				l0.1,0c-0.1-0.1-0.1-0.3-0.1-0.4c0-0.2,0-0.3,0.1-0.3c0.1-0.1,0.3-0.1,0.5-0.1c0.1,0,0.2,0.1,0.3,0.1c0,0,0.1,0,0.1,0L69.7,83
				l-2,1.9l-1-0.2l2.9-2.8l1,0.2L70.1,82.7z"/>
		</g>
		<g>
			<path class="st3" d="M72.2,81.1L72.2,81.1c-0.1,0-0.2,0-0.4,0L71.5,81l-0.9-0.1l2.1-3l1,0.1l-0.4,0.6l5,3.6l-0.6-0.1
				c-0.3-0.2-0.6-0.3-0.7-0.3c-0.3-0.1-0.5-0.2-0.7-0.2c-0.3,0-0.6,0-0.7,0c0.1,0.1,0.1,0.3,0.1,0.4c0,0.2,0,0.3-0.1,0.4
				c-0.2,0.3-0.6,0.3-1.1,0c-0.1,0-0.1-0.1-0.2-0.1c-0.3-0.2-0.5-0.4-0.5-0.7c-0.1-0.2,0-0.4,0.1-0.6c0-0.1,0.1-0.1,0.1-0.1
				c-0.3-0.2-0.7-0.3-1-0.3c-0.1,0-0.2,0.1-0.5,0.2C72.4,81,72.3,81.1,72.2,81.1z M73.1,79l-0.8,1.1c0.4,0,0.7,0,0.9,0
				c0.3,0,0.6,0.1,0.9,0.3c0.5,0.2,0.8,0.4,0.9,0.6c0.2,0,0.6,0.1,1,0.1L73.1,79z"/>
		</g>
		<g>
			<path class="st3" d="M73.7,77.6l-0.3-0.2c-0.3-0.2-0.8-0.4-1.3-0.7l0.5-0.1c0,0,0.1,0.1,0.3,0.1c0,0,0.1,0.1,0.3,0.1
				c0.1,0,0.1,0,0.2,0l0.1-0.2l1,0l-0.4,0.6l5.4,3.3l-1,0l-3.7-2.3c-0.2-0.1-0.4-0.2-0.5-0.2c-0.3-0.1-0.6,0-0.7,0.2
				c0,0,0,0.1-0.1,0.1l-1,0c0.1-0.3,0.2-0.5,0.4-0.6C73,77.6,73.3,77.6,73.7,77.6z"/>
		</g>
		<g>
			<path class="st3" d="M76.6,77.2c-0.1-0.2-0.2-0.4-0.4-0.8c-0.2-0.4-0.3-0.8-0.3-1.3l1.1-0.3c0.8,0.8,1.5,1.4,2.3,1.7
				c0.1,0.1,0.3,0.1,0.5,0.2c0.1,0.1,0.6,0.2,1.4,0.5l-0.5,0.2c-1.1-0.4-1.8-0.7-2.3-0.9c-0.4-0.2-0.8-0.4-1.1-0.7
				c0.1,0.7,0.6,1.5,1.4,2.2l-1.1,0.1l-2.9-1.5l-0.1,0.3l-1,0.1l1.7-3.3l1-0.1l-1.3,2.5L76.6,77.2z"/>
		</g>
		<g>
			<path class="st3" d="M82.9,77.1l-1.8,0.7l-0.5-0.6l1.9-0.5L82.9,77.1z"/>
		</g>
		<g>
			<path class="st3" d="M76.9,71.4l5.7,2.1L82,73.6c-0.7,0-1.1,0-1.2,0c-0.4,0-0.7,0.1-1,0.2c-0.4,0.2-0.6,0.4-0.8,0.7l-1.3,0.1
				c-0.5-1-0.8-1.9-0.9-2.7l-0.2-0.1l-0.8,2.1l-1,0.2l1.2-3.1l1-0.2L76.9,71.4z M77.9,72.3c0.1,0.4,0.2,0.9,0.5,1.5
				c0.5-0.4,1.2-0.5,1.9-0.6L77.9,72.3z M81.4,74.6c0,0.1-0.2,0.2-0.3,0.2c-0.2,0-0.3,0-0.5,0c-0.2-0.1-0.3-0.2-0.4-0.3
				c-0.1-0.1-0.1-0.2-0.1-0.3c0-0.1,0.1-0.2,0.3-0.2c0.2,0,0.3,0,0.5,0c0.2,0.1,0.3,0.2,0.4,0.3C81.4,74.4,81.5,74.5,81.4,74.6z"/>
		</g>
		<g>
			<path class="st3" d="M77,70.4l-0.3-0.1c-0.4-0.1-0.8-0.2-1.4-0.4l0.4-0.2c0,0,0.2,0,0.3,0.1c0.1,0,0.2,0,0.3,0c0,0,0.1,0,0.2,0
				l0.1-0.2l0.9-0.3L77.2,70l6,1.7l-1,0.2l-4.2-1.2c-0.2-0.1-0.4-0.1-0.6-0.1c-0.3,0-0.6,0.2-0.6,0.4c0,0,0,0.1,0,0.1L76,71.5
				c0-0.3,0.1-0.6,0.2-0.7C76.3,70.5,76.6,70.4,77,70.4z"/>
		</g>
		<g>
			<path class="st3" d="M78,66.5l6,1.2l-1,0.3l-2.7-0.5c-0.1,0-0.3,0-0.4,0.1c-0.1,0.1-0.2,0.1-0.2,0.2c0,0.1,0.1,0.2,0.3,0.4
				c0.9,0.6,1.3,0.9,1.3,1.1c0,0,0,0.1,0,0.1c0,0.2-0.1,0.3-0.2,0.3c-0.1,0.1-0.6,0.2-1.4,0.3l-0.5-0.5c0.2,0,0.4,0,0.6,0
				c0.3,0,0.4-0.1,0.4-0.1c0-0.1-0.3-0.3-0.9-0.8c-0.7-0.1-1.1,0-1.2,0.4c-0.1,0.2-0.1,0.4-0.2,0.4c-0.1,0.1-0.3,0.2-0.5,0.2
				l-0.1,0.1L76.5,70l0.8-4l0.9-0.3L78,66.5z M77.9,67l-0.3,1.3c0.3-0.2,0.7-0.2,1.2-0.1c-0.2-0.3-0.3-0.4-0.3-0.5
				c0-0.2,0.3-0.3,0.9-0.5L77.9,67z"/>
		</g>
		<g>
			<path class="st3" d="M78,65.5l-0.3,0c-0.4,0-0.9-0.1-1.5-0.1l0.4-0.2c0,0,0.2,0,0.3,0c0.1,0,0.2,0,0.3,0c0,0,0.1,0,0.2-0.1l0-0.3
				l0.9-0.4l-0.1,0.7l6.2,0.7l-0.9,0.4l-4.4-0.5c-0.2,0-0.4,0-0.6,0c-0.3,0.1-0.5,0.3-0.5,0.5c0,0,0,0.1,0,0.1l-0.9,0.4
				c0-0.3,0-0.6,0.1-0.7C77.3,65.7,77.6,65.6,78,65.5z"/>
		</g>
	</g>
	<g>
		<path class="st2" d="M70.2,60c0,12.1-9.9,22-22,22c-12.2,0-22-9.9-22-22c0-12.2,9.8-22,22-22C60.3,38,70.2,47.8,70.2,60z"/>
	</g>
	<g>
		<path class="st4" d="M67,56.7c0,10.4-8.4,18.8-18.8,18.8c-10.4,0-18.8-8.4-18.8-18.8c0-10.4,8.4-18.8,18.8-18.8
			C58.6,38,67,46.4,67,56.7z"/>
	</g>
	<g>
		<g>
			<path class="st5" d="M32.4,62.1l2.4-1l-0.2,0.5l-1.4,0.6c-0.2,0.1-0.4,0.4-0.4,0.6l0.1,0.1l0.1,0c0-0.2,0.2-0.5,0.4-0.5
				c0.2-0.1,0.4,0,0.5,0.2c0,0.2,0,0.3-0.1,0.5c0.2,0,0.3,0.1,0.4,0.3c0.1,0.2,0,0.4-0.2,0.5c-0.2,0.1-0.6,0-0.7-0.2
				c-0.2,0.3-0.1,0.4,0.1,0.7l-0.2,0.5l-0.3-0.6c-0.1-0.2,0-0.5,0.2-0.7c-0.2-0.1-0.5-0.2-0.6-0.4c-0.2-0.4,0.4-0.8,0.6-1
				c-0.4,0.3-0.8,0.5-1.3,0.7c0.1-0.2,0.3-0.5,0.3-0.7l0.2-0.5L32.4,62.1z"/>
		</g>
		<g>
			<path class="st5" d="M32,60.8l2.6-0.7l-0.2,0.4L32.7,61c-0.4,0.1-0.6,0.2-0.4,0.6L32,62.1l-0.1-0.5c-0.1-0.4,0.4-0.6,0.6-0.7h0
				c-0.3,0.1-0.5,0.4-0.8,0.4c-0.1,0-0.2,0-0.3,0l0.1-0.2l0.3-0.2l0-0.2l0.2-0.4L32,60.8z"/>
		</g>
		<g>
			<path class="st5" d="M30.5,59.1c0.1,0.5,0.3,0.6,0.8,0.8l0.2-0.1l-0.1-0.3l0.3-0.4l0.1,0.5l2.6-0.5l-0.3,0.4l-2.2,0.4l0.1,0.4
				l-0.3,0.4L31.5,60c-0.1,0.1-0.1,0.2-0.3,0.2c-0.5,0.1-1-0.4-1-0.9c-0.1-0.7,0.1-1.2,0.4-1.7l0.3-0.2C30.7,58,30.4,58.5,30.5,59.1
				z"/>
		</g>
		<g>
			<path class="st5" d="M31.5,56.2c0,0.1,0,0.3,0.1,0.4c0.1-0.1,0.2-0.2,0.4-0.2c0.2,0,0.5,0.2,0.6,0.3c0.1-0.3,0.3-0.5,0.6-0.5
				c0.5,0,1,0.3,1,0.8c0.1,1.2-1.4,1.8-2.4,2l0.2-0.3c0.7-0.3,1.7-0.7,1.7-1.6c0-0.4-0.3-0.5-0.6-0.5c-0.1,0-0.2,0-0.2,0.1l0,0
				l0-0.1l0,0.1c0,0,0.1,0,0.1,0c0.2,0,0.4,0.2,0.4,0.4c0,0.2-0.2,0.5-0.4,0.5c-0.3,0-0.4-0.5-0.5-0.5c0,0.2-0.3,0.3-0.2,0.6v0
				c0.1-0.1,0.1-0.2,0.2-0.2c0.2,0,0.3,0.2,0.3,0.3c0,0.2-0.2,0.4-0.4,0.4c-0.3,0-0.5-0.2-0.5-0.5c0-0.3,0.2-0.7,0.4-0.8
				c-0.1-0.2-0.2-0.2-0.3-0.2c-0.1,0-0.1,0-0.2,0.1c-0.1,0.1,0,1.8,0,2.1l-0.4,0.4l-0.1-3l0.4-0.4L31.5,56.2z"/>
		</g>
	</g>
	<g>
		<g>
			<path class="st5" d="M32.4,49.8c-0.2,0.4,0,0.7,0.3,1.1l0.2,0l0.1-0.2l0.5-0.2l-0.2,0.5l2.4,1L35.2,52l-2.1-0.8L33,51.5l-0.5,0.2
				l0.3-0.6c-0.1,0-0.2,0.1-0.3,0.1c-0.5-0.2-0.6-0.9-0.4-1.3c0.2-0.6,0.7-0.9,1.3-1.2l0.3,0C33.1,49,32.6,49.2,32.4,49.8z"/>
		</g>
		<g>
			<path class="st5" d="M34.6,48.1l2.2,1.2l-0.5,0.2L35,48.7c-0.2-0.1-0.5,0-0.7,0.1l0,0.2l0,0.1c0.2-0.1,0.4-0.2,0.7-0.1
				c0.2,0.1,0.2,0.3,0.1,0.5c-0.1,0.2-0.3,0.2-0.4,0.2c0.1,0.2,0.1,0.3,0,0.5c-0.1,0.2-0.3,0.3-0.5,0.2c-0.2-0.1-0.3-0.5-0.3-0.6
				c-0.3,0.1-0.3,0.2-0.5,0.5l-0.5,0.1l0.3-0.6c0.1-0.2,0.4-0.4,0.7-0.3c-0.1-0.2-0.2-0.5-0.1-0.7c0.2-0.3,0.9-0.2,1.2-0.2
				c-0.5-0.1-0.9-0.3-1.3-0.6c0.2-0.1,0.6,0,0.7-0.2l0.5-0.1L34.6,48.1z"/>
		</g>
		<g>
			<path class="st5" d="M36.6,46.1C36.6,46.1,36.6,46.2,36.6,46.1c-0.2,0.2-0.4,0.3-0.5,0.2l0,0l0.3-0.3L36.6,46.1z M37.4,44.7
				l-0.5,0l-2.4,2.8H35l0.3-0.3l0.3,0c-0.2,0.1-0.1,0.3,0,0.5c0.1,0.1,0.4,0.1,0.5,0c0.1-0.2,0.1-0.4,0-0.5l0-0.1
				c0.1-0.1,0.3-0.1,0.4,0c0,0,0.1,0.1,0.1,0.1c-0.2,0.2-0.2,0.4,0,0.6c0.2,0.1,0.4,0.1,0.5,0c0.1-0.1,0.1-0.3,0.1-0.4
				c0.5-0.2,0.9,0.2,1.4,0.1l-1.4-1.2c0-0.1,0.1-0.1,0.1-0.2c0.1-0.1,0.3-0.3,0.4-0.1c0,0,0,0,0,0c-0.1,0-0.2,0.1-0.3,0.2
				c-0.1,0.1,0,0.3,0,0.4c0.2,0.2,0.4,0,0.6-0.1c0.2-0.2,0.1-0.4-0.1-0.6c-0.3-0.3-0.8-0.2-1,0.1l-0.1,0.1l-0.2-0.2L37.4,44.7z
				 M37.5,46.9c-0.2,0-0.3,0-0.5,0c-0.6-0.4-1.3,0.1-1.3,0.1l-0.2-0.1l0.3-0.4c0.3,0.2,0.8,0.1,1.1-0.1L37.5,46.9z"/>
		</g>
		<g>
			<path class="st5" d="M38.2,44.1l1.7,2.1l-0.5-0.1l-1.1-1.3c-0.2-0.3-0.4-0.4-0.8-0.1l-0.5,0l0.4-0.3c0.3-0.2,0.7,0.1,0.9,0.2v0
				c-0.2-0.2-0.5-0.3-0.7-0.6c-0.1-0.1-0.1-0.2-0.2-0.2l0.2,0l0.3,0.2l0.1-0.1l0.5,0L38.2,44.1z"/>
		</g>
	</g>
	<g>
		<g>
			<path class="st5" d="M43.2,40.9L43.2,40.9c0.4,0.1,0.6,0.2,0.8,0.5c0.1-0.3,0.3-0.5,0.5-0.7l0.6,0.2c-0.3,0.4-0.4,0.9-0.3,1.4
				c0.1,0.3,0.3,0.5,0.5,0.8c-0.6-0.1-0.8-0.5-0.9-1c-0.1-0.2-0.1-0.4,0-0.6c-0.1,0.2-0.5,1.1-0.7,1.2c-0.3,0.1-0.6-0.1-0.7-0.4
				c0-0.1,0.1-0.2,0.1-0.2c0.1,0.1,0.1,0.3,0.3,0.2c0.3-0.1,0.4-0.4,0.4-0.7c0-0.1-0.1-0.1-0.1-0.2l-0.1,0c0,0.2-0.1,0.4-0.3,0.4
				c-0.2,0.1-0.4,0-0.5-0.2c-0.1-0.2,0.1-0.4,0.3-0.5L42.8,41l-0.5,0.1l-0.5-0.3l2.2-0.6c0.1,0,0.1-0.1,0.1-0.1c0-0.1-0.4,0-0.5,0
				c-0.3,0.1-0.5,0.2-0.7,0.3c-0.3,0.1-0.8,0-0.8-0.3c0-0.1,0-0.3,0.1-0.4c0.1,0,0.1,0.1,0.1,0.1c0,0,0,0.1,0,0.2
				c0,0.1,0.2,0.1,0.3,0.1c0.3-0.1,0.5-0.2,0.8-0.3c0.4-0.1,0.9-0.1,1,0.4l0.2-0.1l0.5,0.3L43.2,40.9z"/>
		</g>
		<g>
			<path class="st5" d="M47.2,41.7c-0.1-0.1-0.2-0.3-0.4-0.3c0-0.5-0.4-0.9-0.8-1.1l1-0.1L47.2,41.7z M47.9,40l-0.4-0.3L44.9,40
				c0.2,0.2,0.4,0.4,0.6,0.5c0.2,0.2,0.8,0,0.9,0.6c-0.3,0-0.7,0.1-0.7,0.5c0,0.3,0.3,0.4,0.5,0.4c0.1,0,0.4-0.2,0.5-0.3
				c0.4,0,0.7,0.9,0.9,1l-0.2-2.6L47.9,40z"/>
		</g>
		<g>
			<path class="st5" d="M48.7,40.1l-0.1,2.7l-0.3-0.4l0-1.7c0-0.4,0-0.6-0.5-0.6l-0.4-0.4l0.5,0c0.4,0,0.5,0.5,0.6,0.8l0,0
				c0-0.3-0.2-0.6-0.2-0.9c0-0.1,0-0.2,0-0.3l0.2,0.1l0.1,0.3l0.2,0l0.4,0.4L48.7,40.1z"/>
		</g>
		<g>
			<path class="st5" d="M51.4,40.4L51,43l-0.2-0.3c0,0,0-0.1,0-0.1c0.1-0.5-0.2-1.5-0.8-1.6l0,0c0.1,0.1,0.2,0.2,0.2,0.4
				c0,0.2-0.2,0.3-0.5,0.3c-0.3,0-0.5-0.2-0.5-0.6c0-0.4,0.4-0.6,0.8-0.5c0.4,0.1,0.7,0.4,0.8,0.9l0.2-1.1l-1.7-0.3L49,39.7l2.6,0.4
				l0.3,0.4L51.4,40.4z"/>
		</g>
	</g>
	<g>
		<g>
			<path class="st5" d="M58.8,44.3l-1.5,2.1l-0.1-0.5l0.9-1.2c0.1-0.2,0.1-0.5,0-0.7l-0.2-0.1l-0.1,0c0.1,0.2,0.1,0.5,0,0.6
				c-0.1,0.2-0.3,0.2-0.5,0.1c-0.1-0.1-0.2-0.3-0.2-0.4c-0.2,0.1-0.3,0.1-0.5,0c-0.2-0.1-0.2-0.4-0.1-0.5c0.1-0.2,0.5-0.3,0.7-0.2
				c0-0.3-0.1-0.3-0.4-0.5l-0.1-0.5l0.6,0.4c0.2,0.2,0.3,0.4,0.3,0.7c0.2-0.1,0.6-0.1,0.7,0c0.3,0.2,0.1,0.9,0.1,1.2
				c0.2-0.5,0.4-0.9,0.7-1.3c0,0.2,0,0.6,0.1,0.7l0.1,0.5L58.8,44.3z"/>
		</g>
		<g>
			<path class="st5" d="M56.3,47.2c-0.1-0.4-0.3-0.8-0.4-1.2l1,0.1l0.3-0.2l-0.1,0.6l-0.6-0.1c0,0.2,0.3,0.8,0.2,1l-0.2,0.2
				C56.4,47.5,56.3,47.4,56.3,47.2z"/>
		</g>
		<g>
			<path class="st5" d="M59.2,46c-0.3-0.2-0.3-0.7-0.1-0.9c0.2-0.2,0.7-0.2,0.9,0c0.2,0.2,0.2,0.7,0,0.9
				C59.8,46.2,59.4,46.3,59.2,46L59.2,46z M58.4,46.2l0.5-0.5c0.1,0.7,0.1,1.5,0.1,2.2l-0.2,0.2C58.7,47.5,58.6,46.8,58.4,46.2z
				 M59.9,45.7c0.1-0.1,0.1-0.2,0-0.2c-0.1-0.1-0.4-0.1-0.5,0c-0.1,0.1-0.1,0.1,0,0.2C59.5,45.8,59.7,45.8,59.9,45.7L59.9,45.7z"/>
		</g>
		<g>
			<path class="st5" d="M62.1,47.8l-2,1.6c0.2-0.9,0.6-1.1,0-2l0.1-0.8c0.1,0.1,0.1,0.2,0.2,0.3c0.1,0.2,0.6,0.6,0.9,0.4
				c0,0,0.1-0.1,0.1-0.2c-0.3-0.1-0.5-0.2-0.7-0.4c-0.2-0.2-0.3-0.4,0-0.6c0.1-0.1,0.3-0.1,0.4,0.1c0.1,0.1,0.1,0.2,0,0.4
				c0.2,0.1,0.4,0.1,0.6,0.2c0,0.3,0,0.7-0.2,0.9c-0.2,0.2-0.6,0.1-0.8,0c0,0.3,0,0.5,0,0.8l1.9-1.5l0,0.3c-0.1,0.1-0.1,0.1-0.2,0.2
				l0.1,0.2l-0.1,0.5L62.1,47.8z"/>
		</g>
		<g>
			<path class="st5" d="M63.6,50.5l-2.3,1.2l0.1-0.5l1.2-0.7c0.1,0,0.2-0.3,0.1-0.4c0-0.1-0.1-0.1-0.2-0.1c-0.1,0-0.1,0.1-0.2,0.1
				l-0.2-0.2c0,0,0.1,0,0.1,0c0.2-0.1,0.2-0.4,0.1-0.6c-0.1-0.2-0.4-0.3-0.6-0.2c-0.1,0.1-0.1,0.2-0.1,0.3c0,0,0.1-0.1,0.1-0.1
				c0.2-0.1,0.4,0,0.4,0.2c0.1,0.2-0.1,0.5-0.3,0.6c-0.1,0.1-0.4-0.1-0.4-0.3c-0.2-0.4-0.1-0.8,0.3-1.1c0.3-0.1,0.8-0.1,1,0.2
				c0.1,0.2,0.1,0.4,0,0.6c0.1,0,0.3,0.1,0.4,0.2c0.1,0.2,0,0.2,0,0.4l-0.1,0.1l0.4-0.2l-0.9-1.8l0.1-0.5l1.4,2.6l-0.1,0.5
				L63.6,50.5z"/>
		</g>
		<g>
			<path class="st5" d="M64.2,51.8l-2.5,0.9l0.2-0.5l1.6-0.6c0.4-0.1,0.6-0.3,0.4-0.7l0.2-0.5l0.2,0.5c0.1,0.3-0.3,0.6-0.5,0.8h0
				c0.3-0.1,0.5-0.4,0.8-0.5c0.1,0,0.2,0,0.3-0.1l0,0.2l-0.3,0.2l0.1,0.2l-0.2,0.5L64.2,51.8z"/>
		</g>
	</g>
	<g>
		<path class="st5" d="M64.1,58.9l-2-0.2c0.3-0.2,0.7-0.2,0.7-0.6c0-0.2,0-0.5,0-0.7c0-0.6,0.4-1,1-0.9c0.3,0,0.4,0.1,0.7,0.4
			l-0.2,0.1c-0.1-0.1-0.3-0.2-0.5-0.2c-0.7-0.1-0.6,0.6-0.6,1c0,0.3-0.1,0.4-0.3,0.7l1.7,0.1l0,0c0-0.2-0.4-0.6-0.6-0.7v0.1
			c0,0.2-0.1,0.3-0.3,0.2c-0.2,0-0.3-0.3-0.3-0.5c0-0.3,0.3-0.5,0.6-0.4c0.5,0,1,0.7,1,1.2c0,0.2-0.3,0.5-0.5,0.5l0,0
			c0,0.1,0.1,0.2,0.2,0.2c0.7,0,0.6-1.8,1.4-1.7c0.2,0,0.4,0.2,0.4,0.4L66.5,58c-0.1-0.1-0.1-0.3-0.3-0.3c-0.4,0-0.3,1.8-1.4,1.8
			C64.4,59.4,64.4,59.1,64.1,58.9z"/>
	</g>
	<g>
		<path class="st5" d="M62.6,60.9c0.4-0.1,0.6-0.3,0.8-0.6c0.1,0.3,0.2,0.6,0.2,0.9L62.6,60.9z M63.7,63l0.5-0.3l0.9-3.1l-0.5,0.3
			l-0.4,1.5l-0.1,0c0-0.6-0.1-1.1-0.3-1.7L63.2,60c-0.2,0.5-0.8,1-1.3,0.9L61.6,61l2,0.6c-0.1,0.3-0.5,0.6-0.8,0.6
			c0.1,0,0.2-0.2,0.2-0.3c0-0.2,0-0.4-0.2-0.4c-0.2-0.1-0.4,0.1-0.4,0.3c-0.1,0.3,0.1,0.5,0.4,0.6c0.5,0.1,1.2-0.1,1.3-0.6l0.1,0
			L63.7,63z"/>
	</g>
	<g>
		<path class="st5" d="M63.1,64.2c0.1-0.2,0.1-0.5-0.2-0.6c-0.4-0.2-0.9-0.3-1.4-0.4c-0.3-0.2-0.6-0.7-0.4-1.1
			c0-0.1,0.1-0.1,0.2-0.1c0.1,0-0.1,0.5,0.4,0.8c0.3,0.1,0.7,0.1,1,0.3c0.3,0.1,0.4,0.4,0.6,0.6l0.3-0.6l0.5-0.2l-0.6,1.3L63,64.4
			C63,64.4,63,64.3,63.1,64.2z"/>
	</g>
	<g>
		<g>
			<defs>
				<path id="SVGID_1_" d="M37.2,42.8c0,0,2.4,13.7,17.7,21.8c-0.2,0.7-0.5,1.8,0,2.8c0.4,0.8,1.3,1.4,2.5,1.6
					c0.9,0.2,1.7,0,2.3-0.5c0.5-0.4,0.7-1,0.8-1.4c0.6,0.2,1.3,0.4,2,0.6c0,0,0.9-0.1,0.6-1.5C43.9,61.3,37.2,42.8,37.2,42.8z
					 M59,67.6c-0.3,0.3-0.8,0.4-1.5,0.3c-0.8-0.1-1.4-0.4-1.6-0.9c-0.3-0.6-0.2-1.3,0-1.8c1.1,0.6,2.3,1.1,3.6,1.6
					C59.4,67,59.3,67.4,59,67.6z"/>
			</defs>
			<clipPath id="SVGID_2_">
				<use xlink:href="#SVGID_1_"  style="overflow:visible;"/>
			</clipPath>
			<rect x="54.3" y="63.9" class="st6" width="0" height="5.4"/>
			<rect x="54.4" y="63.9" class="st7" width="0.1" height="5.4"/>
			<rect x="54.5" y="63.9" class="st8" width="0.1" height="5.4"/>
			<rect x="54.6" y="63.9" class="st9" width="0.1" height="5.4"/>
			<rect x="54.7" y="63.9" class="st10" width="0.1" height="5.4"/>
			<rect x="54.8" y="63.9" class="st11" width="0.1" height="5.4"/>
			<rect x="54.9" y="63.9" class="st12" width="0.1" height="5.4"/>
			<rect x="55" y="63.9" class="st13" width="0.1" height="5.4"/>
			<rect x="55.1" y="63.9" class="st14" width="0.1" height="5.4"/>
			<rect x="55.2" y="63.9" class="st15" width="0.1" height="5.4"/>
			<rect x="55.3" y="63.9" class="st16" width="0.1" height="5.4"/>
			<rect x="55.4" y="63.9" class="st17" width="0.1" height="5.4"/>
			<rect x="55.6" y="63.9" class="st18" width="0.1" height="5.4"/>
			<rect x="55.7" y="63.9" class="st19" width="0.1" height="5.4"/>
			<rect x="55.8" y="63.9" class="st20" width="0.1" height="5.4"/>
			<rect x="55.9" y="63.9" class="st21" width="0.1" height="5.4"/>
			<rect x="56" y="63.9" class="st22" width="0.1" height="5.4"/>
			<rect x="56.1" y="63.9" class="st23" width="0.1" height="5.4"/>
			<rect x="56.2" y="63.9" class="st24" width="0.1" height="5.4"/>
			<rect x="56.3" y="63.9" class="st25" width="0.1" height="5.4"/>
			<rect x="56.4" y="63.9" class="st26" width="0.1" height="5.4"/>
			<rect x="56.5" y="63.9" class="st27" width="0.1" height="5.4"/>
			<rect x="56.6" y="63.9" class="st28" width="0.1" height="5.4"/>
			<rect x="56.7" y="63.9" class="st29" width="0.1" height="5.4"/>
			<rect x="56.9" y="63.9" class="st30" width="0.1" height="5.4"/>
			<rect x="57" y="63.9" class="st31" width="0.1" height="5.4"/>
			<rect x="57.1" y="63.9" class="st32" width="0.1" height="5.4"/>
			<rect x="57.2" y="63.9" class="st33" width="0.1" height="5.4"/>
			<rect x="57.3" y="63.9" class="st34" width="0.1" height="5.4"/>
			<rect x="57.4" y="63.9" class="st35" width="0.1" height="5.4"/>
			<rect x="57.5" y="63.9" class="st36" width="0.1" height="5.4"/>
			<rect x="57.6" y="63.9" class="st37" width="0.1" height="5.4"/>
			<rect x="57.7" y="63.9" class="st38" width="0.1" height="5.4"/>
			<rect x="57.8" y="63.9" class="st39" width="0.1" height="5.4"/>
			<rect x="57.9" y="63.9" class="st40" width="0.1" height="5.4"/>
			<rect x="58" y="63.9" class="st41" width="0.1" height="5.4"/>
			<rect x="58.1" y="63.9" class="st42" width="0.1" height="5.4"/>
			<rect x="58.2" y="63.9" class="st43" width="0.1" height="5.4"/>
			<rect x="58.4" y="63.9" class="st44" width="0.1" height="5.4"/>
			<rect x="58.5" y="63.9" class="st45" width="0.1" height="5.4"/>
			<rect x="58.6" y="63.9" class="st46" width="0.1" height="5.4"/>
			<rect x="58.7" y="63.9" class="st47" width="0.1" height="5.4"/>
			<rect x="58.8" y="63.9" class="st48" width="0.1" height="5.4"/>
			<rect x="58.9" y="63.9" class="st49" width="0.1" height="5.4"/>
			<rect x="59" y="63.9" class="st50" width="0.1" height="5.4"/>
			<rect x="59.1" y="63.9" class="st51" width="0.1" height="5.4"/>
			<rect x="59.2" y="63.9" class="st52" width="0.1" height="5.4"/>
			<rect x="59.3" y="63.9" class="st53" width="0.1" height="5.4"/>
			<rect x="59.4" y="63.9" class="st54" width="0.1" height="5.4"/>
			<rect x="59.5" y="63.9" class="st55" width="0.1" height="5.4"/>
			<rect x="59.6" y="63.9" class="st56" width="0.1" height="5.4"/>
			<rect x="59.8" y="63.9" class="st57" width="0.1" height="5.4"/>
			<rect x="59.9" y="63.9" class="st58" width="0.1" height="5.4"/>
			<rect x="60" y="63.9" class="st59" width="0.1" height="5.4"/>
			<rect x="60.1" y="63.9" class="st60" width="0.1" height="5.4"/>
			<rect x="60.2" y="63.9" class="st61" width="0.1" height="5.4"/>
			<rect x="60.3" y="63.9" class="st62" width="0.1" height="5.4"/>
			<rect x="60.4" y="63.9" class="st63" width="0.1" height="5.4"/>
			<rect x="60.5" y="63.9" class="st64" width="0.1" height="5.4"/>
			<rect x="60.6" y="63.9" class="st65" width="0.1" height="5.4"/>
			<rect x="60.7" y="63.9" class="st66" width="0.1" height="5.4"/>
			<rect x="35.9" y="41.6" class="st67" width="0.5" height="28.9"/>
			<rect x="36.4" y="41.6" class="st67" width="0.1" height="28.9"/>
			<rect x="36.5" y="41.6" class="st68" width="0.1" height="28.9"/>
			<rect x="36.6" y="41.6" class="st69" width="0.1" height="28.9"/>
			<rect x="36.7" y="41.6" class="st69" width="0.1" height="28.9"/>
			<rect x="36.8" y="41.6" class="st69" width="0.1" height="28.9"/>
			<rect x="36.9" y="41.6" class="st70" width="0.1" height="28.9"/>
			<rect x="37" y="41.6" class="st71" width="0.1" height="28.9"/>
			<rect x="37.2" y="41.6" class="st72" width="0.1" height="28.9"/>
			<rect x="37.3" y="41.6" class="st73" width="0.1" height="28.9"/>
			<rect x="37.4" y="41.6" class="st74" width="0.1" height="28.9"/>
			<rect x="37.5" y="41.6" class="st74" width="0.1" height="28.9"/>
			<rect x="37.6" y="41.6" class="st75" width="0.1" height="28.9"/>
			<rect x="37.7" y="41.6" class="st76" width="0.1" height="28.9"/>
			<rect x="37.8" y="41.6" class="st76" width="0.1" height="28.9"/>
			<rect x="37.9" y="41.6" class="st77" width="0.1" height="28.9"/>
			<rect x="38" y="41.6" class="st78" width="0.1" height="28.9"/>
			<rect x="38.1" y="41.6" class="st79" width="0.1" height="28.9"/>
			<rect x="38.2" y="41.6" class="st80" width="0.1" height="28.9"/>
			<rect x="38.3" y="41.6" class="st81" width="0.1" height="28.9"/>
			<rect x="38.4" y="41.6" class="st82" width="0.1" height="28.9"/>
			<rect x="38.6" y="41.6" class="st83" width="0.1" height="28.9"/>
			<rect x="38.7" y="41.6" class="st83" width="0.1" height="28.9"/>
			<rect x="38.8" y="41.6" class="st84" width="0.1" height="28.9"/>
			<rect x="38.9" y="41.6" class="st85" width="0.1" height="28.9"/>
			<rect x="39" y="41.6" class="st85" width="0.1" height="28.9"/>
			<rect x="39.1" y="41.6" class="st86" width="0.1" height="28.9"/>
			<rect x="39.2" y="41.6" class="st86" width="0.1" height="28.9"/>
			<rect x="39.3" y="41.6" class="st86" width="0.1" height="28.9"/>
			<rect x="39.4" y="41.6" class="st87" width="0.1" height="28.9"/>
			<rect x="39.5" y="41.6" class="st88" width="0.1" height="28.9"/>
			<rect x="39.6" y="41.6" class="st88" width="0.1" height="28.9"/>
			<rect x="39.7" y="41.6" class="st89" width="0.1" height="28.9"/>
			<rect x="39.8" y="41.6" class="st90" width="0.1" height="28.9"/>
			<rect x="40" y="41.6" class="st90" width="0.1" height="28.9"/>
			<rect x="40.1" y="41.6" class="st91" width="0.1" height="28.9"/>
			<rect x="40.2" y="41.6" class="st92" width="0.1" height="28.9"/>
			<rect x="40.3" y="41.6" class="st93" width="0.1" height="28.9"/>
			<rect x="40.4" y="41.6" class="st94" width="0.1" height="28.9"/>
			<rect x="40.5" y="41.6" class="st95" width="0.1" height="28.9"/>
			<rect x="40.6" y="41.6" class="st96" width="0.1" height="28.9"/>
			<rect x="40.7" y="41.6" class="st97" width="0.1" height="28.9"/>
			<rect x="40.8" y="41.6" class="st98" width="0.1" height="28.9"/>
			<rect x="40.9" y="41.6" class="st99" width="0.1" height="28.9"/>
			<rect x="41" y="41.6" class="st100" width="0.1" height="28.9"/>
			<rect x="41.1" y="41.6" class="st101" width="0.1" height="28.9"/>
			<rect x="41.2" y="41.6" class="st101" width="0.1" height="28.9"/>
			<rect x="41.4" y="41.6" class="st102" width="0.1" height="28.9"/>
			<rect x="41.5" y="41.6" class="st103" width="0.1" height="28.9"/>
			<rect x="41.6" y="41.6" class="st104" width="0.1" height="28.9"/>
			<rect x="41.7" y="41.6" class="st105" width="0.1" height="28.9"/>
			<rect x="41.8" y="41.6" class="st106" width="0.1" height="28.9"/>
			<rect x="41.9" y="41.6" class="st107" width="0.1" height="28.9"/>
			<rect x="42" y="41.6" class="st108" width="0.1" height="28.9"/>
			<rect x="42.1" y="41.6" class="st109" width="0.1" height="28.9"/>
			<rect x="42.2" y="41.6" class="st110" width="0.1" height="28.9"/>
			<rect x="42.3" y="41.6" class="st110" width="0.1" height="28.9"/>
			<rect x="42.4" y="41.6" class="st111" width="0.1" height="28.9"/>
			<rect x="42.5" y="41.6" class="st111" width="0.1" height="28.9"/>
			<rect x="42.6" y="41.6" class="st112" width="0.1" height="28.9"/>
			<rect x="42.8" y="41.6" class="st112" width="0.1" height="28.9"/>
			<rect x="42.9" y="41.6" class="st112" width="0.1" height="28.9"/>
			<rect x="43" y="41.6" class="st113" width="0.1" height="28.9"/>
			<rect x="43.1" y="41.6" class="st113" width="0.1" height="28.9"/>
			<rect x="43.2" y="41.6" class="st114" width="0.1" height="28.9"/>
			<rect x="43.3" y="41.6" class="st114" width="0.1" height="28.9"/>
			<rect x="43.4" y="41.6" class="st115" width="0.1" height="28.9"/>
			<rect x="43.5" y="41.6" class="st116" width="0.1" height="28.9"/>
			<rect x="43.6" y="41.6" class="st117" width="0.1" height="28.9"/>
			<rect x="43.7" y="41.6" class="st118" width="0.1" height="28.9"/>
			<rect x="43.8" y="41.6" class="st119" width="0.1" height="28.9"/>
			<rect x="43.9" y="41.6" class="st120" width="0.1" height="28.9"/>
			<rect x="44" y="41.6" class="st121" width="0.1" height="28.9"/>
			<rect x="44.1" y="41.6" class="st122" width="0.1" height="28.9"/>
			<rect x="44.3" y="41.6" class="st123" width="0.1" height="28.9"/>
			<rect x="44.4" y="41.6" class="st124" width="0.1" height="28.9"/>
			<rect x="44.5" y="41.6" class="st125" width="0.1" height="28.9"/>
			<rect x="44.6" y="41.6" class="st126" width="0.1" height="28.9"/>
			<rect x="44.7" y="41.6" class="st127" width="0.1" height="28.9"/>
			<rect x="44.8" y="41.6" class="st128" width="0.1" height="28.9"/>
			<rect x="44.9" y="41.6" class="st129" width="0.1" height="28.9"/>
			<rect x="45" y="41.6" class="st130" width="0.1" height="28.9"/>
			<rect x="45.1" y="41.6" class="st131" width="0.1" height="28.9"/>
			<rect x="45.2" y="41.6" class="st132" width="0.1" height="28.9"/>
			<rect x="45.3" y="41.6" class="st133" width="0.1" height="28.9"/>
			<rect x="45.4" y="41.6" class="st134" width="0.1" height="28.9"/>
			<rect x="45.6" y="41.6" class="st135" width="0.1" height="28.9"/>
			<rect x="45.7" y="41.6" class="st136" width="0.1" height="28.9"/>
			<rect x="45.8" y="41.6" class="st137" width="0.1" height="28.9"/>
			<rect x="45.9" y="41.6" class="st138" width="0.1" height="28.9"/>
			<rect x="46" y="41.6" class="st139" width="0.1" height="28.9"/>
			<rect x="46.1" y="41.6" class="st140" width="0.1" height="28.9"/>
			<rect x="46.2" y="41.6" class="st141" width="0.1" height="28.9"/>
			<rect x="46.3" y="41.6" class="st142" width="0.1" height="28.9"/>
			<rect x="46.4" y="41.6" class="st143" width="0.1" height="28.9"/>
			<rect x="46.5" y="41.6" class="st144" width="0.1" height="28.9"/>
			<rect x="46.6" y="41.6" class="st145" width="0.1" height="28.9"/>
			<rect x="46.7" y="41.6" class="st146" width="0.1" height="28.9"/>
			<rect x="46.8" y="41.6" class="st147" width="0.1" height="28.9"/>
			<rect x="46.9" y="41.6" class="st147" width="0.1" height="28.9"/>
			<rect x="47.1" y="41.6" class="st148" width="0.1" height="28.9"/>
			<rect x="47.2" y="41.6" class="st148" width="0.1" height="28.9"/>
			<rect x="47.3" y="41.6" class="st149" width="0.1" height="28.9"/>
			<rect x="47.4" y="41.6" class="st149" width="0.1" height="28.9"/>
			<rect x="47.5" y="41.6" class="st150" width="0.1" height="28.9"/>
			<rect x="47.6" y="41.6" class="st150" width="0.1" height="28.9"/>
			<rect x="47.7" y="41.6" class="st151" width="0.1" height="28.9"/>
			<rect x="47.8" y="41.6" class="st151" width="0.1" height="28.9"/>
			<rect x="47.9" y="41.6" class="st152" width="0.1" height="28.9"/>
			<rect x="48" y="41.6" class="st152" width="0.1" height="28.9"/>
			<rect x="48.1" y="41.6" class="st153" width="0.1" height="28.9"/>
			<rect x="48.2" y="41.6" class="st154" width="0.1" height="28.9"/>
			<rect x="48.3" y="41.6" class="st155" width="0.1" height="28.9"/>
			<rect x="48.5" y="41.6" class="st156" width="0.1" height="28.9"/>
			<rect x="48.6" y="41.6" class="st157" width="0.1" height="28.9"/>
			<rect x="48.7" y="41.6" class="st158" width="0.1" height="28.9"/>
			<rect x="48.8" y="41.6" class="st159" width="0.1" height="28.9"/>
			<rect x="48.9" y="41.6" class="st160" width="0.1" height="28.9"/>
			<rect x="49" y="41.6" class="st161" width="0.1" height="28.9"/>
			<rect x="49.1" y="41.6" class="st162" width="0.1" height="28.9"/>
			<rect x="49.2" y="41.6" class="st163" width="0.1" height="28.9"/>
			<rect x="49.3" y="41.6" class="st164" width="0.1" height="28.9"/>
			<rect x="49.4" y="41.6" class="st165" width="0.1" height="28.9"/>
			<rect x="49.5" y="41.6" class="st166" width="0.1" height="28.9"/>
			<rect x="49.6" y="41.6" class="st167" width="0.1" height="28.9"/>
			<rect x="49.7" y="41.6" class="st168" width="0.1" height="28.9"/>
			<rect x="49.9" y="41.6" class="st169" width="0.1" height="28.9"/>
			<rect x="50" y="41.6" class="st170" width="0.1" height="28.9"/>
			<rect x="50.1" y="41.6" class="st171" width="0.1" height="28.9"/>
			<rect x="50.2" y="41.6" class="st172" width="0.1" height="28.9"/>
			<rect x="50.3" y="41.6" class="st173" width="0.1" height="28.9"/>
			<rect x="50.4" y="41.6" class="st174" width="0.1" height="28.9"/>
			<rect x="50.5" y="41.6" class="st175" width="0.1" height="28.9"/>
			<rect x="50.6" y="41.6" class="st176" width="0.1" height="28.9"/>
			<rect x="50.7" y="41.6" class="st177" width="0.1" height="28.9"/>
			<rect x="50.8" y="41.6" class="st178" width="0.1" height="28.9"/>
			<rect x="50.9" y="41.6" class="st179" width="0.1" height="28.9"/>
			<rect x="51" y="41.6" class="st180" width="0.1" height="28.9"/>
			<rect x="51.1" y="41.6" class="st181" width="0.1" height="28.9"/>
			<rect x="51.3" y="41.6" class="st182" width="0.1" height="28.9"/>
			<rect x="51.4" y="41.6" class="st183" width="0.1" height="28.9"/>
			<rect x="51.5" y="41.6" class="st184" width="0.1" height="28.9"/>
			<rect x="51.6" y="41.6" class="st185" width="0.1" height="28.9"/>
			<rect x="51.7" y="41.6" class="st186" width="0.1" height="28.9"/>
			<rect x="51.8" y="41.6" class="st186" width="0.1" height="28.9"/>
			<rect x="51.9" y="41.6" class="st187" width="0.1" height="28.9"/>
			<rect x="52" y="41.6" class="st187" width="0.1" height="28.9"/>
			<rect x="52.1" y="41.6" class="st188" width="0.1" height="28.9"/>
			<rect x="52.2" y="41.6" class="st188" width="0.1" height="28.9"/>
			<rect x="52.3" y="41.6" class="st189" width="0.1" height="28.9"/>
			<rect x="52.4" y="41.6" class="st190" width="0.1" height="28.9"/>
			<rect x="52.5" y="41.6" class="st191" width="0.1" height="28.9"/>
			<rect x="52.7" y="41.6" class="st192" width="0.1" height="28.9"/>
			<rect x="52.8" y="41.6" class="st193" width="0.1" height="28.9"/>
			<rect x="52.9" y="41.6" class="st194" width="0.1" height="28.9"/>
			<rect x="53" y="41.6" class="st194" width="0.1" height="28.9"/>
			<rect x="53.1" y="41.6" class="st195" width="0.1" height="28.9"/>
			<rect x="53.2" y="41.6" class="st195" width="0.1" height="28.9"/>
			<rect x="53.3" y="41.6" class="st196" width="0.1" height="28.9"/>
			<rect x="53.4" y="41.6" class="st197" width="0.1" height="28.9"/>
			<rect x="53.5" y="41.6" class="st198" width="0.1" height="28.9"/>
			<rect x="53.6" y="41.6" class="st199" width="0.1" height="28.9"/>
			<rect x="53.7" y="41.6" class="st200" width="0.1" height="28.9"/>
			<rect x="53.8" y="41.6" class="st201" width="0.1" height="28.9"/>
			<rect x="53.9" y="41.6" class="st202" width="0.1" height="28.9"/>
			<rect x="54" y="41.6" class="st203" width="0.1" height="28.9"/>
			<rect x="54.2" y="41.6" class="st204" width="0.1" height="28.9"/>
			<rect x="54.3" y="41.6" class="st6" width="0.1" height="28.9"/>
			<rect x="54.4" y="41.6" class="st7" width="0.1" height="28.9"/>
			<rect x="54.5" y="41.6" class="st8" width="0.1" height="28.9"/>
			<rect x="54.6" y="41.6" class="st9" width="0.1" height="28.9"/>
			<rect x="54.7" y="41.6" class="st10" width="0.1" height="28.9"/>
			<rect x="54.8" y="41.6" class="st11" width="0.1" height="28.9"/>
			<rect x="54.9" y="41.6" class="st12" width="0.1" height="28.9"/>
			<rect x="55" y="41.6" class="st13" width="0.1" height="28.9"/>
			<rect x="55.1" y="41.6" class="st14" width="0.1" height="28.9"/>
			<rect x="55.2" y="41.6" class="st15" width="0.1" height="28.9"/>
			<rect x="55.3" y="41.6" class="st16" width="0.1" height="28.9"/>
			<rect x="55.4" y="41.6" class="st17" width="0.1" height="28.9"/>
			<rect x="55.6" y="41.6" class="st18" width="0.1" height="28.9"/>
			<rect x="55.7" y="41.6" class="st19" width="0.1" height="28.9"/>
			<rect x="55.8" y="41.6" class="st20" width="0.1" height="28.9"/>
			<rect x="55.9" y="41.6" class="st21" width="0.1" height="28.9"/>
			<rect x="56" y="41.6" class="st22" width="0.1" height="28.9"/>
			<rect x="56.1" y="41.6" class="st23" width="0.1" height="28.9"/>
			<rect x="56.2" y="41.6" class="st24" width="0.1" height="28.9"/>
			<rect x="56.3" y="41.6" class="st25" width="0.1" height="28.9"/>
			<rect x="56.4" y="41.6" class="st26" width="0.1" height="28.9"/>
			<rect x="56.5" y="41.6" class="st27" width="0.1" height="28.9"/>
			<rect x="56.6" y="41.6" class="st28" width="0.1" height="28.9"/>
			<rect x="56.7" y="41.6" class="st29" width="0.1" height="28.9"/>
			<rect x="56.9" y="41.6" class="st30" width="0.1" height="28.9"/>
			<rect x="57" y="41.6" class="st31" width="0.1" height="28.9"/>
			<rect x="57.1" y="41.6" class="st32" width="0.1" height="28.9"/>
			<rect x="57.2" y="41.6" class="st33" width="0.1" height="28.9"/>
			<rect x="57.3" y="41.6" class="st34" width="0.1" height="28.9"/>
			<rect x="57.4" y="41.6" class="st35" width="0.1" height="28.9"/>
			<rect x="57.5" y="41.6" class="st36" width="0.1" height="28.9"/>
			<rect x="57.6" y="41.6" class="st37" width="0.1" height="28.9"/>
			<rect x="57.7" y="41.6" class="st38" width="0.1" height="28.9"/>
			<rect x="57.8" y="41.6" class="st39" width="0.1" height="28.9"/>
			<rect x="57.9" y="41.6" class="st40" width="0.1" height="28.9"/>
			<rect x="58" y="41.6" class="st41" width="0.1" height="28.9"/>
			<rect x="58.1" y="41.6" class="st42" width="0.1" height="28.9"/>
			<rect x="58.2" y="41.6" class="st43" width="0.1" height="28.9"/>
			<rect x="58.4" y="41.6" class="st44" width="0.1" height="28.9"/>
			<rect x="58.5" y="41.6" class="st45" width="0.1" height="28.9"/>
			<rect x="58.6" y="41.6" class="st46" width="0.1" height="28.9"/>
			<rect x="58.7" y="41.6" class="st47" width="0.1" height="28.9"/>
			<rect x="58.8" y="41.6" class="st48" width="0.1" height="28.9"/>
			<rect x="58.9" y="41.6" class="st49" width="0.1" height="28.9"/>
			<rect x="59" y="41.6" class="st50" width="0.1" height="28.9"/>
			<rect x="59.1" y="41.6" class="st51" width="0.1" height="28.9"/>
			<rect x="59.2" y="41.6" class="st52" width="0.1" height="28.9"/>
			<rect x="59.3" y="41.6" class="st53" width="0.1" height="28.9"/>
			<rect x="59.4" y="41.6" class="st54" width="0.1" height="28.9"/>
			<rect x="59.5" y="41.6" class="st55" width="0.1" height="28.9"/>
			<rect x="59.6" y="41.6" class="st56" width="0.1" height="28.9"/>
			<rect x="59.8" y="41.6" class="st57" width="0.1" height="28.9"/>
			<rect x="59.9" y="41.6" class="st58" width="0.1" height="28.9"/>
			<rect x="60" y="41.6" class="st59" width="0.1" height="28.9"/>
			<rect x="60.1" y="41.6" class="st60" width="0.1" height="28.9"/>
			<rect x="60.2" y="41.6" class="st61" width="0.1" height="28.9"/>
			<rect x="60.3" y="41.6" class="st62" width="0.1" height="28.9"/>
			<rect x="60.4" y="41.6" class="st63" width="0.1" height="28.9"/>
			<rect x="60.5" y="41.6" class="st64" width="0.1" height="28.9"/>
			<rect x="60.6" y="41.6" class="st65" width="0.1" height="28.9"/>
			<rect x="60.7" y="41.6" class="st66" width="0.1" height="28.9"/>
			<rect x="60.8" y="41.6" class="st205" width="0.1" height="28.9"/>
			<rect x="60.9" y="41.6" class="st206" width="0.1" height="28.9"/>
			<rect x="61" y="41.6" class="st207" width="0.1" height="28.9"/>
			<rect x="61.2" y="41.6" class="st208" width="0.1" height="28.9"/>
			<rect x="61.3" y="41.6" class="st209" width="0.1" height="28.9"/>
			<rect x="61.4" y="41.6" class="st210" width="0.1" height="28.9"/>
			<rect x="61.5" y="41.6" class="st211" width="0.1" height="28.9"/>
			<rect x="61.6" y="41.6" class="st212" width="0.1" height="28.9"/>
			<rect x="61.7" y="41.6" class="st213" width="0.1" height="28.9"/>
			<rect x="61.8" y="41.6" class="st214" width="0.1" height="28.9"/>
			<rect x="61.9" y="41.6" class="st215" width="0.1" height="28.9"/>
			<rect x="62" y="41.6" class="st216" width="0.1" height="28.9"/>
			<rect x="62.1" y="41.6" class="st217" width="0.1" height="28.9"/>
			<rect x="62.2" y="41.6" class="st217" width="2.5" height="28.9"/>
		</g>
	</g>
	<g>
		<path class="st1" d="M56.8,56v7.6c-5.4-1.3-7.9,3.5-7.9,3.5v-7.6C48.9,59.5,51,56.3,56.8,56z"/>
	</g>
	<g>
		<path class="st1" d="M40,56v7.6c5.4-1.3,7.9,3.5,7.9,3.5v-7.6C47.9,59.5,45.8,56.3,40,56z"/>
	</g>
	<g>
		<g>
			<rect x="47.1" y="53" width="3.1" height="2.6"/>
		</g>
		<g>
			<path d="M50.3,52.9H47v2.9h3.4v-2.9H50.3z M50.1,53.1c0,0.2,0,2.1,0,2.4c-0.2,0-2.7,0-2.9,0c0-0.2,0-2.1,0-2.4
				C47.5,53.1,49.9,53.1,50.1,53.1z"/>
		</g>
		<g>
			<g>
				<path d="M45.5,54.4c-0.3,0-0.6,0.3-0.6,0.7l0,0c0,0.4,0,1.1,0,1.5v1c0,0.4,0.1,1,0.3,1.4l0.4,0.5c0.3,0.2,0.9,0.3,1.2,0.3h3.8
					c0.4,0,0.9-0.1,1.2-0.3l0.4-0.5c0.1-0.4,0.3-1,0.3-1.4v-1c0-0.4,0-1.1,0-1.5l0,0c0-0.4-0.3-0.7-0.6-0.7H45.5z"/>
			</g>
			<g>
				<path d="M45.5,54.2c-0.4,0-0.8,0.4-0.8,0.9v2.4L45,59c0,0.1,0.5,0.5,0.5,0.5c0,0,1.3,0.4,1.3,0.4h3.8l1.3-0.3
					c0,0,0.5-0.5,0.5-0.5c0-0.1,0.3-1.5,0.3-1.5v-2.4c0-0.5-0.3-0.9-0.8-0.9H45.5z M45,57.5v-2.4c0-0.3,0.2-0.6,0.5-0.6h6.3
					c0.3,0,0.5,0.2,0.5,0.6v2.4c0,0-0.2,1.3-0.2,1.3c0,0-0.4,0.5-0.4,0.5c0,0-1.1,0.2-1.1,0.2h-3.8l-1.1-0.3c0,0-0.4-0.4-0.4-0.4
					C45.3,58.9,45,57.5,45,57.5z"/>
			</g>
		</g>
	</g>
	<g>
		<path class="st2" d="M55.8,45.1l-1.6,1.8l-8.7,9l1.5-0.7l1.5-1.5c0,0,1.7-0.5,3.9-3.5c1.5-2.1,3.2-4.2,3.9-5.1L55.8,45.1z"/>
	</g>
	<g>
		<g>
			<path class="st218" d="M45.5,45.9c-1.5,2.3,0,4.2,0,4.2C47.2,47.5,45.5,45.9,45.5,45.9z"/>
		</g>
		<g>
			<path d="M45.8,50.7c-0.1,0.1-0.2,0.3-0.7-0.3c-0.4-0.5-0.8,0.2-0.8,0.2l0.1,5.8l2.1,0.2v-5.9C46.5,50.5,45.9,50.5,45.8,50.7z"/>
		</g>
	</g>
	<g>
		<path class="st219" d="M45.6,50.8"/>
	</g>
	<g>
		<rect x="45.5" y="49.8" class="st218" width="0.2" height="1.1"/>
	</g>
	<g>
		<path d="M38.9,70c0.5-0.4,4.2-2.6,4.2-2.6l4.4,1.7l-7,4.5l-0.6-0.5l0.1-0.9c0,0,0.5-0.1,0.8-0.2c0.3-0.1,2.8-2.7,2.8-2.7l0.1-0.2
			c0,0-0.4-0.7-4.4,1L38.9,70z"/>
	</g>
	<g>
		<path d="M57.7,69.9c-0.5-0.4-4.2-2.6-4.2-2.6L49,69l7,4.5l0.6-0.5l-0.1-0.9c0,0-0.5-0.1-0.8-0.2c-0.3-0.1-2.8-2.7-2.8-2.7
			l-0.1-0.2c0,0,0.4-0.7,4.4,1L57.7,69.9z"/>
	</g>
	<g>
		<path class="st220" d="M38,57.2c0,0,1.4,0.9,2.2,0.1L38.8,64l-2.7,0.6L38,57.2z"/>
		<path class="st2" d="M37.9,57.3c0.1,0,1.5,0.9,2.3,0.1c0,0-0.1,0-0.1,0c0,0,0,0,0-0.1l-1.3,6.7c0,0,0,0,0.1-0.1l-2.7,0.6
			c0,0,0,0,0.1,0c0,0,0,0,0,0.1l1.8-7.3C38,57.2,38,57.3,37.9,57.3C38,57.3,37.9,57.3,37.9,57.3z M36.2,64.6l2.7-0.6
			c0,0,0,0,0.1-0.1l1.3-6.7c0,0,0-0.1,0-0.1c0,0-0.1,0-0.1,0C39.4,58,38,57.1,38,57.1c0,0,0,0-0.1,0c0,0,0,0,0,0L36.2,64.6
			C36.1,64.5,36.1,64.6,36.2,64.6C36.1,64.6,36.1,64.6,36.2,64.6z"/>
	</g>
	<g>
		<polygon class="st2" points="39.4,57.6 38.2,64.1 38.3,64.1 39.6,57.6 		"/>
	</g>
	<g>
		<polygon class="st2" points="38.6,57.4 37.1,64.3 37.2,64.3 38.7,57.5 		"/>
	</g>
	<g>
		<path class="st220" d="M58.4,57.2c0,0-1.4,0.8-2.1,0l1.3,6.7l2.7,0.7L58.4,57.2z"/>
		<path class="st2" d="M58.4,57.1L58.4,57.1c0,0-1.3,0.8-2,0c0,0-0.1,0-0.1,0c0,0,0,0,0,0.1l1.3,6.7c0,0,0,0,0.1,0.1l2.7,0.7
			c0,0,0,0,0.1,0c0,0,0,0,0-0.1l-1.8-7.4C58.5,57.2,58.5,57.1,58.4,57.1C58.4,57.1,58.4,57.1,58.4,57.1z M60.2,64.5l-2.7-0.7
			c0,0,0,0,0,0.1l-1.3-6.7c0,0,0,0.1,0,0.1c0,0-0.1,0-0.1,0c0.8,0.8,2.2,0,2.2,0c0,0,0,0-0.1,0c0,0,0,0,0,0L60.2,64.5
			C60.2,64.6,60.2,64.6,60.2,64.5C60.2,64.5,60.2,64.5,60.2,64.5z"/>
	</g>
	<g>
		<polygon class="st2" points="56.8,57.5 58.1,64.1 58.2,64.1 57,57.5 		"/>
	</g>
	<g>
		<polygon class="st2" points="57.6,57.5 59.2,64.3 59.3,64.3 57.8,57.4 		"/>
	</g>
	<g>
		<path class="st220" d="M38.8,64c0,0,1.2,1.6,3.6,1.4c2.4-0.1,5,0.9,5,0.9s-0.2-0.2,0,0.1c0.2,0.3,0.1,2.7,0.1,2.7l-11.4-4.5
			L38.8,64z"/>
		<path class="st2" d="M38.8,64c0,0,1.3,1.6,3.7,1.5c2.4-0.1,4.9,0.8,4.9,0.9c0,0,0.1,0,0.1,0c0,0,0-0.1,0-0.1c0,0-0.1-0.1-0.2,0
			c-0.1,0,0,0.1,0.1,0.2c0.1,0.2,0.1,1.7,0.1,2.7c0,0,0,0,0-0.1c0,0,0,0,0.1,0l-11.4-4.5c0,0,0,0,0,0.1c0,0,0,0-0.1,0.1L38.8,64
			C38.8,64,38.8,64,38.8,64z M36.1,64.7l11.4,4.5c0,0,0,0,0.1,0c0,0,0,0,0-0.1c0-0.4,0.1-2.5-0.1-2.8c-0.1-0.1-0.1-0.1-0.1-0.1
			c0,0,0,0,0,0.1c0,0,0,0-0.1,0c0,0,0,0,0,0c0,0,0-0.1,0-0.1c0,0,0.1,0,0.1,0c0,0-2.6-1-5-0.9c-2.4,0.2-3.6-1.4-3.6-1.4
			c0,0,0,0-0.1,0l-2.7,0.7C36.1,64.6,36.1,64.6,36.1,64.7C36.1,64.6,36.1,64.7,36.1,64.7z"/>
	</g>
	<g>
		<polygon class="st2" points="47.5,68.4 37.6,64.2 37.5,64.4 47.5,68.5 		"/>
	</g>
	<g>
		<polygon class="st2" points="47.5,67.6 41.2,65.2 41.1,65.3 47.4,67.8 		"/>
	</g>
	<g>
		<polygon class="st2" points="47.7,67.2 42.5,65.3 42.4,65.4 47.6,67.4 		"/>
	</g>
	<g>
		<path class="st220" d="M57.5,64c0,0-1.2,1.6-3.7,1.4c-2.4-0.1-4.9,0.9-4.9,0.9s0.2-0.2,0,0.1c-0.2,0.3-0.1,2.9-0.1,2.9l11.4-4.6
			L57.5,64z"/>
		<path class="st2" d="M57.5,63.9L57.5,63.9c0,0-1.2,1.6-3.6,1.4c-2.4-0.1-5,0.9-5,0.9c0,0,0.1,0,0.1,0c0,0,0,0.1,0,0.1c0,0,0,0,0,0
			c0,0,0,0-0.1,0c0,0,0,0,0-0.1c0,0,0,0-0.1,0.1c-0.2,0.3-0.2,2.5-0.2,2.9c0,0,0,0,0,0.1c0,0,0,0,0.1,0l11.4-4.6c0,0,0,0,0-0.1
			c0,0,0-0.1,0-0.1L57.5,63.9C57.5,63.9,57.5,63.9,57.5,63.9z M60.2,64.5l-11.4,4.6c0,0,0,0,0.1,0c0,0,0,0,0,0.1c0-1,0-2.6,0.1-2.8
			c0.1-0.1,0.1-0.2,0.1-0.2c-0.1-0.1-0.1,0-0.2,0c0,0,0,0.1,0,0.1c0,0,0.1,0,0.1,0c0,0,2.5-1,4.9-0.9c2.5,0.2,3.7-1.4,3.7-1.5
			c0,0,0,0-0.1,0l2.7,0.7C60.2,64.7,60.1,64.6,60.2,64.5C60.1,64.6,60.2,64.6,60.2,64.5z"/>
	</g>
	<g>
		<polygon class="st2" points="48.9,68.6 59,64.4 58.9,64.2 48.8,68.5 		"/>
	</g>
	<g>
		<polygon class="st2" points="48.9,67.8 55.3,65.3 55.3,65.2 48.9,67.7 		"/>
	</g>
	<g>
		<polygon class="st2" points="48.9,67.3 54.1,65.4 54,65.3 48.8,67.2 		"/>
	</g>
	<g>
		<path class="st2" d="M40.1,57.3c0.1,0,2,1.2,3.6,1.2c1.7,0,4.3,0.8,4.4,1.1l0.1,0c-0.1-0.5-3-1.3-4.5-1.3c-1.6,0-3.5-1.1-3.6-1.2
			L40.1,57.3z"/>
	</g>
	<g>
		<path class="st2" d="M56.2,57.2L56.2,57.2c0,0-2,1.2-3.5,1.2c-1.5,0-4.5,0.8-4.5,1.3l0.1,0c0-0.3,2.7-1.1,4.4-1.1
			c1.6,0,3.5-1.1,3.6-1.2L56.2,57.2z"/>
	</g>
	<g>
		<path class="st220" d="M47.5,66.4c0,0-2.4-1-4.2-1c-1.9,0-3.3,0.1-4.5-1.3l1.3-6.8c0,0,2,1.1,4.1,1.1c2.1,0,3.7,0.8,3.9,1.3
			L47.5,66.4z"/>
		<path class="st2" d="M47.5,66.3c0,0-2.4-1-4.2-1l-0.4,0c-1.7,0-3,0-4.1-1.3c0,0,0,0,0,0.1l1.3-6.8c0,0,0,0,0,0c0,0,0,0-0.1,0
			c0,0,2.1,1.1,4.2,1.1c2,0,3.6,0.8,3.8,1.2c0,0,0,0,0,0L47.5,66.3C47.5,66.3,47.5,66.3,47.5,66.3C47.5,66.3,47.5,66.3,47.5,66.3z
			 M48.2,59.6c-0.2-0.5-1.9-1.3-4-1.3c-2,0-4.1-1.1-4.1-1.1c0,0,0,0-0.1,0c0,0,0,0,0,0L38.7,64c0,0,0,0,0,0.1
			c1.1,1.4,2.5,1.4,4.2,1.4h0.4c1.8,0,4.2,1,4.2,1c0,0,0,0,0.1,0c0,0,0,0,0-0.1L48.2,59.6C48.2,59.6,48.2,59.6,48.2,59.6z"/>
	</g>
	<g>
		<path class="st220" d="M48.9,66.4c0,0,2.4-1,4.2-1c1.8,0,3.3,0.1,4.5-1.3l-1.3-6.8c0,0-2.1,1.1-4.1,1.1c-2.1,0-3.7,0.8-3.9,1.3
			L48.9,66.4z"/>
		<path class="st2" d="M48.9,66.4L48.9,66.4c0,0,2.4-1,4.2-1h0.4c1.7,0,3,0,4.2-1.4c0,0,0,0,0-0.1l-1.3-6.8c0,0,0,0,0,0
			c0,0,0,0-0.1,0c0,0-2.1,1.1-4.1,1.1c-2,0-3.7,0.8-4,1.3c0,0,0,0,0,0L48.9,66.4C48.8,66.4,48.8,66.4,48.9,66.4
			C48.9,66.4,48.9,66.4,48.9,66.4z M48.3,59.6c0.2-0.4,1.8-1.2,3.8-1.2c2.1,0,4.1-1.1,4.1-1.1c0,0,0,0-0.1,0c0,0,0,0,0,0l1.3,6.8
			c0,0,0,0,0-0.1c-1.1,1.3-2.4,1.3-4.1,1.3l-0.4,0c-1.8,0-4.2,1-4.3,1c0,0,0,0,0.1,0c0,0,0,0,0,0L48.3,59.6
			C48.3,59.6,48.3,59.6,48.3,59.6z"/>
	</g>
	<g>
		<path class="st2" d="M47.6,59.9l-0.1,9.2c0,0,0.3,0.2,0.5-0.3c0.3-0.4,0.4-0.3,0.8,0.1c0.3,0.4,0.1-8.9,0.1-8.9
			S48.3,59.2,47.6,59.9z"/>
	</g>
	<g>
		<g>
			<g>
				
					<rect x="46.7" y="47.1" transform="matrix(0.8126 -0.5828 0.5828 0.8126 -18.6266 36.4995)" class="st221" width="1.4" height="0.2"/>
			</g>
			<g>
				<polygon class="st221" points="46.9,46.7 47.8,45.9 47.7,45.8 46.8,46.6 				"/>
			</g>
			<g>
				
					<rect x="46.4" y="48.6" transform="matrix(0.7783 -0.6279 0.6279 0.7783 -20.1061 40.4541)" class="st221" width="1.6" height="0.2"/>
			</g>
		</g>
		<g>
			<g>
				
					<rect x="43.6" y="46.5" transform="matrix(0.5825 -0.8128 0.8128 0.5825 -20.1352 55.2318)" class="st221" width="0.2" height="1.4"/>
			</g>
			<g>
				
					<rect x="43.8" y="45.6" transform="matrix(0.6614 -0.75 0.75 0.6614 -19.8272 48.557)" class="st221" width="0.2" height="1.3"/>
			</g>
			<g>
				<polygon class="st221" points="44.6,49.1 43.3,48 43.2,48.2 44.5,49.2 				"/>
			</g>
		</g>
		<g>
			<rect x="45.4" y="44.2" class="st221" width="0.2" height="1.1"/>
		</g>
		<g>
			
				<rect x="44.5" y="44.8" transform="matrix(0.868 -0.4966 0.4966 0.868 -16.6814 28.1284)" class="st221" width="0.2" height="1.2"/>
		</g>
		<g>
			
				<rect x="46.4" y="45.1" transform="matrix(0.7003 -0.7138 0.7138 0.7003 -18.2052 47.0915)" class="st221" width="1.1" height="0.2"/>
		</g>
	</g>
	<g>
		<g>
			<path class="st222" d="M37.3,74.8c0,0.1,0,0.1-0.1,0.2c-0.1,0.1-0.2,0.2-0.3,0.2c-0.1,0-0.3,0-0.4-0.1c-0.1-0.1-0.1-0.2-0.2-0.3
				c0-0.1,0-0.3,0-0.4c-0.3,0.2-0.5,0.2-0.6,0.1c-0.1,0-0.1-0.1-0.1-0.3c0-0.2,0-0.2,0-0.3l0.1-0.1c0,0,0.1,0,0.1,0
				c0,0.1,0,0.2,0,0.2c0,0,0.1,0,0.2,0c0.1,0,0.2-0.1,0.2-0.1c0,0,0,0,0,0l-0.6-0.5l0-0.4l1.9,1.5l0.1,0.4l-0.2-0.2
				C37.4,74.9,37.3,74.8,37.3,74.8z M37.1,74.7C37.1,74.7,37.1,74.6,37.1,74.7l-0.4-0.4c0,0,0,0.1,0,0.1c0,0.2,0,0.3,0.1,0.4
				c0.1,0,0.1,0.1,0.2,0c0,0,0,0,0.1,0C37,74.8,37.1,74.8,37.1,74.7z"/>
		</g>
		<g>
			<path class="st222" d="M35.9,76.1C35.9,76.1,35.9,76.1,35.9,76.1c0.1,0.3,0.2,0.7,0.3,1.1l-0.1,0.3c-0.1-0.6-0.4-1.2-0.7-1.7
				l-0.1-0.2l0.1-0.7c0.1,0.3,0.2,0.5,0.4,0.6c0.1,0.1,0.2,0.1,0.4,0.1c0.2,0,0.3,0,0.4-0.1c0.1-0.1,0.1-0.1,0.1-0.2
				c0,0,0,0-0.1-0.1c0,0-0.1,0-0.1,0c-0.1,0.1-0.2,0.2-0.4,0.2c-0.1,0-0.1,0-0.2-0.1c-0.1-0.1-0.1-0.1-0.1-0.2c0-0.1,0-0.2,0.1-0.2
				c0-0.1,0.1-0.1,0.3-0.1c0.1,0,0.2,0,0.4,0.1c0.1,0,0.1,0.1,0.2,0.1c0.2,0.1,0.2,0.2,0.3,0.4c0,0.2,0,0.3-0.1,0.5
				C36.6,76.1,36.3,76.2,35.9,76.1z"/>
		</g>
		<g>
			<path class="st222" d="M37.9,75.1l0.1-0.1c0.1-0.1,0.2-0.3,0.3-0.5l0.1,0.2c0,0,0,0.1,0,0.1c0,0,0,0.1,0,0.1c0,0,0,0,0,0.1
				l0.1,0.1l0.1,0.4l-0.4-0.2l-1.3,2l-0.1-0.4l0.9-1.4c0-0.1,0.1-0.1,0.1-0.2c0-0.1-0.1-0.3-0.2-0.3c0,0,0,0-0.1,0l-0.1-0.4
				c0.2,0.1,0.3,0.2,0.4,0.2C37.8,74.8,37.9,74.9,37.9,75.1z"/>
		</g>
		<g>
			<path class="st222" d="M40.2,75.7c-0.1-0.3-0.3-0.4-0.5-0.6C39.5,75,39.4,75,39.2,75c-0.1,0-0.1,0-0.2,0.1
				c-0.1,0-0.2,0.1-0.2,0.1l0,0.2l0.2,0.1l0.1,0.4l-0.4-0.2l-1.2,1.9l-0.1-0.4l1-1.7l-0.2-0.1L38.1,75l0.5,0.3c0-0.1,0-0.1,0-0.2
				c0-0.1,0-0.1,0-0.1c0-0.1,0.1-0.1,0.1-0.1c0.1-0.1,0.2-0.1,0.3-0.1c0.1,0,0.3,0,0.4,0c0.1,0,0.2,0,0.3,0.1
				c0.3,0.2,0.5,0.4,0.6,0.8c0,0.1,0.1,0.3,0.1,0.4l-0.1,0.3L40.2,75.7z"/>
		</g>
		<g>
			<path class="st222" d="M40.3,76.9l0.1-0.2l0.3-0.7l0.1,0.2c0,0,0,0,0,0c0,0.1,0,0.1,0,0.2l0,0.1c0,0,0,0,0.1,0l0.1,0.4l-0.3-0.2
				l-1,2c0-0.1-0.1-0.2-0.2-0.4l0.5-1c0-0.2,0-0.3,0-0.4l-1,0.3l-0.3-0.3l0.3-0.1c0,0,0,0,0.1-0.1c0-0.1,0-0.2,0-0.2
				c0,0-0.1,0-0.1,0c-0.1,0-0.2,0-0.2,0c0,0-0.1-0.1-0.1-0.1c0-0.1,0-0.1,0-0.2c0-0.1,0.1-0.1,0.3-0.2c0.1-0.1,0.2-0.1,0.3-0.1
				c0.2,0,0.3,0,0.5,0.1c0.2,0.1,0.3,0.2,0.4,0.4C40.3,76.5,40.3,76.7,40.3,76.9z M39.4,76.7l0.5-0.2c0-0.1-0.1-0.2-0.2-0.2
				c-0.2-0.1-0.3-0.1-0.5,0c0.1,0,0.1,0.1,0.1,0.2C39.5,76.6,39.5,76.6,39.4,76.7z"/>
		</g>
		<g>
			<path class="st222" d="M40.9,76.8l-0.2-0.4l2.4,0.8l0.2,0.4L40.9,76.8z M41.6,79c-0.1,0-0.2-0.1-0.3-0.1
				c-0.1-0.1-0.2-0.1-0.2-0.2c-0.1-0.1-0.1-0.2-0.1-0.4c0-0.2-0.1-0.3-0.1-0.4c0-0.4,0-0.7,0-1l0.2,0.2c0,0.3,0,0.4,0,0.5
				c0,0.2,0,0.4,0.1,0.5c0.1,0.3,0.3,0.5,0.5,0.6c0.1,0,0.3,0,0.4,0c0.1-0.1,0.2-0.1,0.2-0.2c0-0.1,0-0.2,0-0.3
				c0-0.1-0.1-0.2-0.2-0.2c0,0,0,0-0.1,0c0,0.1,0,0.1,0,0.2c-0.1,0.2-0.2,0.3-0.5,0.2c-0.1,0-0.2-0.1-0.2-0.2c0-0.1,0-0.2,0-0.3
				c0-0.1,0.1-0.2,0.3-0.3c0.1-0.1,0.3-0.1,0.4,0c0.1,0,0.1,0,0.2,0.1c0.2,0.2,0.4,0.4,0.3,0.8c0,0.1,0,0.2-0.1,0.3
				c-0.1,0.2-0.2,0.4-0.4,0.5C42,79.1,41.8,79.1,41.6,79z"/>
		</g>
		<g>
			<path class="st222" d="M44.4,79.7c-0.1,0-0.1-0.1-0.2-0.1c0-0.1-0.1-0.1,0-0.2c0-0.1,0.1-0.1,0.1-0.2c0.1,0,0.1-0.1,0.2-0.1
				c0.1,0,0.1,0.1,0.2,0.1c0,0.1,0.1,0.1,0,0.2c0,0.1-0.1,0.1-0.1,0.2C44.6,79.7,44.5,79.8,44.4,79.7z M44.6,78.8
				c-0.1,0-0.1-0.1-0.2-0.1c0-0.1-0.1-0.1,0-0.2c0-0.1,0.1-0.1,0.1-0.2c0.1,0,0.1-0.1,0.2,0c0.1,0,0.1,0,0.2,0.1
				c0,0.1,0.1,0.1,0,0.2c0,0.1-0.1,0.1-0.1,0.2C44.8,78.8,44.7,78.8,44.6,78.8z"/>
		</g>
		<g>
			<path class="st222" d="M47.4,80.3c-0.1,0.1-0.3,0.1-0.4,0.1c-0.1,0-0.1,0-0.2-0.1c-0.1-0.1-0.2-0.2-0.2-0.3c0-0.1,0-0.2,0.1-0.3
				c0.1-0.1,0.2-0.1,0.3-0.1c0,0,0.1,0,0.1,0c0.2,0,0.3,0.1,0.4,0.2c0.1-0.1,0.1-0.2,0.1-0.2c0-0.1,0-0.2-0.1-0.3
				c-0.2-0.2-0.4-0.4-0.6-0.7c-0.1-0.1-0.2-0.3-0.2-0.4c0-0.1,0.1-0.2,0.2-0.3c0,0,0.1,0,0.1,0c0.1,0,0.1,0,0.2,0.1
				c0,0.1,0.1,0.1,0.1,0.2c0,0,0,0.1,0,0.1c0.2,0.2,0.4,0.4,0.5,0.6c0.2,0.2,0.2,0.5,0.2,0.7C47.9,79.9,47.7,80.1,47.4,80.3z"/>
		</g>
		<g>
			<path class="st222" d="M48.6,78.3c0,0,0.1,0.1,0.3,0.1c0.3,0.1,0.4,0.1,0.5,0.1c0.4,0.2,0.6,0.4,0.7,0.9c0,0.2-0.1,0.4-0.3,0.6
				c-0.2,0.2-0.4,0.3-0.6,0.3l0.1-0.5c0,0,0-0.1,0-0.1c0-0.1-0.1-0.2-0.1-0.3C49,79.4,49,79.4,49,79.4c0,0-0.1,0-0.1,0
				c0,0-0.1,0-0.1,0.1c0,0.1-0.1,0.2-0.1,0.2c0,0.1,0,0.1,0,0.1c0,0,0,0,0,0c0.2,0,0.2,0.1,0.2,0.2c0,0.2-0.1,0.3-0.2,0.3
				c-0.1,0-0.2,0-0.3-0.2c-0.1-0.1-0.1-0.2-0.1-0.3c0-0.1,0-0.3,0.1-0.4c0.1-0.1,0.2-0.2,0.3-0.3c0.1,0,0.1-0.1,0.2-0.1
				c0.2,0,0.3,0.1,0.4,0.2c0.1,0.1,0.2,0.3,0.2,0.5c0,0,0,0,0,0.1l0.1-0.1c0.1-0.1,0.1-0.1,0.1-0.2c0-0.2-0.1-0.3-0.3-0.4l-0.6-0.2
				c-0.2-0.1-0.3-0.1-0.5-0.2c-0.2-0.1-0.3-0.3-0.3-0.4c0,0,0,0,0-0.1c0-0.2,0.1-0.3,0.2-0.3c0,0,0.1,0,0.1,0c0.1,0,0.1,0.1,0.2,0.2
				C48.7,78.2,48.7,78.3,48.6,78.3z"/>
		</g>
		<g>
			<path class="st222" d="M51.8,78.8c-0.2,0.2-0.3,0.4-0.2,0.6c0,0.3,0.3,0.5,0.7,0.5c-0.2,0.1-0.3,0.2-0.5,0.2
				c-0.3,0-0.5,0-0.8-0.1c-0.3-0.1-0.5-0.4-0.6-0.8c-0.1-0.4,0.1-0.8,0.4-1.2c0.2-0.2,0.3-0.3,0.5-0.3l0.5,0
				c-0.1,0.1-0.2,0.1-0.3,0.2c0,0.1,0,0.1,0,0.2c0,0,0,0.1,0.1,0.1c0,0,0.1,0,0.2,0c0.2,0.1,0.3,0.1,0.3,0.1c0.1,0,0.2,0,0.3,0
				C52.1,78.5,51.9,78.7,51.8,78.8z M51.5,78.5c0,0-0.1-0.1-0.2-0.1c0,0-0.1-0.1-0.1-0.2c-0.2,0.2-0.4,0.4-0.4,0.7
				c0,0.2,0,0.3,0,0.4c0,0.1,0.1,0.3,0.2,0.4c0.1,0.1,0.3,0.2,0.4,0.2c0,0,0,0,0.1,0c-0.1-0.1-0.2-0.3-0.2-0.4c0-0.2,0-0.3,0-0.5
				C51.3,78.8,51.4,78.6,51.5,78.5C51.5,78.5,51.5,78.5,51.5,78.5z"/>
		</g>
		<g>
			<path class="st222" d="M53.7,79.6c-0.2,0.1-0.4,0.1-0.6,0c-0.2-0.1-0.3-0.2-0.4-0.4c0,0,0-0.1,0-0.1c0-0.2,0.1-0.4,0.3-0.5
				c-0.2,0-0.4-0.2-0.5-0.4c-0.1-0.2,0-0.4,0.1-0.6c0.1-0.2,0.3-0.3,0.4-0.4c0.2-0.1,0.3-0.1,0.5,0c0.2,0.1,0.3,0.2,0.3,0.4
				c0,0.1,0,0.2,0,0.3c0,0.1-0.1,0.2-0.2,0.3c0.3,0,0.5,0.2,0.5,0.5c0.1,0.2,0,0.4-0.1,0.5C54,79.4,53.9,79.5,53.7,79.6z M53.1,77.5
				c-0.1,0-0.2,0.1-0.3,0.2c0,0,0,0.1,0,0.2c0,0.1,0.1,0.2,0.2,0.2c0.1,0,0.2,0.1,0.3,0.1c0.1-0.1,0.1-0.2,0.2-0.2
				c0.1-0.1,0.1-0.2,0.1-0.2c0-0.1-0.1-0.2-0.2-0.2C53.3,77.5,53.2,77.5,53.1,77.5z M53.6,78.6c-0.1-0.1-0.3-0.1-0.3-0.1
				c-0.1,0.1-0.2,0.3-0.2,0.3c0,0,0,0.1,0,0.2c0,0.1,0.1,0.2,0.2,0.2c0.1,0,0.2,0,0.3,0c0.2-0.1,0.3-0.2,0.3-0.4
				C53.9,78.8,53.8,78.7,53.6,78.6z"/>
		</g>
		<g>
			<path class="st222" d="M56.6,75.5c-0.3-0.1-0.5,0-0.8,0.1c-0.1,0-0.3,0.2-0.4,0.4c0,0,0,0.1-0.1,0.2c0,0.1,0,0.2,0,0.2l0.1,0.1
				l0.2-0.1l0.4,0.2l-0.4,0.2l0.9,2.1l-0.4-0.2l-0.8-1.8l-0.3,0.1l-0.4-0.2l0.5-0.2c0,0-0.1,0-0.1-0.1c0,0-0.1-0.1-0.1-0.1
				c0-0.1,0-0.1,0-0.2c0-0.1,0-0.2,0.1-0.3c0-0.1,0.1-0.2,0.2-0.4c0.1-0.1,0.1-0.1,0.2-0.2c0.3-0.1,0.6-0.1,1-0.1
				c0.1,0,0.3,0.1,0.4,0.2l0.2,0.2L56.6,75.5z"/>
		</g>
		<g>
			<path class="st222" d="M57.5,75.8l1,2l-0.2-0.1c0,0-0.1,0-0.1-0.1c-0.2-0.2-0.4-0.3-0.6-0.3c-0.3,0-0.5,0-0.7,0.1l-0.7-0.3
				c0.1,0,0.2-0.1,0.3-0.1c0.1,0,0.2-0.1,0.3-0.2c0.1-0.1,0.2-0.2,0.2-0.3c0-0.1,0-0.1,0-0.2c0,0-0.1-0.1-0.1-0.1c0,0,0,0.1,0,0.1
				c0,0.1-0.1,0.2-0.2,0.3c-0.1,0.1-0.2,0.2-0.2,0.2c-0.1,0-0.2,0.1-0.3,0c-0.1,0-0.2-0.1-0.2-0.2c0-0.1,0-0.1,0-0.2
				c0-0.1,0.1-0.2,0.1-0.2c0.1-0.1,0.2,0,0.3,0.1c0,0,0,0,0.1-0.1c0,0,0.1-0.2,0.2-0.4C56.9,76,57,76,57,76c0.2,0.1,0.3,0.1,0.3,0.3
				c0.1,0.1,0.1,0.2,0,0.4c0,0.1-0.1,0.2-0.1,0.3c0.2,0,0.5,0.1,0.6,0.2l-1-1.9l0.2,0c0,0,0,0.1,0.1,0.1c0,0.1,0.1,0.1,0.1,0.1
				c0,0,0.1,0,0.1,0l0.4,0.1L57.5,75.8z"/>
		</g>
		<g>
			<path class="st222" d="M58.7,78c-0.1,0-0.1-0.1-0.2-0.1c-0.1,0-0.2,0-0.3,0c-0.2,0.1-0.4,0.2-0.7,0.4c-0.4,0.2-0.7,0.2-0.9-0.2
				c0-0.1-0.1-0.2-0.1-0.4l0.2,0.1c0,0,0,0.1,0,0.2c0.1,0.1,0.1,0.1,0.3,0.1c0.1,0,0.2,0,0.3-0.1c0.1,0,0.2-0.1,0.3-0.2
				c0.1-0.1,0.2-0.1,0.2-0.1c0.1,0,0.1,0,0.2-0.1c0.1,0,0.2,0,0.2,0h0l-0.6-1l0.1-0.4l1,1.8C58.9,78.1,58.8,78.1,58.7,78z"/>
		</g>
		<g>
			<path class="st222" d="M59.5,76.1C59.5,76.1,59.5,76.1,59.5,76.1c-0.1,0-0.2,0-0.2-0.1c0-0.1,0-0.1,0-0.2c0-0.1,0.1-0.1,0.1-0.2
				c0.1,0,0.2-0.1,0.2,0c0.1,0,0.2,0.1,0.2,0.1c0,0.1,0.1,0.1,0.1,0.2c0,0.1,0,0.2-0.1,0.4c-0.1,0.2-0.2,0.4-0.4,0.5
				C59.2,76.9,59.1,77,59,77c-0.1,0-0.2-0.1-0.3-0.3c-0.1-0.1-0.1-0.3,0-0.5l0.1-0.2c0,0,0,0,0,0.1l0,0h0c0,0-0.1,0-0.1,0.1
				c-0.2,0-0.3,0-0.4-0.2c0-0.1-0.1-0.1-0.1-0.2c0-0.1,0-0.2,0-0.3l-0.4,0.2l-0.4-0.1l1.2-0.8h0.2c0-0.1,0-0.1,0-0.1
				c0,0,0-0.1-0.1-0.1c0,0-0.1,0-0.2,0.1c-0.1,0.1-0.3,0.2-0.6,0.4c-0.2,0.1-0.4,0.1-0.6,0.1c-0.1,0-0.1-0.1-0.2-0.1
				C57,74.8,57,74.7,57,74.6l0.2-0.1c0,0.1,0,0.2,0,0.2c0,0,0,0.1,0.1,0.1c0.1,0,0.2,0,0.3-0.1c0.1,0,0.1-0.1,0.2-0.2
				c0.1-0.1,0.2-0.1,0.2-0.1c0.1-0.1,0.2-0.1,0.3-0.1c0.1,0,0.2,0,0.3,0.1c0.1,0,0.2,0.1,0.2,0.2c0,0,0,0,0,0c0,0,0,0,0,0l0.1,0
				l0.3,0.1L59,74.9c0,0,0,0,0.1,0c0.1,0,0.1,0.1,0.1,0.1c0.1,0.1,0.1,0.2,0.1,0.4c0,0.2-0.1,0.4-0.2,0.7c-0.1,0.3-0.1,0.4,0,0.5
				c0,0,0.1,0,0.1,0c0.1-0.1,0.2-0.3,0.3-0.4C59.5,76.2,59.5,76.2,59.5,76.1L59.5,76.1z M58.9,75.6l-0.5-0.2c0,0,0,0,0,0.1
				c0,0.1,0,0.2,0,0.2c0.1,0.1,0.2,0.1,0.3,0.1C58.8,75.8,58.8,75.8,58.9,75.6C58.9,75.7,58.9,75.6,58.9,75.6
				C58.9,75.6,58.9,75.6,58.9,75.6z M58.6,75.1c-0.1,0.1-0.1,0.1-0.1,0.2c0.1,0,0.1,0.1,0.2,0.1c0.1,0,0.2,0.1,0.2,0.1
				c0.1-0.1,0-0.2,0-0.3C58.8,75,58.7,75,58.6,75.1z"/>
		</g>
		<g>
			<path class="st222" d="M59.5,74.4L59.5,74.4c-0.2-0.2-0.3-0.3-0.4-0.5l0.2,0c0,0,0,0,0.1,0.1c0,0,0,0,0.1,0.1c0,0,0,0,0.1,0
				l0.1-0.1l0.4,0.1l-0.3,0.3l1.4,1.9l-0.4-0.1l-1-1.3c-0.1-0.1-0.1-0.1-0.2-0.1c-0.1,0-0.3,0-0.4,0c0,0,0,0-0.1,0l-0.4-0.1
				c0.1-0.1,0.3-0.2,0.3-0.3C59.2,74.3,59.3,74.3,59.5,74.4z"/>
		</g>
		<g>
			<path class="st222" d="M60.6,73.6L60,74.2l-0.4,0l1.8-1.7l0.4,0l-1,0.9l0.5,0.6v-0.1c0-0.4,0-0.6,0.1-0.9l0.5,0
				c0,0.4,0.2,0.7,0.3,0.9c0.1,0.1,0.2,0.2,0.3,0.3c0.1,0.1,0.2,0.1,0.3,0.2l-0.2,0.1l-0.2-0.1l-0.2-0.1c-0.1-0.1-0.2-0.2-0.4-0.3
				c-0.1-0.1-0.2-0.2-0.3-0.4c0,0.3,0,0.7,0.2,1l-0.4,0c-0.1-0.1-0.3-0.1-0.4-0.1c-0.1,0-0.2,0.1-0.3,0.2l-0.4-0.1
				C60.4,74.1,60.5,73.8,60.6,73.6z M60.9,73.9c-0.1,0.1-0.1,0.3-0.1,0.4c0.1,0,0.3,0,0.5,0L60.9,73.9z"/>
		</g>
	</g>
	<g>
		<path class="st223" d="M23.7,58.5l0,0.9c-1,0.4-2.1,0.7-3.2,0.9c-1.1,0.2-2.2,0.3-3.2,0.2c-1.3-0.1-2.5-0.3-3.6-0.6
			c-1-0.3-1.9-0.7-2.7-1.1l0-0.9c1.3,0.5,2.5,0.8,3.4,1c0.9,0.2,1.9,0.3,3,0.4c0.7,0,1.5,0,2.3,0c0.8-0.1,1.5-0.2,2.2-0.3
			C22.2,58.9,22.8,58.7,23.7,58.5z"/>
		<path class="st223" d="M19.3,53.9c0.7,0.1,1.2,0.4,1.7,1c0.4,0.6,0.6,1.1,0.5,1.7c-0.1,0.5-0.3,0.9-0.8,1.1
			c-0.4,0.2-1,0.3-1.7,0.2c-0.6-0.1-1.2-0.2-1.6-0.4c-0.5-0.2-1.1-0.6-1.9-1l0.3-0.2c0.5,0.3,0.9,0.6,1.3,0.7
			c0.4,0.2,0.7,0.3,1.1,0.3c0.4,0.1,0.7,0,1-0.1c0.3-0.2,0.4-0.4,0.5-0.8c0.1-0.5,0-1-0.3-1.3c-0.2-0.4-0.6-0.6-1.1-0.7
			c-0.1,0-0.1,0-0.2,0c0,0-0.1,0-0.1,0c-0.2,0-0.4,0-0.6-0.1c-0.2,0-0.6,0-1.3-0.1C15.1,54.1,14,54,13,54l-0.3,0.2
			c-0.4-0.1-1.1-0.3-1.9-0.7l0.2-0.2c0.1,0,0.1,0,0.2,0.1c0.2,0,0.3,0,0.5-0.1c0.2-0.2,0.3-0.3,0.5-0.4c0.4,0.1,0.6,0.2,0.8,0.2
			c0.2,0.1,0.4,0.2,0.7,0.3l-0.1,0.1c0.1,0,0.4,0,1.1,0.1c0.7,0,1.3,0.1,1.8,0.1c0.7,0,1.2,0.1,1.3,0.1L19.3,53.9z"/>
		<path class="st223" d="M20.5,50.3c-0.1,0.3-0.3,0.6-0.6,1c-0.3,0.3-0.5,0.6-0.8,0.8c0.3,0.3,0.5,0.6,0.6,0.8c0,0.1,0,0.3-0.1,0.5
			l-0.2,0.9l-1.8-0.5l0.2-0.9c0.1-0.3,0.1-0.5,0-0.7c-0.1-0.2-0.2-0.4-0.5-0.6c-0.5-0.3-0.9-0.7-1.2-1c-0.2-0.3-0.3-0.6-0.3-0.7
			c0-0.1,0.4-0.2,1.1-0.2c0.8,0,1.4,0.1,2,0.2L20.5,50.3z M18.3,50.5c-0.1,0-0.3,0-0.5,0c-0.3,0.1-0.5,0.1-0.5,0.2
			c0,0.1,0.1,0.3,0.5,0.5c0.1-0.1,0.2-0.2,0.3-0.3c0.2-0.2,0.3-0.3,0.3-0.3C18.4,50.6,18.4,50.5,18.3,50.5z"/>
		<path class="st223" d="M21.3,48.3l-0.2,0.6c-0.1,0.3-0.4,0.5-0.9,0.5c-0.5,0-1.3-0.3-2.3-0.7l-1.8-0.7c-0.4-0.2-0.7-0.3-1-0.3
			c-0.1,0-0.3,0-0.6,0.1l-1.4-1.1c0.4,0,0.8,0,1.1,0.1c0.4,0.1,0.9,0.2,1.5,0.5l1.2,0.5c0.9,0.4,1.5,0.6,1.8,0.6
			c0.3,0.1,0.5,0,0.5-0.1l0.2-0.6L21.3,48.3z"/>
		<path class="st223" d="M22.7,45.5l-1.6,3.2l-1.6-0.9l1.3-2.6c-0.2,0-0.4,0-0.6,0c-0.2,0-0.3,0.1-0.6,0.1c-0.2,0.1-0.5,0.1-0.7,0.2
			l0.1,0.2c-0.5,0-0.7,0.1-0.8,0.1c-0.3,0-0.6-0.1-0.9-0.2c-0.4-0.2-0.7-0.4-0.8-0.5c-0.2-0.2-0.3-0.4-0.4-0.7
			c-0.1-0.2-0.1-0.5-0.2-0.7c0-0.2-0.1-0.4-0.1-0.7c0-0.1,0-0.4-0.1-0.9l1.4,0.8c0,0,0,0.2,0,0.4c0,0.3,0,0.6,0,0.8
			c0,0.3,0.1,0.5,0.1,0.5c0,0,0.2,0,0.6,0c0.5-0.1,0.9-0.1,1.3-0.1c0.7,0,1.3,0,1.9,0.1L22.7,45.5z"/>
		<path class="st223" d="M23.9,43.6l-1.3,2.1l-1.5-1l1-1.6L18,41l-0.4,0.1c-0.2-0.1-0.4-0.3-0.6-0.5c-0.2-0.2-0.5-0.6-0.8-1l0.2-0.1
			c0,0,0.1,0.1,0.2,0.1c0.1,0.1,0.3,0.1,0.5,0.1c0.2,0,0.4-0.1,0.6-0.2c0.2,0.2,0.4,0.4,0.6,0.6c0.2,0.2,0.4,0.4,0.5,0.6l-0.2,0.1
			l3.7,1.9L23.9,43.6z"/>
		<path class="st223" d="M23.3,41.1c0.3,0.2,0.6,0.5,0.8,0.7c0.2,0.2,0.5,0.6,0.9,1.1l-0.3,0.1c-0.4-0.4-0.8-0.7-1.1-0.9
			c-0.2-0.2-0.5-0.4-1-0.7c-0.4-0.3-0.9-0.6-1.3-0.9c-0.4-0.3-1-0.6-1.6-1c-0.2-0.1-0.4-0.2-0.4-0.3c-0.1-0.1-0.3-0.3-0.5-0.5
			c-0.2-0.3-0.5-0.6-0.7-1.1l2.1,1.2c0.8,0.5,1.4,0.9,2,1.3C22.5,40.6,22.9,40.8,23.3,41.1z"/>
		<path class="st223" d="M28.8,45.1c-0.4-0.7-0.8-1.3-1-1.6c-0.3-0.4-0.6-0.8-0.9-1.2c-0.4-0.4-0.7-0.8-1.1-1.2
			c-0.3-0.4-0.7-0.7-1.1-1.1c-0.8-0.7-1.6-1.3-2.4-1.9c-0.8-0.5-1.9-1.1-3.1-1.7l0.5-0.6c1,0.3,2,0.7,3,1.3c1,0.5,1.9,1.2,2.7,1.9
			c0.7,0.6,1.4,1.4,2.1,2.3c0.8,1,1.4,2.1,2,3.2L28.8,45.1z"/>
		<path class="st223" d="M25.1,28.6l0.4,1.3l-0.8,0L25,31l-1.1,0l-0.4-1.2l0.8,0l-0.3-1.1L25.1,28.6z M31.6,35.7L31.1,36
			c-0.1,0.1-0.2,0.1-0.3,0.1c-0.2,0-0.5-0.1-0.8-0.3c-0.4-0.3-0.9-0.8-1.4-1.4c0.1,0.4,0.1,0.7,0.1,0.9c0,0.3,0,0.5-0.1,0.5
			c0,0-0.1,0.1-0.2,0.1L28,36.2c-0.2,0.1-0.4,0.1-0.4,0.1c-0.1,0-0.1,0-0.2-0.1c-0.1-0.1-0.2-0.5-0.5-1.1c-0.2-0.7-0.4-1.1-0.4-1.2
			c0-0.1,0-0.4,0-0.6c0-0.2,0.1-0.4,0.1-0.7l0.1-0.3c0,0-0.1-0.1-0.1-0.1c0,0-0.1-0.1-0.1-0.1c-0.1-0.1-0.2-0.3-0.3-0.6
			c-0.1-0.2-0.2-0.6-0.4-1l2.9,3.1c0.5,0.5,0.8,0.8,1,0.9c0.1,0.1,0.3,0.1,0.4,0l0.4-0.4L31.6,35.7z M27.9,33.7l-0.6-0.6
			c0,0.1-0.1,0.2-0.1,0.3c0,0.2-0.1,0.4-0.1,0.5c0,0.1,0,0.2,0,0.3c0,0.1,0,0.2,0.1,0.2c0,0.1,0.1,0.1,0.2,0c0.1,0,0.2-0.1,0.3-0.1
			c0,0,0.1-0.1,0.1-0.2C27.9,34,27.9,33.9,27.9,33.7z"/>
		<path class="st223" d="M33.7,34.4l-2.3,1.5l-1-1.6l1.9-1.2c-0.2-0.2-0.4-0.4-0.6-0.6c-0.1-0.1-0.3-0.2-0.6-0.4l-0.5-1.6
			c0.4,0.2,0.7,0.5,1,0.8c0.3,0.3,0.6,0.8,1.1,1.6L33.7,34.4z M34.2,35.5l0.3,1.5l-0.8-0.1l0.3,1.1l-1-0.2l-0.3-1.4l0.8,0.1
			l-0.3-1.1L34.2,35.5z"/>
		<path class="st223" d="M32.5,26.6l0.2,1.6l-1.3-0.3l-0.2-1.6L32.5,26.6z M35.8,33.3l-2.4,1.3l-0.8-1.7l2-1.1
			c-0.2-0.3-0.3-0.5-0.5-0.6c-0.1-0.1-0.3-0.2-0.5-0.4l-0.4-1.6c0.4,0.2,0.7,0.5,0.9,0.9c0.3,0.3,0.6,0.9,0.9,1.6L35.8,33.3z"/>
		<path class="st223" d="M40.8,31.3c-0.3,0.1-0.6,0.2-0.8,0.2c-0.2,0-0.5,0-0.7-0.1c-0.1,0.2-0.2,0.4-0.3,0.5
			c-0.1,0.1-0.3,0.2-0.5,0.3l-0.7,0.2c-0.2,0.1-0.3,0-0.5-0.1c-0.2-0.1-0.3-0.3-0.5-0.7c0,0.4-0.1,0.7-0.2,1
			c-0.1,0.2-0.3,0.3-0.5,0.4l-0.6,0.2l-0.6-1.8l0.6-0.2c0.3-0.1,0.5-0.3,0.6-0.6c0.1-0.4,0.1-1-0.2-1.7l0.3,0c0,0.1,0.1,0.3,0.1,0.5
			c0.1,0.2,0.1,0.4,0.2,0.6c0.1,0.2,0.2,0.4,0.3,0.5c0.1,0.1,0.3,0.1,0.4,0.1l0.5-0.2c0.3-0.1,0.5-0.3,0.6-0.5
			c0.1-0.2,0.1-0.6-0.1-1.1c0-0.1,0-0.2,0-0.3c0-0.1,0-0.1,0.1-0.3l0.1-0.3c0,0.1,0.1,0.2,0.1,0.3c0.1,0.1,0.1,0.2,0.1,0.3
			c0.1,0.2,0.2,0.6,0.3,1c0.1,0,0.3,0.1,0.4,0.1c0.1,0,0.3,0,0.4,0c0-0.1-0.1-0.3-0.3-0.5c-0.1-0.2-0.2-0.4-0.3-0.4
			c0-0.1-0.1-0.2-0.1-0.3c0,0,0-0.1,0-0.2l0.1-0.9c0.2,0.2,0.3,0.5,0.4,0.7c0.1,0.2,0.2,0.5,0.3,0.8L40.8,31.3z"/>
		<path class="st223" d="M42.8,31l-2.3,0.5l-0.4-1.8l1.8-0.4l-1.5-4.5l-0.3-0.2c-0.1-0.3-0.1-0.5-0.1-0.8c0-0.4,0-0.8,0.1-1.3
			l0.2,0.1c0,0,0,0.1,0,0.2c0,0.1,0.1,0.3,0.3,0.4c0.1,0.1,0.3,0.2,0.6,0.3c0,0.3,0.1,0.6,0.1,0.9c0,0.3,0,0.5,0,0.8l-0.2-0.1
			l1.3,4.1L42.8,31z"/>
		<path class="st223" d="M44.1,28.8c0.1,0.4,0.1,0.8,0.1,1.1c0,0.3-0.1,0.8-0.2,1.4l-0.3-0.1c0-0.6,0-1.1-0.1-1.4
			c0-0.3-0.1-0.7-0.2-1.2c-0.1-0.5-0.2-1.1-0.3-1.6c-0.1-0.5-0.3-1.1-0.5-1.9c-0.1-0.2-0.1-0.4-0.1-0.5c0-0.1,0-0.4,0-0.7
			c0-0.4,0.1-0.8,0.2-1.3l0.6,2.4c0.2,0.9,0.4,1.7,0.5,2.4C44,27.8,44,28.3,44.1,28.8z"/>
		<path class="st223" d="M50.8,30.6l-0.6,0c-0.1,0-0.2,0-0.3-0.1c-0.2-0.1-0.3-0.4-0.4-0.7c-0.1-0.5-0.2-1.2-0.2-2
			c-0.2,0.4-0.4,0.6-0.5,0.8c-0.2,0.2-0.3,0.3-0.4,0.3c-0.1,0-0.1,0-0.2,0l-0.5-0.2c-0.2-0.1-0.4-0.1-0.4-0.2
			c-0.1,0-0.1-0.1-0.1-0.2c0-0.1,0.1-0.5,0.3-1.2c0.2-0.7,0.4-1.1,0.5-1.2c0.1-0.1,0.2-0.3,0.4-0.5c0.1-0.1,0.3-0.3,0.5-0.4l0.2-0.2
			c0-0.1,0-0.1,0-0.2c0-0.1,0-0.1,0-0.2c0-0.2,0-0.4,0.1-0.7c0.1-0.3,0.2-0.6,0.3-1l0.3,4.3c0,0.7,0.1,1.1,0.2,1.4
			c0.1,0.2,0.2,0.2,0.3,0.2l0.6,0L50.8,30.6z M50.1,20.9l-0.5,1.3L49,21.6l-0.4,1.1l-0.8-0.7l0.5-1.2l0.6,0.5l0.4-1L50.1,20.9z
			 M49.2,26.7l-0.1-0.8C49.1,25.9,49,25.9,49,26c-0.2,0.1-0.3,0.2-0.4,0.4c-0.1,0.1-0.1,0.2-0.2,0.2c-0.1,0.1-0.1,0.2-0.1,0.2
			c0,0.1,0,0.1,0.1,0.2c0.1,0,0.2,0.1,0.3,0.1c0.1,0,0.1,0,0.2-0.1C49,26.9,49.1,26.8,49.2,26.7z"/>
		<path class="st223" d="M53.2,31l-2.7-0.4l0.2-1.9l2.3,0.3c0-0.3,0-0.6-0.1-0.8c0-0.1-0.1-0.3-0.2-0.7l0.6-1.6
			c0.2,0.4,0.3,0.8,0.3,1.3c0,0.4,0,1.1-0.1,1.9L53.2,31z M53,32.2l-0.7,1.3l-0.5-0.6l-0.5,1l-0.7-0.8l0.6-1.3l0.6,0.6l0.5-1.1
			L53,32.2z"/>
		<path class="st223" d="M56.1,31.7l-1.9-0.5c-0.2,0-0.3-0.1-0.4-0.3c-0.1-0.2-0.1-0.4,0-0.8c0-0.2,0.1-0.4,0.2-0.6
			c0.1-0.2,0.1-0.5,0.2-0.7l0.2,0c0,0.2,0,0.3,0.1,0.4c0.1,0.1,0.1,0.1,0.3,0.2l1.5,0.3c0.1-0.7,0.1-1.2,0-1.7
			c-0.1-0.4-0.2-0.7-0.4-1l0.8-2c0.3,0.5,0.4,1.1,0.4,1.9c0,0.7-0.1,1.5-0.3,2.6L56.1,31.7z"/>
		<path class="st223" d="M59.6,32.9c-0.3-0.1-0.6-0.3-0.9-0.6c-0.3-0.3-0.5-0.6-0.7-0.9c-0.3,0.3-0.6,0.5-0.8,0.5
			c-0.1,0-0.3,0-0.5-0.1l-0.8-0.3l0.6-1.8l0.8,0.3c0.2,0.1,0.5,0.1,0.6,0.1c0.2-0.1,0.4-0.2,0.6-0.5c0.3-0.5,0.7-0.9,1.1-1.1
			c0.3-0.2,0.6-0.3,0.7-0.3c0.1,0.1,0.2,0.4,0.2,1.2c0,0.8-0.1,1.5-0.4,2.1L59.6,32.9z M59.5,30.7c0-0.1,0-0.3,0-0.6
			c0-0.3-0.1-0.5-0.2-0.5c-0.1,0-0.3,0.1-0.5,0.5c0.1,0.1,0.2,0.2,0.3,0.3c0.2,0.2,0.3,0.3,0.3,0.3C59.4,30.7,59.5,30.7,59.5,30.7z"
			/>
		<path class="st223" d="M63.7,35.1l-4.4-2.4l0.9-1.7l2.7,1.5c0-0.7-0.1-1.2-0.3-1.6c-0.1-0.3-0.3-0.5-0.5-0.7
			c-0.1,0-0.1-0.1-0.2-0.1c-0.1,0-0.2,0-0.3-0.1c0.4-0.4,0.8-0.7,1.1-0.9c0.3-0.1,0.6-0.2,0.8,0c0.2,0.1,0.3,0.2,0.4,0.5
			c0.1,0.2,0.2,0.5,0.2,0.9c0,0.3,0.1,0.8,0.1,1.4c0,0.4,0.1,0.7,0.1,0.9c0,0.2,0.2,0.3,0.3,0.5L63.7,35.1z"/>
		<path class="st223" d="M71.2,31.8c-0.2,0.3-0.4,0.5-0.6,0.7c-0.1,0.1-0.3,0.3-0.5,0.5L70,32.7c-0.3,0.4-0.7,0.8-1,1.2
			c-0.4,0.4-0.8,0.7-1.2,1c-0.1,0.5-0.2,0.7-0.2,0.8c-0.1,0.2-0.1,0.4-0.2,0.5l-0.1,0.2c-0.1,0.1-0.4,0.5-0.9,1.1
			c-0.4,0-0.7-0.1-1-0.2c-0.3-0.1-0.6-0.3-1-0.6l1.2-1.6c0.4,0,0.7,0,0.9-0.1c0.2-0.1,0.5-0.2,0.9-0.4c0.1-0.7,0.2-1.3,0.2-1.6
			c0-0.3,0-0.6,0.1-0.9c-0.1,0.1-0.2,0.2-0.3,0.2c0,0-0.1,0-0.1,0c-0.1,0-0.1-0.2-0.2-0.5c0-0.2-0.1-0.4-0.1-0.6
			c0-0.2,0.1-0.4,0.3-0.7c0.2-0.3,0.4-0.7,0.7-1.2c0.1-0.2,0.3-0.3,0.3-0.4c0.1-0.1,0.1-0.1,0.2,0c0.1,0.1,0.1,0.4,0.1,1
			c0,0.5-0.1,1.1-0.1,1.6c0,0.4-0.1,0.7-0.2,1.1c-0.1,0.3-0.2,0.8-0.3,1.6c0.3-0.2,0.7-0.6,1.1-1c0.2-0.3,0.5-0.6,0.8-1
			c0-0.1,0-0.2,0-0.3c0-0.1,0.1-0.2,0.1-0.3c0.2-0.2,0.3-0.4,0.5-0.6c0.2-0.2,0.4-0.4,0.7-0.6l0.1,0.2c-0.2,0.2-0.3,0.4-0.2,0.5
			C70.9,31.1,71,31.4,71.2,31.8z M66.9,35.9l0.1-0.5c-0.2,0.1-0.4,0.2-0.5,0.2c-0.1,0-0.3,0.1-0.5,0.1c0.2,0.1,0.3,0.2,0.5,0.2
			C66.5,35.9,66.7,35.9,66.9,35.9z"/>
		<path class="st223" d="M69.5,37.4c-0.3,0.3-0.5,0.6-0.8,0.8c-0.3,0.2-0.6,0.5-1.2,0.8l-0.1-0.3c0.4-0.4,0.8-0.7,1-1
			c0.2-0.2,0.4-0.5,0.8-0.9c0.3-0.4,0.7-0.8,1-1.3c0.3-0.4,0.7-0.9,1.1-1.6c0.1-0.2,0.2-0.4,0.3-0.4c0.1-0.1,0.3-0.3,0.6-0.4
			c0.3-0.2,0.7-0.4,1.1-0.7l-1.4,2c-0.5,0.8-1,1.4-1.4,1.9C70.2,36.7,69.9,37.1,69.5,37.4z"/>
		<path class="st223" d="M72.4,44l-0.3-0.5C72,43.4,72,43.3,72,43.2c0-0.2,0.1-0.5,0.3-0.8c0.3-0.4,0.7-0.9,1.4-1.5
			c-0.4,0.1-0.7,0.1-0.9,0.1c-0.3,0-0.4,0-0.5-0.1c0,0-0.1-0.1-0.1-0.2l-0.2-0.5c-0.1-0.2-0.1-0.4-0.1-0.4c0-0.1,0-0.1,0.1-0.2
			c0.1-0.1,0.5-0.2,1.1-0.5c0.6-0.2,1-0.4,1.2-0.4c0.1,0,0.3,0,0.6,0c0.2,0,0.4,0.1,0.6,0.1l0.3,0.1c0,0,0.1-0.1,0.1-0.1
			c0,0,0.1-0.1,0.1-0.1c0.1-0.1,0.3-0.2,0.6-0.3c0.2-0.1,0.5-0.2,0.9-0.4l-3.1,3c-0.5,0.5-0.8,0.8-0.9,1c-0.1,0.2-0.1,0.3,0,0.4
			l0.3,0.5L72.4,44z M74.4,40.2l0.6-0.6c-0.1,0-0.2-0.1-0.3-0.1c-0.2,0-0.4-0.1-0.5-0.1c-0.1,0-0.2,0-0.3,0c-0.1,0-0.2,0-0.2,0.1
			c0,0-0.1,0.1,0,0.2c0,0.1,0.1,0.2,0.1,0.3c0,0.1,0.1,0.1,0.2,0.1C74.1,40.2,74.2,40.2,74.4,40.2z M79.3,37.3L78,37.7l0.1-0.8
			L77,37.2l0-1.1l1.2-0.4v0.8l1-0.3L79.3,37.3z"/>
		<path class="st223" d="M74,46.8l-0.3-0.6c-0.1-0.2-0.2-0.4-0.1-0.7c0-0.2,0.2-0.5,0.4-0.7c-0.4,0-0.7-0.1-1-0.3
			c-0.2-0.1-0.3-0.3-0.5-0.5l-0.2-0.4l1.6-1l0.2,0.4c0.1,0.2,0.2,0.4,0.3,0.4c0.1,0.1,0.2,0.1,0.4,0.2c0.2-0.2,0.3-0.4,0.4-0.5
			c0.1-0.1,0.1-0.3,0.1-0.3c0,0,0,0-0.1-0.1c0,0-0.1,0-0.2,0l-0.1-0.2c0.7-0.4,1.2-0.6,1.6-0.7c0.4,0,0.7,0.1,0.9,0.5
			c0.2,0.4,0.3,0.7,0.2,1c-0.1,0.3-0.3,0.6-0.7,0.8c-0.2,0.1-0.4,0.2-0.6,0.3c-0.2,0.1-0.5,0.1-0.9,0.1c-0.1,0.1-0.1,0.2-0.1,0.3
			c0,0.1,0,0.2,0,0.2l0.3,0.6L74,46.8z"/>
		<path class="st223" d="M75.5,50.2c-0.1-0.3-0.2-0.7-0.2-1.1c0-0.4,0-0.8,0.1-1.1c-0.4,0-0.7-0.1-0.9-0.3c-0.1-0.1-0.2-0.2-0.3-0.4
			l-0.3-0.8l1.7-0.8l0.3,0.8c0.1,0.2,0.2,0.4,0.4,0.5c0.2,0.1,0.4,0.2,0.8,0.1c0.6-0.1,1.1-0.1,1.5,0c0.4,0.1,0.6,0.2,0.7,0.3
			c0.1,0.1-0.2,0.5-0.7,1c-0.6,0.5-1.1,0.9-1.7,1.2L75.5,50.2z M77,48.6c0.1,0,0.2-0.2,0.4-0.4c0.2-0.2,0.3-0.4,0.2-0.5
			c0-0.1-0.3-0.1-0.7,0c0,0.2,0,0.3,0,0.4c0,0.3,0,0.4,0,0.5C76.9,48.6,77,48.7,77,48.6z"/>
		<path class="st223" d="M76.1,52.3l-0.2-0.6c-0.1-0.3,0-0.6,0.4-0.9c0.4-0.3,1.1-0.7,2.2-1l1.8-0.6c0.4-0.1,0.7-0.3,0.9-0.4
			c0.1-0.1,0.2-0.2,0.4-0.4l1.7-0.1c-0.3,0.3-0.6,0.5-0.9,0.7c-0.4,0.2-0.8,0.4-1.4,0.6l-1.2,0.4c-0.9,0.3-1.5,0.6-1.8,0.7
			c-0.3,0.2-0.4,0.3-0.3,0.4l0.2,0.6L76.1,52.3z"/>
		<path class="st223" d="M75.4,55.6l-1.6-0.2l0.6-1.2l1.6,0.2L75.4,55.6z M77.1,56.9l-1-5l1.8-0.4l0.6,3.1c0.5-0.5,0.8-0.9,1-1.2
			c0.2-0.3,0.2-0.6,0.2-0.9c0-0.1,0-0.1-0.1-0.2c0-0.1-0.1-0.1-0.1-0.3c0.6,0,1,0.1,1.3,0.3c0.3,0.1,0.5,0.3,0.5,0.6
			c0,0.2,0,0.4-0.1,0.6c-0.1,0.2-0.3,0.5-0.6,0.8c-0.2,0.2-0.5,0.6-1,1c-0.3,0.3-0.5,0.5-0.6,0.7c-0.1,0.1-0.1,0.3-0.2,0.6
			L77.1,56.9z"/>
		<path class="st223" d="M77.3,59.1L77,56.6l1.8-0.2l0.2,1.9l4.5-1l0.3-0.3c0.3,0,0.5,0,0.8,0c0.3,0,0.8,0.1,1.2,0.2l-0.1,0.2
			c0,0-0.1,0-0.2,0c-0.1,0-0.3,0.1-0.4,0.2c-0.1,0.1-0.2,0.3-0.4,0.6c-0.3,0-0.6,0-0.8,0c-0.3,0-0.5-0.1-0.7-0.1l0.1-0.2l-4.1,0.9
			L77.3,59.1z"/>
		<path class="st223" d="M79.2,60.7c-0.4,0-0.8,0-1.1-0.1c-0.3-0.1-0.8-0.2-1.3-0.3L77,60c0.6,0.1,1,0.1,1.4,0.1
			c0.3,0,0.7,0,1.2-0.1c0.5,0,1-0.1,1.6-0.1c0.5-0.1,1.1-0.1,1.8-0.3c0.2,0,0.4-0.1,0.5-0.1c0.1,0,0.4,0,0.7,0.1
			c0.3,0.1,0.7,0.2,1.2,0.4L83,60.3c-0.9,0.1-1.7,0.2-2.3,0.3C80.2,60.6,79.7,60.6,79.2,60.7z"/>
	</g>
</g>
</svg>
