<?xml version="1.0" standalone="no"?>
<!DOCTYPE svg PUBLIC "-//W3C//DTD SVG 20010904//EN"
 "http://www.w3.org/TR/2001/REC-SVG-20010904/DTD/svg10.dtd">
<svg version="1.0" xmlns="http://www.w3.org/2000/svg"
 width="1280.000000pt" height="1280.000000pt" viewBox="0 0 1280.000000 1280.000000"
 preserveAspectRatio="xMidYMid meet">
<metadata>
Created by potrace 1.15, written by Peter Selinger 2001-2017
</metadata>
<g transform="translate(0.000000,1280.000000) scale(0.100000,-0.100000)"
fill="#000000" stroke="none">
<path d="M4046 12785 c-22 -22 -20 -52 4 -65 15 -8 20 -21 20 -50 0 -26 -4
-40 -13 -40 -19 0 -61 49 -77 88 -13 35 -48 44 -69 18 -27 -32 24 -90 104
-117 64 -21 63 -29 -1 -29 -131 0 -231 32 -219 71 10 31 -41 25 -76 -10 -50
-51 -33 -147 32 -170 39 -13 49 -8 49 29 0 20 7 33 23 41 28 16 252 26 243 11
-3 -5 -18 -13 -33 -16 -86 -21 -152 -80 -137 -120 9 -23 51 -20 64 5 19 34 81
99 96 99 31 0 11 -88 -22 -96 -13 -3 -24 -12 -24 -19 0 -20 49 -55 76 -55 29
0 64 33 64 60 0 13 -7 20 -20 20 -11 0 -20 1 -20 3 0 1 -4 16 -9 33 -22 77 43
60 87 -22 21 -38 32 -49 52 -49 21 0 26 5 28 32 3 27 -3 36 -36 60 -22 16 -58
35 -81 43 -22 7 -41 18 -41 23 0 12 170 0 219 -16 30 -10 37 -17 39 -44 2 -23
8 -33 20 -33 42 0 92 63 92 114 0 32 -46 83 -82 92 -25 5 -28 3 -28 -19 0 -37
-23 -55 -82 -62 -72 -9 -200 -2 -173 8 82 34 120 55 136 76 32 40 21 71 -27
71 -7 0 -25 -22 -39 -50 -38 -74 -85 -94 -85 -36 0 34 16 60 42 68 10 4 10 12
3 34 -9 24 -17 30 -46 32 -24 2 -42 -3 -53 -13z"/>
<path d="M8660 12781 c-13 -24 -13 -51 -1 -51 20 0 41 -33 41 -66 0 -58 -47
-38 -85 36 -14 28 -32 50 -39 50 -48 0 -59 -31 -27 -71 16 -21 54 -42 136 -76
27 -10 -101 -17 -173 -8 -59 7 -82 25 -82 62 0 22 -3 24 -27 19 -16 -4 -41
-21 -57 -38 -24 -27 -27 -37 -23 -72 4 -29 15 -49 37 -68 42 -39 68 -37 72 5
2 27 9 34 39 44 49 16 219 28 219 16 0 -5 -19 -16 -41 -23 -23 -8 -59 -27 -81
-43 -33 -24 -39 -33 -36 -60 2 -27 7 -32 28 -32 20 0 31 11 52 49 44 82 109
99 87 22 -5 -17 -9 -32 -9 -33 0 -2 -9 -3 -20 -3 -13 0 -20 -7 -20 -20 0 -27
35 -60 64 -60 27 0 76 35 76 55 0 7 -11 16 -24 19 -24 6 -36 30 -36 74 0 12 4
22 9 22 16 0 69 -50 91 -85 38 -61 98 -38 65 25 -14 27 -73 62 -128 76 -15 3
-30 11 -33 16 -9 15 215 5 244 -11 15 -8 22 -21 22 -41 0 -37 10 -42 49 -29
65 23 82 119 32 170 -35 35 -86 41 -76 10 12 -39 -88 -71 -219 -71 -64 0 -65
8 -1 29 80 27 131 85 104 117 -21 26 -56 17 -69 -18 -16 -39 -58 -88 -77 -88
-9 0 -13 14 -13 40 0 29 5 42 20 50 24 13 26 43 4 64 -22 23 -81 21 -94 -3z"/>
<path d="M315 12708 c-15 -49 -46 -60 -124 -42 -35 8 -65 13 -67 11 -3 -2 2
-33 10 -68 18 -77 8 -109 -42 -124 -35 -10 -42 -34 -16 -59 21 -22 57 -20 79
4 21 23 26 96 11 169 l-8 43 43 -8 c73 -15 146 -10 169 11 25 23 26 57 2 78
-28 26 -47 20 -57 -15z"/>
<path d="M2753 12730 c-25 -10 -43 -39 -43 -68 0 -18 -6 -19 -62 -15 -47 4
-90 -1 -168 -21 l-105 -26 -606 0 c-622 0 -659 2 -792 42 -51 15 -81 19 -121
14 -53 -7 -54 -7 -64 23 -13 36 -42 53 -85 49 -26 -2 -32 -7 -33 -28 -2 -54
-5 -60 -27 -75 -18 -11 -75 -18 -227 -25 -112 -6 -205 -12 -207 -13 -1 -2 -7
-95 -12 -206 -8 -155 -14 -209 -26 -227 -15 -23 -21 -26 -75 -28 -21 -1 -26
-7 -28 -33 -4 -43 13 -72 49 -85 30 -10 30 -11 23 -64 -5 -40 -1 -70 14 -121
41 -136 43 -174 40 -828 -3 -592 -4 -633 -22 -675 -14 -32 -19 -71 -20 -137
-1 -88 -2 -93 -22 -93 -38 0 -66 -32 -68 -76 -1 -38 0 -39 39 -44 63 -8 81
-55 94 -248 6 -84 11 -198 12 -255 1 -56 5 -113 9 -127 5 -14 9 74 9 205 2
249 13 371 36 394 8 8 34 17 57 20 41 6 43 8 41 40 -2 43 -33 85 -64 89 -23 3
-24 5 -21 80 3 59 -2 94 -19 152 -23 74 -23 80 -27 714 l-3 638 27 92 c14 50
28 119 29 154 2 59 5 65 33 82 69 42 83 120 21 120 -80 0 -97 45 -106 278 l-6
175 175 -6 c233 -9 278 -26 278 -106 0 -62 78 -48 120 21 17 28 23 31 82 33
35 1 104 15 154 29 l92 27 638 -3 c634 -4 640 -4 714 -27 58 -17 93 -22 152
-19 75 3 77 2 80 -21 4 -31 46 -62 89 -64 32 -2 34 0 40 41 3 23 12 49 20 57
23 23 145 34 394 36 131 0 219 4 205 9 -14 4 -74 8 -134 9 -209 2 -397 21
-446 44 -40 20 -46 26 -50 62 -4 34 -9 40 -30 42 -14 1 -35 -2 -47 -7z m-1975
-122 c19 -19 14 -46 -9 -59 -18 -9 -25 -7 -41 9 -16 16 -18 23 -9 41 13 23 40
28 59 9z m2032 -3 c23 -28 -9 -72 -45 -59 -36 14 -24 74 15 74 10 0 23 -7 30
-15z m-2566 -534 c33 -36 -18 -83 -52 -49 -17 17 -15 45 6 57 24 14 26 14 46
-8z m0 -2027 c9 -8 16 -19 16 -24 0 -13 -30 -40 -44 -40 -31 0 -47 45 -24 68
16 16 33 15 52 -4z"/>
<path d="M4975 12708 c-16 -52 -46 -61 -135 -38 -41 10 -88 23 -103 29 -41 16
-143 14 -176 -4 -63 -32 -76 -147 -23 -198 57 -54 109 -59 237 -22 125 37 167
41 188 20 9 -9 17 -27 17 -41 0 -19 5 -24 24 -24 27 0 56 24 56 45 0 8 -10 26
-23 40 -20 24 -30 27 -82 27 -40 0 -84 -8 -131 -26 -78 -29 -116 -34 -96 -14
17 17 15 45 -3 52 -9 3 -38 -6 -64 -19 -30 -16 -55 -23 -67 -19 -59 21 -74 87
-28 123 35 27 51 26 97 -5 48 -32 73 -28 70 10 -2 32 -13 32 117 -4 115 -32
200 -13 200 45 0 24 -29 55 -51 55 -8 0 -19 -15 -24 -32z"/>
<path d="M7767 12722 c-22 -24 -21 -55 1 -75 31 -28 99 -31 182 -7 130 36 119
36 117 4 -3 -38 22 -42 70 -10 46 31 62 32 97 5 46 -36 31 -102 -28 -123 -12
-4 -37 3 -67 19 -26 13 -55 22 -64 19 -18 -7 -20 -35 -3 -52 20 -20 -18 -15
-96 14 -47 18 -91 26 -131 26 -52 0 -62 -3 -82 -27 -13 -14 -23 -32 -23 -40 0
-21 29 -45 56 -45 19 0 24 5 24 24 0 14 8 32 17 41 21 21 63 17 188 -20 128
-37 180 -32 237 22 53 51 40 166 -23 198 -33 18 -135 20 -176 4 -15 -6 -62
-19 -103 -29 -89 -23 -119 -14 -135 38 -10 36 -33 42 -58 14z"/>
<path d="M9976 12729 c-3 -8 -6 -27 -8 -44 -5 -51 -64 -71 -239 -84 -81 -6
-196 -11 -255 -12 -60 -1 -120 -5 -134 -9 -14 -5 74 -9 205 -9 249 -2 371 -13
394 -36 8 -8 17 -34 20 -57 6 -41 8 -43 40 -41 43 2 85 33 89 64 3 23 5 24 80
21 59 -3 94 2 152 19 74 23 80 23 714 27 l638 3 92 -27 c50 -14 119 -28 154
-29 59 -2 65 -5 82 -33 42 -69 120 -83 120 -21 0 80 45 97 278 106 l175 6 -6
-175 c-9 -233 -26 -278 -106 -278 -62 0 -48 -78 21 -120 28 -17 31 -23 33 -82
1 -35 15 -104 29 -154 l27 -92 -3 -638 c-4 -634 -4 -640 -27 -714 -17 -58 -22
-93 -19 -152 3 -75 2 -77 -21 -80 -31 -4 -62 -46 -64 -89 -2 -32 0 -34 41 -40
23 -3 49 -12 57 -20 23 -23 34 -145 36 -394 1 -224 15 -276 18 -66 2 207 21
392 44 441 20 40 26 46 62 50 39 5 40 6 39 44 -2 44 -30 76 -68 76 -20 0 -21
5 -22 93 -1 66 -6 105 -20 137 -18 42 -19 83 -22 675 -3 654 -1 692 40 828 15
51 19 81 14 121 -7 53 -7 54 23 64 36 13 53 42 49 85 -2 26 -7 32 -28 33 -54
2 -60 5 -75 28 -12 18 -18 72 -26 227 -5 111 -11 204 -12 206 -2 1 -95 7 -206
12 -155 8 -209 14 -227 26 -23 15 -26 21 -28 75 -1 21 -7 26 -33 28 -43 4 -72
-13 -85 -49 -10 -30 -11 -30 -64 -23 -40 5 -70 1 -121 -14 -133 -40 -170 -42
-792 -42 l-606 0 -105 26 c-78 20 -121 25 -167 21 -60 -4 -63 -4 -63 18 0 13
-8 32 -17 44 -22 26 -90 40 -97 20z m74 -124 c23 -28 -9 -72 -45 -59 -36 14
-24 74 15 74 10 0 23 -7 30 -15z m2031 -6 c9 -18 7 -25 -9 -41 -16 -16 -23
-18 -41 -9 -23 13 -28 40 -9 59 19 19 46 14 59 -9z m520 -519 c21 -12 25 -40
7 -58 -18 -18 -46 -14 -58 9 -9 16 -8 25 6 40 20 22 20 22 45 9z m13 -2042
c13 -21 -2 -51 -26 -56 -16 -3 -48 23 -48 38 0 15 32 41 48 38 8 -2 20 -11 26
-20z"/>
<path d="M12427 12722 c-23 -25 -21 -55 3 -77 23 -21 96 -26 169 -11 l43 8 -8
-43 c-15 -73 -10 -146 11 -169 23 -25 57 -26 78 -2 26 28 20 47 -15 57 -50 15
-60 47 -42 124 8 35 13 66 10 68 -2 2 -32 -3 -67 -11 -78 -18 -109 -7 -124 42
-10 36 -33 42 -58 14z"/>
<path d="M3120 12715 c-10 -12 -10 -21 0 -45 23 -55 122 -62 249 -19 66 23 82
24 75 4 -4 -8 -1 -22 6 -30 10 -12 18 -11 55 7 50 25 87 19 111 -17 21 -32 7
-75 -29 -93 -23 -11 -33 -10 -71 7 -38 16 -47 17 -56 6 -7 -8 -9 -23 -5 -35 6
-20 5 -20 -27 -7 -54 22 -163 48 -211 49 -58 1 -87 -18 -87 -58 0 -60 70 -77
80 -19 9 50 39 53 182 16 106 -27 131 -30 169 -22 149 33 116 251 -37 251 -23
0 -73 -10 -110 -22 -38 -11 -98 -21 -134 -22 -64 -1 -65 0 -80 31 -11 25 -22
33 -41 33 -15 0 -32 -7 -39 -15z"/>
<path d="M5339 12728 c-1 -2 -3 -21 -4 -42 -4 -76 -23 -81 -412 -92 -122 -4
-220 -10 -218 -14 2 -4 123 -10 267 -12 329 -7 368 -18 368 -107 0 -62 78 -48
120 21 17 28 23 31 82 33 35 1 103 14 153 29 l89 26 616 0 616 0 89 -26 c50
-15 118 -28 153 -29 59 -2 65 -5 82 -33 42 -69 120 -83 120 -21 0 45 15 65 62
84 36 15 87 18 306 23 144 2 265 8 267 12 2 4 -96 10 -218 14 -389 11 -409 16
-411 92 -1 36 -3 39 -33 42 -43 4 -72 -13 -85 -49 -10 -30 -11 -30 -64 -23
-40 5 -70 1 -121 -14 -132 -40 -172 -42 -763 -42 -591 0 -631 2 -763 42 -51
15 -81 19 -122 13 -52 -6 -55 -5 -61 20 -8 33 -40 55 -81 55 -18 0 -34 -1 -34
-2z m99 -120 c18 -18 14 -46 -7 -58 -38 -20 -71 13 -51 51 12 21 40 25 58 7z
m1983 -9 c9 -18 7 -25 -9 -41 -16 -16 -23 -18 -41 -9 -23 13 -28 40 -9 59 19
19 46 14 59 -9z"/>
<path d="M9600 12697 c-15 -31 -16 -32 -80 -31 -36 1 -96 11 -134 22 -86 27
-141 28 -184 2 -64 -39 -78 -139 -29 -196 40 -46 93 -49 235 -13 143 37 173
34 182 -16 10 -58 80 -41 80 19 0 40 -29 59 -87 58 -48 -1 -157 -27 -211 -49
-32 -13 -33 -13 -27 7 4 12 2 27 -5 35 -9 11 -18 10 -56 -6 -38 -17 -48 -18
-71 -7 -36 18 -50 61 -29 93 24 36 61 42 111 17 37 -18 45 -19 55 -7 7 8 10
22 6 30 -7 20 9 19 75 -4 122 -42 225 -36 247 15 16 35 0 64 -36 64 -21 0 -31
-8 -42 -33z"/>
<path d="M4596 12618 c-20 -11 -21 -51 -1 -68 16 -14 51 -5 58 14 15 39 -21
74 -57 54z"/>
<path d="M8169 12623 c-18 -4 -31 -37 -22 -59 7 -19 42 -28 58 -14 34 28 7 83
-36 73z"/>
<path d="M3521 12606 c-28 -33 22 -83 55 -55 8 7 14 24 12 38 -2 20 -9 27 -29
29 -14 2 -31 -4 -38 -12z"/>
<path d="M9217 12613 c-12 -12 -7 -50 8 -63 32 -27 82 23 55 55 -13 15 -51 20
-63 8z"/>
<path d="M278 12542 c-18 -4 -21 -14 -19 -67 2 -31 40 -75 66 -75 17 0 75 57
75 74 0 43 -66 79 -122 68z"/>
<path d="M12473 12542 c-32 -3 -73 -41 -73 -68 0 -17 58 -74 75 -74 26 0 63
44 68 81 8 54 -8 67 -70 61z"/>
<path d="M82 9678 c-24 -24 -14 -62 21 -78 31 -15 32 -16 31 -80 -1 -36 -11
-96 -22 -134 -27 -86 -28 -141 -2 -184 39 -64 139 -78 196 -29 46 40 49 93 13
235 -37 143 -34 173 16 182 33 6 46 40 25 66 -21 24 -75 18 -90 -10 -18 -35
-8 -145 23 -234 24 -70 24 -73 6 -67 -11 4 -26 2 -33 -5 -12 -9 -10 -19 7 -60
19 -45 19 -50 4 -73 -21 -33 -62 -42 -93 -22 -35 23 -40 60 -16 110 22 45 16
65 -20 65 -22 0 -22 4 1 71 42 122 36 225 -14 247 -32 15 -38 15 -53 0z"/>
<path d="M12662 9678 c-46 -23 -51 -129 -11 -247 23 -67 23 -71 1 -71 -36 0
-42 -20 -20 -65 24 -50 19 -87 -16 -110 -31 -20 -72 -11 -93 22 -15 23 -15 28
4 73 17 41 19 51 7 60 -7 7 -22 9 -33 5 -20 -6 -19 -4 5 67 31 91 42 199 24
233 -15 29 -69 35 -90 11 -21 -26 -8 -60 25 -66 50 -9 53 -39 16 -182 -27
-106 -30 -131 -22 -169 33 -149 251 -116 251 37 0 23 -10 73 -22 110 -11 38
-21 98 -22 134 -1 64 0 65 31 80 35 16 45 54 21 78 -14 14 -25 14 -56 0z"/>
<path d="M190 9276 c-19 -23 -8 -61 18 -64 44 -7 67 32 36 62 -19 20 -38 20
-54 2z"/>
<path d="M12556 9274 c-20 -19 -20 -38 -2 -54 23 -19 61 -8 64 18 7 44 -32 67
-62 36z"/>
<path d="M149 9081 c-35 -35 -41 -86 -10 -76 39 12 71 -88 71 -219 0 -64 -8
-65 -29 -1 -27 81 -85 131 -118 104 -23 -20 -11 -53 26 -71 41 -21 81 -57 81
-75 0 -9 -13 -13 -40 -13 -29 0 -42 5 -50 20 -25 46 -83 10 -78 -49 2 -29 8
-37 31 -45 27 -10 39 -4 50 27 4 14 87 21 87 8 0 -27 -23 -52 -71 -77 -39 -19
-50 -30 -47 -46 2 -12 10 -26 19 -31 35 -22 78 28 126 148 10 27 17 -102 8
-173 -7 -59 -25 -82 -62 -82 -22 0 -24 -3 -19 -27 9 -37 60 -83 92 -83 51 0
114 50 114 92 0 12 -10 18 -32 20 -28 2 -35 9 -45 39 -16 49 -28 219 -16 219
5 0 16 -19 23 -41 8 -23 27 -59 43 -81 24 -33 33 -39 60 -36 27 2 32 7 32 28
0 20 -10 31 -49 51 -61 34 -93 80 -61 93 25 9 75 -14 75 -35 0 -25 34 -25 60
1 26 26 25 60 -1 94 -26 32 -47 33 -55 2 -3 -13 -15 -27 -27 -30 -37 -10 -67
-7 -67 7 0 17 42 60 84 86 62 39 40 99 -24 66 -27 -14 -62 -73 -76 -128 -3
-15 -11 -30 -16 -33 -15 -9 -5 215 11 244 8 15 21 22 41 22 37 0 42 10 29 49
-23 65 -119 82 -170 32z"/>
<path d="M12519 9095 c-27 -14 -54 -69 -43 -86 3 -5 18 -9 34 -9 20 0 33 -7
41 -22 16 -29 26 -253 11 -244 -5 3 -13 18 -16 33 -21 86 -80 152 -120 137
-23 -9 -20 -51 5 -64 34 -19 99 -81 99 -96 0 -31 -88 -11 -96 22 -8 31 -28 30
-53 -2 -26 -34 -27 -68 -1 -94 26 -26 60 -26 60 -1 0 21 50 44 75 35 18 -7 18
-7 4 -37 -6 -13 -34 -37 -62 -53 -41 -23 -52 -35 -52 -54 0 -21 6 -26 32 -28
27 -3 36 3 60 36 16 22 35 58 43 81 7 22 18 41 23 41 12 0 0 -170 -16 -219
-10 -30 -17 -37 -44 -39 -23 -2 -33 -8 -33 -20 0 -42 63 -92 114 -92 32 0 83
46 92 83 5 24 3 27 -19 27 -37 0 -55 23 -62 82 -9 71 -2 200 8 173 48 -120 91
-170 126 -148 9 5 17 19 19 31 3 16 -8 27 -47 46 -80 41 -98 92 -30 83 38 -5
53 -15 62 -42 3 -7 13 -7 33 0 24 9 30 17 32 46 5 59 -53 95 -78 49 -8 -15
-21 -20 -50 -20 -27 0 -40 4 -40 13 0 18 40 54 81 75 37 18 49 51 26 71 -33
27 -91 -23 -118 -104 -21 -64 -29 -63 -29 1 0 131 32 231 71 219 31 -10 25 41
-10 76 -33 33 -87 39 -132 14z"/>
<path d="M155 8282 c-23 -11 -46 -31 -53 -46 -20 -44 -14 -134 14 -221 34
-107 35 -152 5 -176 -13 -11 -32 -19 -42 -19 -25 0 -25 -32 -1 -53 24 -22 55
-21 75 1 28 31 31 99 7 182 -36 130 -36 119 -4 117 38 -3 42 22 10 70 -31 46
-32 62 -5 97 36 46 102 31 123 -28 4 -12 -3 -37 -19 -67 -13 -26 -22 -55 -19
-64 7 -18 35 -20 52 -3 20 20 15 -17 -14 -96 -17 -46 -26 -92 -26 -131 0 -52
3 -62 27 -82 32 -28 47 -29 69 -4 25 28 16 53 -21 63 -53 14 -54 45 -7 207 27
95 30 138 10 184 -32 75 -107 103 -181 69z"/>
<path d="M12545 8293 c-49 -12 -95 -82 -95 -147 0 -18 11 -71 24 -117 47 -162
46 -193 -7 -207 -37 -10 -46 -35 -21 -63 22 -25 37 -24 69 4 24 20 27 30 27
82 0 39 -9 85 -26 131 -29 79 -34 116 -14 96 17 -17 45 -15 52 3 3 9 -6 38
-19 64 -16 30 -23 55 -19 67 21 59 87 74 123 28 27 -35 26 -51 -5 -97 -32 -48
-28 -73 10 -70 32 2 32 13 -4 -117 -32 -115 -13 -200 45 -200 25 0 55 29 55
53 0 10 -8 17 -19 17 -10 0 -29 8 -42 19 -30 24 -29 69 5 176 29 91 34 181 11
224 -22 43 -92 68 -150 54z"/>
<path d="M187 8213 c-4 -3 -7 -19 -7 -34 0 -28 27 -43 56 -32 19 7 28 42 14
58 -13 15 -51 20 -63 8z"/>
<path d="M12551 8206 c-15 -17 -7 -52 13 -59 8 -3 24 -3 36 0 17 4 20 12 18
37 -2 25 -8 32 -29 34 -14 2 -31 -4 -38 -12z"/>
<path d="M206 7867 c-11 -379 -15 -399 -92 -401 -36 -1 -39 -3 -42 -33 -4 -43
13 -72 49 -85 30 -10 30 -11 23 -64 -5 -40 -1 -70 14 -121 40 -132 42 -172 42
-763 0 -591 -2 -631 -42 -763 -15 -51 -19 -81 -14 -121 7 -53 7 -54 -23 -64
-36 -13 -53 -42 -49 -85 3 -30 6 -32 42 -33 77 -2 81 -22 92 -401 4 -128 10
-230 14 -228 4 2 10 123 12 267 7 329 18 368 107 368 62 0 48 78 -21 120 -28
17 -31 23 -33 82 -1 35 -14 103 -29 153 l-26 89 0 616 0 616 26 89 c15 50 28
118 29 153 2 59 5 65 33 82 69 42 83 120 21 120 -45 0 -65 15 -84 62 -15 36
-18 87 -23 306 -2 144 -8 265 -12 267 -4 2 -10 -100 -14 -228z m38 -456 c33
-36 -18 -83 -52 -49 -17 17 -15 45 6 57 24 14 26 14 46 -8z m7 -1982 c9 -18 7
-25 -9 -41 -16 -16 -23 -18 -41 -9 -23 13 -28 40 -9 59 19 19 46 14 59 -9z"/>
<path d="M12578 8090 c-4 -8 -9 -130 -11 -270 -6 -320 -18 -360 -106 -360 -62
0 -48 -78 21 -120 28 -17 31 -23 33 -82 1 -35 14 -103 29 -153 l26 -89 0 -616
0 -616 -26 -89 c-15 -50 -28 -118 -29 -153 -2 -59 -5 -65 -33 -82 -69 -42 -83
-120 -21 -120 45 0 65 -15 84 -62 15 -36 18 -87 23 -306 2 -144 8 -265 12
-267 4 -2 10 100 14 228 11 379 15 399 92 401 36 1 39 3 42 33 4 43 -13 72
-49 85 -30 10 -30 11 -23 64 5 40 1 70 -14 121 -40 132 -42 172 -42 763 0 591
2 631 42 763 15 51 19 81 14 121 -7 53 -7 54 23 64 36 13 53 42 49 85 -3 30
-6 32 -42 33 -77 2 -80 15 -94 424 -5 118 -11 208 -14 200z m23 -670 c21 -12
25 -40 7 -58 -18 -18 -46 -14 -58 9 -9 16 -8 25 6 40 20 22 20 22 45 9z m7
-1982 c19 -19 14 -46 -9 -59 -18 -9 -25 -7 -41 9 -16 16 -18 23 -9 41 13 23
40 28 59 9z"/>
<path d="M285 5037 c-24 -20 -27 -30 -27 -82 0 -39 9 -85 26 -131 29 -79 34
-116 14 -96 -17 17 -45 15 -52 -3 -3 -9 6 -38 19 -64 16 -30 23 -55 19 -67
-21 -59 -87 -74 -123 -28 -27 35 -26 51 5 97 32 48 28 73 -10 70 -32 -2 -32
-13 4 117 32 115 13 200 -45 200 -25 0 -55 -29 -55 -53 0 -10 8 -17 19 -17 10
0 29 -8 42 -19 30 -24 29 -69 -5 -176 -29 -91 -34 -181 -11 -224 32 -63 147
-76 198 -23 54 56 59 109 23 233 -47 162 -46 193 7 207 37 10 46 35 21 63 -22
25 -37 24 -69 -4z"/>
<path d="M12446 5041 c-25 -28 -16 -53 21 -63 53 -14 54 -45 7 -207 -36 -124
-31 -177 23 -233 51 -53 166 -40 198 23 23 43 18 133 -11 224 -34 107 -35 152
-5 176 13 11 32 19 42 19 25 0 25 32 1 53 -24 22 -55 21 -75 -1 -28 -31 -31
-99 -7 -182 36 -130 36 -119 4 -117 -38 3 -42 -22 -10 -70 31 -46 32 -62 5
-97 -36 -46 -102 -31 -123 28 -4 12 3 37 19 67 13 26 22 55 19 64 -7 18 -35
20 -52 3 -20 -20 -15 17 14 96 17 46 26 92 26 131 0 52 -3 62 -27 82 -32 28
-47 29 -69 4z"/>
<path d="M197 4653 c-29 -7 -19 -67 11 -71 44 -7 67 32 36 62 -16 17 -17 17
-47 9z"/>
<path d="M12556 4645 c-31 -31 -9 -70 36 -63 18 2 24 10 26 36 2 17 -1 32 -7
32 -5 0 -16 3 -24 6 -8 3 -22 -2 -31 -11z"/>
<path d="M161 4453 c-17 -16 -33 -40 -37 -55 -5 -25 -3 -28 19 -28 37 0 55
-23 62 -82 9 -71 2 -200 -8 -173 -48 120 -91 170 -126 148 -9 -5 -17 -19 -19
-31 -3 -16 8 -27 47 -46 80 -41 98 -92 30 -83 -38 5 -53 15 -62 42 -3 7 -13 7
-33 0 -24 -9 -30 -17 -32 -46 -5 -59 53 -95 78 -49 8 15 21 20 50 20 26 0 40
-4 40 -13 0 -19 -49 -61 -87 -77 -36 -13 -45 -48 -19 -69 32 -27 90 24 117
104 21 64 29 63 29 -1 0 -131 -32 -231 -71 -219 -31 10 -25 -41 10 -76 51 -50
147 -33 170 32 13 39 8 49 -29 49 -20 0 -33 7 -41 23 -16 28 -26 252 -11 243
5 -3 13 -18 16 -33 21 -86 80 -152 120 -137 23 9 20 51 -5 64 -34 19 -99 81
-99 96 0 32 86 11 94 -22 8 -31 29 -30 55 2 26 34 27 68 1 94 -26 26 -60 26
-60 1 0 -21 -50 -44 -75 -35 -32 13 0 59 61 93 39 20 49 31 49 51 0 21 -5 26
-32 28 -27 3 -36 -3 -60 -36 -16 -22 -35 -58 -43 -81 -7 -22 -18 -41 -23 -41
-12 0 0 170 16 219 10 30 17 37 45 39 22 2 32 8 32 20 0 42 -63 92 -114 92
-14 0 -39 -12 -55 -27z"/>
<path d="M12534 4470 c-27 -11 -64 -57 -64 -81 0 -13 9 -19 33 -21 27 -2 34
-9 44 -39 16 -49 28 -219 16 -219 -5 0 -16 19 -23 41 -8 23 -27 59 -43 81 -24
33 -33 39 -60 36 -27 -2 -32 -7 -32 -28 0 -20 10 -31 49 -51 61 -34 93 -80 61
-93 -25 -9 -75 14 -75 35 0 25 -34 25 -60 -1 -26 -26 -25 -60 1 -94 25 -32 45
-33 53 -2 6 24 30 36 74 36 12 0 22 -4 22 -9 0 -16 -50 -69 -85 -91 -61 -38
-38 -98 25 -65 27 14 62 73 76 128 3 15 11 30 16 33 15 9 5 -215 -11 -243 -8
-16 -21 -23 -41 -23 -37 0 -42 -10 -29 -49 23 -65 119 -82 170 -32 35 35 41
86 10 76 -39 -12 -71 88 -71 219 0 64 8 65 29 1 27 -81 85 -131 118 -104 23
20 11 53 -26 71 -41 21 -81 57 -81 75 0 9 13 13 40 13 29 0 42 -5 50 -20 25
-46 83 -10 78 49 -2 29 -8 37 -31 45 -27 10 -39 4 -50 -27 -4 -14 -87 -21 -87
-8 0 27 23 52 71 77 39 19 50 30 47 46 -2 12 -10 26 -19 31 -35 22 -78 -28
-126 -148 -10 -27 -17 102 -8 173 7 59 25 82 62 82 22 0 24 3 19 28 -15 60
-84 96 -142 72z"/>
<path d="M163 3645 c-43 -18 -73 -69 -73 -121 0 -23 10 -73 22 -110 11 -38 21
-98 22 -134 1 -64 0 -65 -31 -80 -25 -11 -33 -21 -33 -42 0 -36 29 -52 64 -36
51 22 57 125 15 247 -23 66 -24 82 -4 75 8 -4 22 -1 30 6 12 10 11 18 -7 55
-24 50 -19 87 16 110 31 20 72 11 93 -22 15 -23 15 -28 -4 -73 -17 -41 -19
-51 -7 -60 7 -7 22 -9 33 -5 18 5 17 0 -10 -85 -31 -98 -38 -192 -15 -222 16
-22 69 -24 86 -4 21 26 8 60 -25 66 -50 9 -53 39 -16 182 27 104 30 132 22
167 -12 53 -34 78 -80 91 -46 13 -59 12 -98 -5z"/>
<path d="M12534 3649 c-41 -12 -64 -39 -75 -90 -8 -35 -5 -63 22 -167 37 -143
34 -173 -16 -182 -33 -6 -46 -40 -25 -66 21 -24 75 -18 90 11 18 34 7 142 -24
233 -24 71 -25 73 -5 67 11 -4 26 -2 33 5 12 9 10 19 -7 60 -19 45 -19 50 -4
73 21 33 62 42 93 22 35 -23 40 -60 16 -110 -18 -37 -19 -45 -7 -55 8 -7 22
-10 30 -6 20 7 19 -9 -4 -75 -42 -122 -36 -225 15 -247 35 -16 64 0 64 36 0
21 -8 31 -33 42 -31 15 -32 16 -31 80 1 36 11 96 22 134 39 122 21 201 -53
232 -38 16 -56 16 -101 3z"/>
<path d="M187 3583 c-12 -12 -7 -50 8 -63 32 -27 82 23 55 55 -13 15 -51 20
-63 8z"/>
<path d="M12551 3576 c-28 -33 22 -83 55 -55 8 7 14 24 12 38 -2 20 -9 27 -29
29 -14 2 -31 -4 -38 -12z"/>
<path d="M218 3451 c-5 -18 -8 -76 -8 -127 0 -51 -5 -162 -11 -246 -13 -193
-31 -240 -94 -248 -39 -5 -40 -6 -39 -44 2 -44 30 -76 68 -76 20 0 21 -5 22
-93 1 -66 6 -105 20 -137 18 -42 19 -83 22 -675 3 -654 1 -692 -40 -828 -15
-51 -19 -81 -14 -121 7 -53 7 -54 -23 -64 -36 -13 -53 -42 -49 -85 2 -26 7
-32 28 -33 54 -2 60 -5 75 -28 12 -18 18 -72 26 -227 5 -111 11 -204 12 -206
2 -1 95 -7 207 -13 152 -7 209 -14 227 -25 22 -15 25 -21 27 -75 1 -21 7 -26
33 -28 43 -4 72 13 85 49 10 30 11 30 64 23 40 -5 70 -1 121 14 136 41 174 43
828 40 592 -3 633 -4 675 -22 32 -14 71 -19 137 -20 88 -1 93 -2 93 -22 0 -38
32 -66 76 -68 38 -1 39 0 44 39 4 36 10 42 50 62 49 23 237 42 446 44 60 1
120 5 134 9 14 5 -74 9 -205 9 -249 2 -371 13 -394 36 -8 8 -17 34 -20 57 -6
41 -8 43 -40 41 -43 -2 -85 -33 -89 -64 -3 -23 -5 -24 -80 -21 -59 3 -94 -2
-152 -19 -74 -23 -80 -23 -714 -27 l-638 -3 -92 27 c-50 14 -119 28 -154 29
-59 2 -65 5 -82 33 -42 69 -120 83 -120 21 0 -80 -45 -97 -278 -106 l-175 -6
6 175 c9 233 26 278 106 278 62 0 48 78 -21 120 -28 17 -31 23 -33 82 -1 35
-15 104 -29 154 l-27 92 3 638 c4 634 4 640 27 714 17 58 22 93 19 152 -3 75
-2 77 21 80 31 4 62 46 64 89 2 32 0 34 -40 39 -51 7 -68 21 -78 63 -4 17 -11
156 -14 307 -3 161 -9 261 -13 241z m26 -647 c9 -8 16 -19 16 -24 0 -13 -30
-40 -44 -40 -31 0 -47 45 -24 68 16 16 33 15 52 -4z m7 -2035 c9 -18 7 -25 -9
-41 -16 -16 -23 -18 -41 -9 -23 13 -28 40 -9 59 19 19 46 14 59 -9z m520 -519
c21 -12 25 -40 7 -58 -18 -18 -46 -14 -58 9 -9 16 -8 25 6 40 20 22 20 22 45
9z m2034 -6 c19 -20 16 -43 -7 -58 -21 -13 -51 2 -56 26 -3 16 23 48 38 48 5
0 16 -7 25 -16z"/>
<path d="M12569 3205 c-7 -350 -8 -356 -109 -367 -22 -3 -25 -8 -23 -37 2 -43
32 -85 64 -89 23 -3 24 -5 21 -80 -3 -59 2 -94 19 -152 23 -74 23 -80 27 -714
l3 -638 -27 -92 c-14 -50 -28 -119 -29 -154 -2 -59 -5 -65 -33 -82 -69 -42
-83 -120 -21 -120 80 0 97 -45 106 -278 l6 -175 -175 6 c-233 9 -278 26 -278
106 0 62 -78 48 -120 -21 -17 -28 -23 -31 -82 -33 -35 -1 -104 -15 -154 -29
l-92 -27 -638 3 c-634 4 -640 4 -714 27 -58 17 -93 22 -152 19 -75 -3 -77 -2
-80 21 -4 31 -46 62 -89 64 -32 2 -34 0 -40 -41 -3 -23 -12 -49 -20 -57 -23
-23 -145 -34 -394 -36 -131 0 -219 -4 -205 -9 14 -4 74 -8 134 -9 209 -2 397
-21 446 -44 40 -20 46 -26 50 -62 5 -39 6 -40 44 -39 44 2 76 30 76 68 0 20 5
21 93 22 66 1 105 6 137 20 42 18 83 19 675 22 654 3 692 1 828 -40 51 -15 81
-19 121 -14 53 7 54 7 64 -23 13 -36 42 -53 85 -49 26 2 32 7 33 28 2 54 5 60
27 75 18 11 75 18 227 25 112 6 205 12 207 13 1 2 7 95 12 206 8 155 14 209
26 227 15 23 21 26 75 28 21 1 26 7 28 33 4 43 -13 72 -49 85 -30 10 -30 11
-23 64 5 40 1 70 -14 121 -41 136 -43 174 -40 828 3 592 4 633 22 675 14 32
19 71 20 137 1 88 2 93 22 93 38 0 66 32 68 76 1 38 0 39 -39 44 -36 4 -42 10
-62 50 -23 49 -42 234 -44 441 -3 224 -16 149 -20 -116z m45 -407 c13 -21 -2
-51 -26 -56 -16 -3 -48 23 -48 38 0 15 32 41 48 38 8 -2 20 -11 26 -20z m-6
-2020 c19 -19 14 -46 -9 -59 -18 -9 -25 -7 -41 9 -16 16 -18 23 -9 41 13 23
40 28 59 9z m-2563 -534 c19 -20 16 -43 -7 -58 -21 -13 -51 2 -56 26 -3 16 23
48 38 48 5 0 16 -7 25 -16z m2029 -3 c33 -36 -18 -83 -52 -49 -17 17 -15 45 6
57 24 14 26 14 46 -8z"/>
<path d="M4036 419 c-32 -25 -33 -45 -2 -53 32 -8 54 -96 23 -96 -15 0 -65 51
-90 93 -19 30 -61 37 -71 11 -15 -40 51 -99 137 -120 15 -3 30 -11 34 -17 8
-14 -216 -3 -245 12 -15 8 -22 21 -22 41 0 37 -10 42 -49 29 -65 -23 -82 -119
-32 -170 35 -35 86 -41 76 -10 -12 39 88 71 219 71 64 0 65 -8 1 -29 -80 -27
-131 -85 -104 -117 21 -26 56 -17 69 19 16 38 58 87 77 87 9 0 13 -14 13 -40
0 -29 -5 -42 -20 -50 -46 -25 -10 -83 49 -78 29 2 37 8 46 32 7 22 7 30 -3 34
-26 8 -42 34 -42 68 0 58 47 38 85 -36 14 -28 32 -50 39 -50 48 0 59 31 27 71
-16 21 -54 42 -136 76 -27 10 101 17 173 8 59 -7 82 -25 82 -62 0 -22 3 -24
28 -19 36 9 82 60 82 92 0 51 -50 114 -92 114 -12 0 -18 -10 -20 -32 -2 -28
-9 -35 -39 -45 -49 -16 -219 -28 -219 -16 0 5 19 16 41 23 23 8 59 27 81 43
33 24 39 33 36 60 -2 27 -7 32 -28 32 -20 0 -31 -11 -52 -49 -44 -82 -109 -99
-87 -22 5 17 9 32 9 33 0 2 9 3 20 3 13 0 20 7 20 20 0 27 -35 60 -64 60 -13
0 -35 -9 -50 -21z"/>
<path d="M8670 420 c-11 -11 -20 -29 -20 -40 0 -13 7 -20 20 -20 11 0 20 -1
20 -3 0 -1 4 -16 9 -33 22 -77 -43 -60 -87 22 -21 38 -32 49 -52 49 -21 0 -26
-5 -28 -32 -3 -27 3 -36 36 -60 22 -16 58 -35 81 -43 22 -7 41 -18 41 -23 0
-12 -170 0 -219 16 -30 10 -37 17 -39 45 -4 41 -30 43 -72 5 -22 -20 -33 -40
-37 -69 -4 -35 -1 -45 23 -72 16 -17 41 -34 57 -38 24 -5 27 -3 27 19 0 37 23
55 82 62 72 9 200 2 173 -8 -82 -34 -120 -55 -136 -76 -32 -40 -21 -71 27 -71
7 0 25 22 39 50 38 74 85 94 85 36 0 -34 -16 -60 -42 -68 -10 -4 -10 -12 -3
-34 9 -24 17 -30 46 -32 59 -5 95 53 49 78 -15 8 -20 21 -20 50 0 26 4 40 13
40 19 0 61 -49 77 -87 13 -36 48 -45 69 -19 27 32 -24 90 -104 117 -64 21 -63
29 1 29 131 0 231 -32 219 -71 -10 -31 41 -25 76 10 50 51 33 147 -32 170 -39
13 -49 8 -49 -29 0 -20 -7 -33 -22 -41 -29 -15 -253 -26 -245 -12 4 6 19 14
34 17 55 14 114 49 128 76 34 67 -29 86 -69 21 -24 -38 -70 -81 -87 -81 -5 0
-9 10 -9 23 0 43 12 67 36 73 31 8 30 28 -2 53 -34 26 -68 27 -94 1z"/>
<path d="M285 378 c-19 -17 -26 -34 -27 -64 -2 -57 6 -65 55 -58 42 6 87 41
87 69 0 7 -14 27 -31 44 -36 37 -50 38 -84 9z"/>
<path d="M12431 369 c-17 -17 -31 -37 -31 -44 0 -48 118 -97 138 -58 16 31 2
92 -25 113 -34 27 -46 25 -82 -11z"/>
<path d="M76 374 c-26 -25 -19 -49 17 -59 49 -15 59 -47 41 -124 -8 -35 -13
-66 -10 -68 2 -2 32 3 67 11 78 18 109 7 124 -42 10 -36 33 -42 58 -14 23 25
21 55 -3 77 -23 21 -96 26 -169 11 l-43 -8 8 43 c15 73 10 146 -11 169 -22 24
-58 26 -79 4z"/>
<path d="M12645 370 c-21 -23 -26 -96 -11 -169 l8 -43 -43 8 c-73 15 -146 10
-169 -11 -25 -23 -26 -57 -2 -78 28 -26 47 -20 57 15 15 49 46 60 124 42 35
-8 65 -13 67 -11 3 2 -2 33 -10 68 -18 77 -8 109 42 124 36 10 42 33 14 58
-25 23 -55 21 -77 -3z"/>
<path d="M5353 373 c-7 -2 -13 -18 -13 -34 0 -45 -15 -65 -62 -84 -36 -15 -87
-18 -306 -23 -144 -2 -265 -8 -267 -12 -2 -4 96 -10 218 -14 389 -11 409 -16
411 -92 1 -36 3 -39 33 -42 43 -4 72 13 85 49 10 30 11 30 64 23 40 -5 70 -1
121 14 132 40 172 42 763 42 591 0 631 -2 763 -42 51 -15 81 -19 121 -14 53 7
54 7 64 -23 13 -36 42 -53 85 -49 30 3 32 6 33 42 2 76 22 81 411 92 122 4
220 10 218 14 -2 4 -123 10 -267 12 -329 7 -368 18 -368 107 0 62 -78 48 -120
-21 -17 -28 -23 -31 -82 -33 -35 -1 -103 -14 -153 -29 l-89 -26 -616 0 -616 0
-89 26 c-50 15 -118 28 -153 29 -59 2 -65 5 -82 33 -30 50 -70 70 -107 55z
m78 -123 c34 -19 18 -70 -23 -70 -15 0 -38 27 -38 44 0 6 30 36 36 36 3 0 14
-5 25 -10z m1983 -9 c33 -36 -18 -83 -52 -49 -17 17 -15 45 6 57 24 14 26 14
46 -8z"/>
<path d="M3142 358 c-22 -22 -15 -73 13 -88 34 -18 142 -7 233 23 70 24 73 24
67 6 -4 -11 -2 -26 5 -34 9 -11 18 -10 56 6 38 17 48 18 71 7 36 -18 50 -61
29 -93 -24 -36 -61 -42 -111 -17 -37 18 -45 19 -55 7 -7 -8 -10 -22 -6 -30 7
-20 -9 -19 -75 4 -122 42 -225 36 -247 -15 -16 -35 0 -64 36 -64 21 0 31 8 42
33 15 31 16 32 80 31 36 -1 96 -11 134 -22 86 -27 141 -28 184 -2 64 39 78
139 29 196 -40 46 -93 49 -235 13 -143 -37 -173 -34 -182 16 -4 23 -11 31 -30
33 -14 2 -31 -3 -38 -10z"/>
<path d="M4980 346 c0 -14 -8 -32 -17 -41 -21 -21 -63 -17 -188 20 -128 37
-180 32 -237 -22 -53 -51 -40 -166 23 -198 33 -18 135 -20 176 -4 15 6 62 19
103 29 89 23 119 14 135 -37 10 -37 33 -43 58 -15 22 24 21 55 -1 75 -31 28
-99 31 -182 7 -130 -36 -119 -36 -117 -4 3 38 -22 42 -70 10 -46 -31 -62 -32
-97 -5 -46 36 -31 102 28 123 12 4 37 -3 67 -19 26 -13 55 -22 64 -19 18 7 20
35 3 52 -20 20 18 15 96 -14 47 -18 91 -26 131 -26 52 0 62 3 82 27 13 14 23
32 23 40 0 21 -29 45 -56 45 -19 0 -24 -5 -24 -24z"/>
<path d="M7756 354 c-22 -21 -20 -38 7 -69 20 -24 30 -27 82 -27 40 0 84 8
131 26 78 29 116 34 96 14 -17 -17 -15 -45 3 -52 9 -3 38 6 64 19 30 16 55 23
67 19 59 -21 74 -87 28 -123 -35 -27 -51 -26 -97 5 -48 32 -73 28 -70 -10 2
-32 13 -32 -117 4 -115 32 -200 13 -200 -45 0 -24 29 -55 51 -55 8 0 19 15 24
32 16 52 46 61 135 38 41 -10 88 -23 103 -29 41 -16 143 -14 176 4 63 32 76
147 23 198 -57 54 -109 59 -237 22 -125 -37 -167 -41 -188 -20 -9 9 -17 27
-17 41 0 19 -5 24 -24 24 -14 0 -32 -7 -40 -16z"/>
<path d="M9597 363 c-4 -3 -7 -17 -7 -30 0 -15 -9 -27 -26 -35 -21 -10 -47 -7
-154 20 -108 28 -134 31 -171 23 -149 -33 -116 -251 37 -251 23 0 73 10 110
22 38 11 98 21 134 22 64 1 65 0 80 -31 11 -25 21 -33 42 -33 36 0 52 29 36
64 -22 51 -125 57 -247 15 -66 -23 -82 -24 -75 -4 4 8 1 22 -6 30 -10 12 -18
11 -55 -7 -50 -25 -87 -19 -111 17 -21 32 -7 75 29 93 23 11 33 10 71 -7 38
-16 47 -17 56 -6 7 8 9 23 5 34 -6 18 -3 18 67 -6 40 -13 104 -27 141 -30 86
-7 117 6 117 52 0 17 -5 36 -12 43 -13 13 -50 16 -61 5z"/>
<path d="M3526 244 c-31 -30 -8 -69 36 -62 26 3 37 41 18 64 -16 18 -35 18
-54 -2z"/>
<path d="M4590 246 c-6 -8 -10 -25 -8 -38 2 -18 10 -24 36 -26 17 -2 32 1 32
7 0 5 3 16 6 24 6 16 -20 47 -40 47 -8 0 -19 -7 -26 -14z"/>
<path d="M8157 242 c-10 -11 -14 -26 -10 -40 4 -19 11 -23 37 -20 24 2 32 8
34 26 4 25 -13 52 -33 52 -6 0 -19 -8 -28 -18z"/>
<path d="M9220 246 c-19 -23 -8 -61 18 -64 44 -7 67 32 36 62 -19 20 -38 20
-54 2z"/>
</g>
</svg>
